<svg width="24" height="24" viewBox="0 0 24 24" fill="none" xmlns="http://www.w3.org/2000/svg">
<rect width="24" height="24" fill=""/>
<path fill-rule="evenodd" clip-rule="evenodd" d="M9 3C8.51116 3 8.09397 3.35341 8.01361 3.8356L6.01361 15.8356C5.96528 16.1256 6.04698 16.4221 6.23698 16.6464C6.42698 16.8707 6.70605 17 7 17H12V18H4V15C4 14.4477 3.55228 14 3 14C2.44772 14 2 14.4477 2 15V22C2 22.5523 2.44772 23 3 23C3.55229 23 4 22.5523 4 22L4 20H13C13.5523 20 14 19.5523 14 19V17H19C19.294 17 19.573 16.8707 19.763 16.6464C19.953 16.4221 20.0347 16.1256 19.9864 15.8356L17.9864 3.8356C17.906 3.35341 17.4888 3 17 3H9ZM8.18046 15L9.84713 5H16.1529L17.8195 15H8.18046Z" fill="black"/>
</svg>
