<?xml version="1.0" encoding="UTF-8"?>
<svg width="820px" height="228px" viewBox="0 0 820 228" version="1.1" xmlns="http://www.w3.org/2000/svg" xmlns:xlink="http://www.w3.org/1999/xlink">
    <!-- Generator: Sketch 44.1 (41455) - http://www.bohemiancoding.com/sketch -->
    <title>Group 7</title>
    <desc>Created with Sketch.</desc>
    <defs></defs>
    <g id="Page-1" stroke="none" stroke-width="1" fill="none" fill-rule="evenodd">
        <g id="Desktop-Landscape" transform="translate(-175.000000, -2690.000000)">
            <g id="Group-7" transform="translate(175.000000, 2689.000000)">
                <path d="M362.352,151.01 C362.352,158.635371 361.243678,164.797643 359.027,169.497 C356.810322,174.196357 354.039517,177.831654 350.7145,180.403 C347.389483,182.974346 343.820686,184.703329 340.008,185.59 C336.195314,186.476671 332.737349,186.92 329.634,186.92 C326.530651,186.92 323.493848,186.631836 320.5235,186.0555 C317.553152,185.479164 314.738013,184.636839 312.078,183.5285 C309.417987,182.420161 307.001844,181.068008 304.8295,179.472 C302.657156,177.875992 300.773008,176.058344 299.177,174.019 L305.428,168.167 C308.265348,172.15702 311.811979,175.082991 316.068,176.945 C320.324021,178.807009 324.845976,179.738 329.634,179.738 C333.712687,179.738 337.148486,179.206005 339.9415,178.142 C342.734514,177.077995 345.039824,175.681509 346.8575,173.9525 C348.675176,172.223491 350.093828,170.317177 351.1135,168.2335 C352.133172,166.149823 352.886831,164.066177 353.3745,161.9825 C353.862169,159.898823 354.150333,157.926009 354.239,156.064 C354.327667,154.201991 354.372,152.694672 354.372,151.542 L354.372,143.03 L354.106,143.03 C351.800655,146.754019 348.675186,149.679989 344.7295,151.808 C340.783814,153.936011 336.151027,155 330.831,155 C326.308977,155 322.05302,154.179842 318.063,152.5395 C314.07298,150.899158 310.592848,148.638181 307.6225,145.7565 C304.652152,142.874819 302.302509,139.527686 300.5735,135.715 C298.844491,131.902314 297.98,127.823688 297.98,123.479 C297.98,119.134312 298.844491,115.055686 300.5735,111.243 C302.302509,107.430314 304.652152,104.105348 307.6225,101.268 C310.592848,98.4306525 314.07298,96.1696751 318.063,94.485 C322.05302,92.8003249 326.308977,91.958 330.831,91.958 C336.151027,91.958 340.783814,93.0219894 344.7295,95.15 C348.675186,97.2780106 351.800655,100.203981 354.106,103.928 L354.372,103.928 L354.372,93.554 L362.352,93.554 L362.352,151.01 Z M354.638,123.479 C354.638,120.10965 353.995173,116.939848 352.7095,113.9695 C351.423827,110.999152 349.694844,108.427844 347.5225,106.2555 C345.350156,104.083156 342.778848,102.354173 339.8085,101.0685 C336.838152,99.7828269 333.66835,99.14 330.299,99.14 C326.92965,99.14 323.759848,99.7828269 320.7895,101.0685 C317.819152,102.354173 315.247844,104.083156 313.0755,106.2555 C310.903156,108.427844 309.174173,110.999152 307.8885,113.9695 C306.602827,116.939848 305.96,120.10965 305.96,123.479 C305.96,126.84835 306.602827,130.018152 307.8885,132.9885 C309.174173,135.958848 310.903156,138.530156 313.0755,140.7025 C315.247844,142.874844 317.819152,144.603827 320.7895,145.8895 C323.759848,147.175173 326.92965,147.818 330.299,147.818 C333.66835,147.818 336.838152,147.175173 339.8085,145.8895 C342.778848,144.603827 345.350156,142.874844 347.5225,140.7025 C349.694844,138.530156 351.423827,135.958848 352.7095,132.9885 C353.995173,130.018152 354.638,126.84835 354.638,123.479 Z M371.794999,124.277 C371.794999,119.577643 372.592991,115.255186 374.188999,111.3095 C375.785007,107.363814 378.001651,103.950181 380.838999,101.0685 C383.676346,98.1868189 387.089979,95.948008 391.079999,94.352 C395.070019,92.755992 399.414642,91.958 404.113999,91.958 C408.813356,91.958 413.135813,92.755992 417.081499,94.352 C421.027185,95.948008 424.440818,98.1868189 427.322499,101.0685 C430.20418,103.950181 432.442991,107.363814 434.038999,111.3095 C435.635007,115.255186 436.432999,119.577643 436.432999,124.277 C436.432999,128.976357 435.635007,133.298814 434.038999,137.2445 C432.442991,141.190186 430.20418,144.603819 427.322499,147.4855 C424.440818,150.367181 421.027185,152.605992 417.081499,154.202 C413.135813,155.798008 408.813356,156.596 404.113999,156.596 C399.414642,156.596 395.070019,155.798008 391.079999,154.202 C387.089979,152.605992 383.676346,150.367181 380.838999,147.4855 C378.001651,144.603819 375.785007,141.190186 374.188999,137.2445 C372.592991,133.298814 371.794999,128.976357 371.794999,124.277 Z M379.774999,124.277 C379.774999,127.735017 380.32916,130.993485 381.437499,134.0525 C382.545838,137.111515 384.163988,139.771489 386.291999,142.0325 C388.42001,144.293511 390.991317,146.088993 394.005999,147.419 C397.020681,148.749007 400.38998,149.414 404.113999,149.414 C407.838018,149.414 411.207317,148.749007 414.221999,147.419 C417.236681,146.088993 419.807988,144.293511 421.935999,142.0325 C424.06401,139.771489 425.68216,137.111515 426.790499,134.0525 C427.898838,130.993485 428.452999,127.735017 428.452999,124.277 C428.452999,120.818983 427.898838,117.560515 426.790499,114.5015 C425.68216,111.442485 424.06401,108.782511 421.935999,106.5215 C419.807988,104.260489 417.236681,102.465007 414.221999,101.135 C411.207317,99.8049933 407.838018,99.14 404.113999,99.14 C400.38998,99.14 397.020681,99.8049933 394.005999,101.135 C390.991317,102.465007 388.42001,104.260489 386.291999,106.5215 C384.163988,108.782511 382.545838,111.442485 381.437499,114.5015 C380.32916,117.560515 379.774999,120.818983 379.774999,124.277 Z M448.934998,54.452 L456.914998,54.452 L456.914998,155 L448.934998,155 L448.934998,54.452 Z M526.606997,144.227 L526.340997,144.227 C525.099657,146.355011 523.548006,148.194826 521.685997,149.7465 C519.823988,151.298174 517.806841,152.583828 515.634497,153.6035 C513.462153,154.623172 511.179009,155.376831 508.784997,155.8645 C506.390985,156.352169 504.041342,156.596 501.735997,156.596 C497.03664,156.596 492.692017,155.798008 488.701997,154.202 C484.711977,152.605992 481.298344,150.367181 478.460997,147.4855 C475.623649,144.603819 473.407005,141.190186 471.810997,137.2445 C470.214989,133.298814 469.416997,128.976357 469.416997,124.277 C469.416997,119.577643 470.214989,115.255186 471.810997,111.3095 C473.407005,107.363814 475.623649,103.950181 478.460997,101.0685 C481.298344,98.1868189 484.711977,95.948008 488.701997,94.352 C492.692017,92.755992 497.03664,91.958 501.735997,91.958 C504.041342,91.958 506.390985,92.2018309 508.784997,92.6895 C511.179009,93.1771691 513.462153,93.9308282 515.634497,94.9505 C517.806841,95.9701718 519.823988,97.2558256 521.685997,98.8075 C523.548006,100.359174 525.099657,102.198989 526.340997,104.327 L526.606997,104.327 L526.606997,54.452 L534.586997,54.452 L534.586997,155 L526.606997,155 L526.606997,144.227 Z M527.404997,124.277 C527.404997,120.818983 526.740004,117.560515 525.409997,114.5015 C524.07999,111.442485 522.262342,108.782511 519.956997,106.5215 C517.651652,104.260489 514.947346,102.465007 511.843997,101.135 C508.740648,99.8049933 505.371348,99.14 501.735997,99.14 C498.011978,99.14 494.642679,99.8049933 491.627997,101.135 C488.613315,102.465007 486.042007,104.260489 483.913997,106.5215 C481.785986,108.782511 480.167836,111.442485 479.059497,114.5015 C477.951158,117.560515 477.396997,120.818983 477.396997,124.277 C477.396997,127.735017 477.951158,130.993485 479.059497,134.0525 C480.167836,137.111515 481.785986,139.771489 483.913997,142.0325 C486.042007,144.293511 488.613315,146.088993 491.627997,147.419 C494.642679,148.749007 498.011978,149.414 501.735997,149.414 C505.371348,149.414 508.740648,148.749007 511.843997,147.419 C514.947346,146.088993 517.651652,144.293511 519.956997,142.0325 C522.262342,139.771489 524.07999,137.111515 525.409997,134.0525 C526.740004,130.993485 527.404997,127.735017 527.404997,124.277 Z M601.751996,143.429 C598.648647,148.128357 594.813852,151.497656 590.247496,153.537 C585.68114,155.576344 580.649357,156.596 575.151996,156.596 C570.452639,156.596 566.196682,155.798008 562.383996,154.202 C558.57131,152.605992 555.290676,150.367181 552.541996,147.4855 C549.793315,144.603819 547.687503,141.190186 546.224496,137.2445 C544.761488,133.298814 544.029996,128.932024 544.029996,124.144 C544.029996,119.53331 544.783655,115.277353 546.290996,111.376 C547.798337,107.474647 549.926315,104.083181 552.674996,101.2015 C555.423676,98.3198189 558.659977,96.0588415 562.383996,94.4185 C566.108014,92.7781585 570.230973,91.958 574.752996,91.958 C579.452353,91.958 583.597478,92.7781585 587.188496,94.4185 C590.779514,96.0588415 593.79415,98.2311531 596.232496,100.9355 C598.670841,103.639847 600.510656,106.720983 601.751996,110.179 C602.993335,113.637017 603.613996,117.139316 603.613996,120.686 L603.613996,126.272 L552.009996,126.272 C552.009996,127.956675 552.342492,130.10682 553.007496,132.7225 C553.672499,135.33818 554.891654,137.887321 556.664996,140.37 C558.438338,142.852679 560.810148,144.980658 563.780496,146.754 C566.750844,148.527342 570.585639,149.414 575.284996,149.414 C579.363683,149.414 583.30931,148.438676 587.121996,146.488 C590.934682,144.537324 593.860652,141.87735 595.899996,138.508 L601.751996,143.429 Z M595.633996,119.09 C595.633996,116.34132 595.079835,113.770012 593.971496,111.376 C592.863157,108.981988 591.355839,106.876176 589.449496,105.0585 C587.543153,103.240824 585.282176,101.800005 582.666496,100.736 C580.050816,99.6719947 577.28001,99.14 574.353996,99.14 C570.009307,99.14 566.396177,100.026658 563.514496,101.8 C560.632815,103.573342 558.349671,105.612655 556.664996,107.918 C554.980321,110.223345 553.783333,112.462156 553.073996,114.6345 C552.364659,116.806844 552.009996,118.291996 552.009996,119.09 L595.633996,119.09 Z M614.785995,110.844 C614.785995,109.691328 614.741662,108.294842 614.652995,106.6545 C614.564328,105.014158 614.497828,103.351675 614.453495,101.667 C614.409161,99.9823249 614.342662,98.4085073 614.253995,96.9455 C614.165328,95.4824927 614.120995,94.352004 614.120995,93.554 L622.100995,93.554 C622.189662,95.8593449 622.256161,98.0759894 622.300495,100.204 C622.344828,102.332011 622.455661,103.70633 622.632995,104.327 L623.031995,104.327 C624.628003,100.95765 627.287976,98.0538455 631.011995,95.6155 C634.736013,93.1771545 639.080637,91.958 644.045995,91.958 C648.834019,91.958 652.735313,92.7116591 655.749995,94.219 C658.764676,95.7263409 661.136486,97.6991545 662.865495,100.1375 C664.594503,102.575846 665.791491,105.390984 666.456495,108.583 C667.121498,111.775016 667.453995,115.05565 667.453995,118.425 L667.453995,155 L659.473995,155 L659.473995,118.824 C659.473995,116.341321 659.25233,113.925178 658.808995,111.5755 C658.365659,109.225822 657.589834,107.120009 656.481495,105.258 C655.373156,103.395991 653.821505,101.910839 651.826495,100.8025 C649.831485,99.6941611 647.238011,99.14 644.045995,99.14 C641.11998,99.14 638.349174,99.6498282 635.733495,100.6695 C633.117815,101.689172 630.856838,103.240823 628.950495,105.3245 C627.044152,107.408177 625.536834,110.023818 624.428495,113.1715 C623.320156,116.319182 622.765995,120.020979 622.765995,124.277 L622.765995,155 L614.785995,155 L614.785995,110.844 Z M680.753994,99.672 C684.123344,96.5686511 688.024638,94.2411744 692.457994,92.6895 C696.891349,91.1378256 701.324638,90.362 705.757994,90.362 C710.368683,90.362 714.336477,90.9383276 717.661494,92.091 C720.98651,93.2436724 723.712983,94.7953236 725.840994,96.746 C727.969004,98.6966764 729.542822,100.935487 730.562494,103.4625 C731.582165,105.989513 732.091994,108.62732 732.091994,111.376 L732.091994,143.562 C732.091994,145.778678 732.136327,147.817991 732.224994,149.68 C732.313661,151.542009 732.446659,153.315325 732.623994,155 L721.983994,155 C721.717992,151.807984 721.584994,148.616016 721.584994,145.424 L721.318994,145.424 C718.65898,149.502687 715.511345,152.384325 711.875994,154.069 C708.240642,155.753675 704.029018,156.596 699.240994,156.596 C696.314979,156.596 693.522007,156.197004 690.861994,155.399 C688.20198,154.600996 685.874504,153.404008 683.879494,151.808 C681.884484,150.211992 680.310666,148.239178 679.157994,145.8895 C678.005321,143.539822 677.428994,140.813349 677.428994,137.71 C677.428994,133.631313 678.337818,130.21768 680.155494,127.469 C681.973169,124.72032 684.455811,122.481509 687.603494,120.7525 C690.751176,119.023491 694.430806,117.78217 698.642494,117.0285 C702.854181,116.27483 707.35397,115.898 712.141994,115.898 L720.919994,115.898 L720.919994,113.238 C720.919994,111.641992 720.609663,110.046008 719.988994,108.45 C719.368324,106.853992 718.437333,105.413173 717.195994,104.1275 C715.954654,102.841827 714.403003,101.82217 712.540994,101.0685 C710.678984,100.31483 708.46234,99.938 705.890994,99.938 C703.585649,99.938 701.568502,100.159664 699.839494,100.603 C698.110485,101.046336 696.536667,101.600497 695.117994,102.2655 C693.69932,102.930503 692.413666,103.706329 691.260994,104.593 C690.108321,105.479671 688.999999,106.321996 687.935994,107.12 L680.753994,99.672 Z M714.535994,124.676 C711.698646,124.676 708.794842,124.831165 705.824494,125.1415 C702.854146,125.451835 700.149839,126.050329 697.711494,126.937 C695.273148,127.823671 693.278168,129.064992 691.726494,130.661 C690.174819,132.257008 689.398994,134.296321 689.398994,136.779 C689.398994,140.414352 690.618148,143.029992 693.056494,144.626 C695.494839,146.222008 698.79764,147.02 702.964994,147.02 C706.245677,147.02 709.038649,146.465839 711.343994,145.3575 C713.649339,144.249161 715.51132,142.808342 716.929994,141.035 C718.348667,139.261658 719.368324,137.288844 719.988994,135.1165 C720.609663,132.944156 720.919994,130.794011 720.919994,128.666 L720.919994,124.676 L714.535994,124.676 Z M742.864993,91.958 L754.834993,91.958 L754.834993,101.667 L755.100993,101.667 C755.898997,99.9823249 756.962986,98.4528402 758.292993,97.0785 C759.622999,95.7041598 761.108151,94.5293382 762.748493,93.554 C764.388834,92.5786618 766.184316,91.8028362 768.134993,91.2265 C770.085669,90.6501638 772.036316,90.362 773.986993,90.362 C775.937669,90.362 777.710985,90.6279973 779.306993,91.16 L778.774993,104.061 C777.799654,103.794999 776.824331,103.573334 775.848993,103.396 C774.873654,103.218666 773.898331,103.13 772.922993,103.13 C767.070963,103.13 762.593342,104.770317 759.489993,108.051 C756.386644,111.331683 754.834993,116.429965 754.834993,123.346 L754.834993,155 L742.864993,155 L742.864993,91.958 Z M819.206992,102.332 L802.049992,102.332 L802.049992,130.927 C802.049992,132.700342 802.094324,134.451491 802.182992,136.1805 C802.271659,137.909509 802.604155,139.46116 803.180492,140.8355 C803.756828,142.20984 804.643486,143.318162 805.840492,144.1605 C807.037498,145.002838 808.788647,145.424 811.093992,145.424 C812.512665,145.424 813.975651,145.291001 815.482992,145.025 C816.990332,144.758999 818.364652,144.271337 819.605992,143.562 L819.605992,154.468 C818.187318,155.266004 816.347503,155.820165 814.086492,156.1305 C811.82548,156.440835 810.074331,156.596 808.832992,156.596 C804.222302,156.596 800.653504,155.953173 798.126492,154.6675 C795.599479,153.381827 793.737498,151.719344 792.540492,149.68 C791.343486,147.640656 790.634159,145.357513 790.412492,142.8305 C790.190824,140.303487 790.079992,137.754346 790.079992,135.183 L790.079992,102.332 L776.247992,102.332 L776.247992,91.958 L790.079992,91.958 L790.079992,74.269 L802.049992,74.269 L802.049992,91.958 L819.206992,91.958 L819.206992,102.332 Z" id="goldenart" fill="#222222"></path>
                <g id="Group-5">
                    <path d="M114.549824,133.153381 L173.894112,11 L282.659306,217.618429 L281.665371,218.153381 L256.478134,218.153381 L175.035795,65.3067623 L145.801312,123.145091 C183.811513,123.150618 202.821998,123.153381 202.832765,123.153381 C202.832841,123.153381 202.832841,123.153582 202.832764,123.153983 C202.825021,129.153634 202.825021,132.153434 202.832765,132.153381 C197.965868,185.727712 154.918139,228.153381 101.899317,228.153381 C45.6218784,228.153381 0,180.919422 0,122.653381 C0,64.38734 45.6218784,17.1533811 101.899317,17.1533811 C117.754659,17.1533811 133.290102,17.1533811 158.40273,32.1533811 L153.57606,40.815237 C143.100681,34.5581986 134.129825,30.8859002 125.548473,28.9976645 C118.914512,27.5379314 113.4678,27.1638138 103.426872,27.1538831 C103.004163,27.153465 102.664799,27.1533811 101.899317,27.1533811 C50.9562328,27.1533811 9.65870307,69.9101875 9.65870307,122.653381 C9.65870307,175.396575 50.9562328,218.153381 101.899317,218.153381 C149.386922,218.153381 188.493114,181.000259 193.579788,133.238058 C193.445228,133.217908 193.309968,133.189816 193.174061,133.153381 C166.700125,133.333776 151.041353,133.334649 141.982935,133.289989 L141.982935,133.153381 L114.549824,133.153381 Z" id="Combined-Shape" fill="#D8232A" fill-rule="nonzero"></path>
                    <rect id="Rectangle-7-Copy" fill="#FFFFFF" transform="translate(150.157037, 33.757704) rotate(-64.000000) translate(-150.157037, -33.757704) " x="117.317447" y="26.4609041" width="65.6791809" height="14.5936001"></rect>
                </g>
            </g>
        </g>
    </g>
</svg>