<svg width="24" height="24" viewBox="0 0 24 24" fill="none" xmlns="http://www.w3.org/2000/svg">
<rect width="24" height="24" fill=""/>
<path fill-rule="evenodd" clip-rule="evenodd" d="M10 2C9.51116 2 9.09397 2.35341 9.01361 2.8356L8.01361 8.8356C7.96528 9.12555 8.04698 9.42208 8.23698 9.64637C8.42698 9.87067 8.70605 10 9 10H11L11 20H9C8.44772 20 8 20.4477 8 21C8 21.5523 8.44772 22 9 22H15C15.5523 22 16 21.5523 16 21C16 20.4477 15.5523 20 15 20H13L13 10H15C15.294 10 15.573 9.87067 15.763 9.64637C15.953 9.42208 16.0347 9.12555 15.9864 8.8356L14.9864 2.8356C14.906 2.35341 14.4888 2 14 2H10ZM10.1805 8L10.8471 4H13.1529L13.8195 8H10.1805Z" fill="black"/>
</svg>
