<svg width="24" height="24" viewBox="0 0 24 24" fill="none" xmlns="http://www.w3.org/2000/svg">
<rect width="24" height="24" fill=""/>
<path fill-rule="evenodd" clip-rule="evenodd" d="M13.5 3C13.5 2.44772 13.0523 2 12.5 2C11.9477 2 11.5 2.44772 11.5 3V5.24264C11.5 5.79493 11.9477 6.24264 12.5 6.24264C13.0523 6.24264 13.5 5.79493 13.5 5.24264V3ZM5.12132 3.91421C4.7308 3.52369 4.09763 3.52369 3.70711 3.91421C3.31658 4.30474 3.31658 4.9379 3.70711 5.32843L5.29289 6.91421C5.68342 7.30474 6.31658 7.30474 6.70711 6.91421C7.09763 6.52369 7.09763 5.89052 6.70711 5.5L5.12132 3.91421ZM8.52941 7.62132C8.26565 7.62132 8.01256 7.72553 7.82527 7.91126L4.29586 11.4113C3.91976 11.7842 3.89972 12.3858 4.25016 12.7829L11.7502 21.2829C11.94 21.4981 12.2131 21.6213 12.5 21.6213C12.7869 21.6213 13.06 21.4981 13.2498 21.2829L20.7498 12.7829C20.9254 12.584 21.0147 12.3235 20.998 12.0587C20.9814 11.7939 20.8603 11.5466 20.6613 11.3712L16.6907 7.87116C16.508 7.71015 16.2729 7.62132 16.0294 7.62132H8.52941ZM7.42857 11.1213L8.94118 9.62132H15.6516L17.3533 11.1213H7.42857ZM12.5 19.1099L7.21598 13.1213H17.784L12.5 19.1099ZM20.7071 4.32843C21.0976 4.71895 21.0976 5.35212 20.7071 5.74264L19.1213 7.32843C18.7308 7.71895 18.0976 7.71895 17.7071 7.32843C17.3166 6.9379 17.3166 6.30474 17.7071 5.91421L19.2929 4.32843C19.6834 3.9379 20.3166 3.9379 20.7071 4.32843Z" fill="black"/>
</svg>
