<svg width="24" height="24" viewBox="0 0 24 24" fill="none" xmlns="http://www.w3.org/2000/svg">
<rect width="24" height="24" fill=""/>
<path fill-rule="evenodd" clip-rule="evenodd" d="M15.8891 2.95406C16.2796 2.56353 16.9128 2.56353 17.3033 2.95406L21.5459 7.1967C21.9365 7.58722 21.9365 8.22039 21.5459 8.61091L11.6464 18.5104C11.5183 18.6386 11.3577 18.7295 11.1819 18.7734L5.52502 20.1877C5.18424 20.2729 4.82376 20.173 4.57538 19.9246C4.327 19.6762 4.22715 19.3158 4.31234 18.975L5.72655 13.3181C5.77051 13.1423 5.86143 12.9817 5.98959 12.8536L15.8891 2.95406ZM16.5962 5.07538L15.6716 6L18.5 8.82843L19.4246 7.90381L16.5962 5.07538ZM17.0858 10.2426L14.2574 7.41421L8.11091 13.5607L10.9393 16.3891L17.0858 10.2426ZM8.98335 17.2615L7.23848 15.5167L6.65685 17.8431L8.98335 17.2615Z" fill="black"/>
</svg>
