<svg width="24" height="24" viewBox="0 0 24 24" fill="none" xmlns="http://www.w3.org/2000/svg">
<rect width="24" height="24" fill=""/>
<path fill-rule="evenodd" clip-rule="evenodd" d="M11.4145 3.18932C11.764 2.93689 12.236 2.93689 12.5855 3.18932L21.5855 9.68932C22.0332 10.0127 22.134 10.6378 21.8107 11.0855C21.4873 11.5332 20.8622 11.634 20.4145 11.3107L20 11.0113V20.5C20 21.0523 19.5523 21.5 19 21.5H14H10H5C4.44771 21.5 4 21.0523 4 20.5V11.0113L3.58549 11.3107C3.13776 11.634 2.51268 11.5332 2.18932 11.0855C1.86596 10.6378 1.96678 10.0127 2.41451 9.68932L11.4145 3.18932ZM11 19.5H13V14.5H11V19.5ZM15 19.5V13.5C15 12.9477 14.5523 12.5 14 12.5H10C9.44771 12.5 9 12.9477 9 13.5V19.5H6V9.56687L12 5.23353L18 9.56687V19.5H15Z" fill="black"/>
</svg>
