<?xml version="1.0" encoding="UTF-8"?>
<svg width="3323px" height="2096px" viewBox="0 0 3323 2096" version="1.1" xmlns="http://www.w3.org/2000/svg" xmlns:xlink="http://www.w3.org/1999/xlink">
    <!-- Generator: Sketch 44.1 (41455) - http://www.bohemiancoding.com/sketch -->
    <title>Artboard</title>
    <desc>Created with Sketch.</desc>
    <defs></defs>
    <g id="Brand" stroke="none" stroke-width="1" fill="none" fill-rule="evenodd">
        <g id="Artboard">
            <g id="Group-10" transform="translate(98.000000, 121.000000)">
                <g id="Group">
                    <rect id="Rectangle-17" fill="#505050" x="0" y="0" width="924" height="403"></rect>
                    <path d="M304.05304,224.714272 C304.544365,223.042241 304.967774,221.340361 305.322206,219.614223 L325.218189,268.1025 L343.592445,268.1025 L291.231916,146.036617 L258.155177,222.52807 L300.719888,222.52807 C293.854081,247.728671 270.697,266.270469 243.170209,266.270469 C210.236623,266.270469 183.537868,239.733339 183.537868,207.000422 C183.537868,174.266661 210.236623,147.731008 243.170209,147.731008 C254.893441,147.731008 265.816335,151.106712 275.035404,156.915842 L277.160833,153.786413 C267.334346,147.570481 255.680621,143.956835 243.170209,143.956835 C208.138997,143.956835 179.740557,172.182238 179.740557,207.000422 C179.740557,241.818711 208.138997,270.043165 243.170209,270.043165 C272.012221,270.043165 296.352089,250.908621 304.05304,224.714272 M276.924297,219.598402 L291.145961,185.074061 L305.314778,219.598402 L276.924297,219.598402" id="Fill-4" fill="#FFFFFF"></path>
                </g>
            </g>
            <g id="Group-10" transform="translate(98.000000, 645.000000)">
                <g id="Group">
                    <rect id="Rectangle-17" fill="#F2F2F2" x="0" y="0" width="924" height="403"></rect>
                    <path d="M304.05304,224.714272 C304.544365,223.042241 304.967774,221.340361 305.322206,219.614223 L325.218189,268.1025 L343.592445,268.1025 L291.231916,146.036617 L258.155177,222.52807 L300.719888,222.52807 C293.854081,247.728671 270.697,266.270469 243.170209,266.270469 C210.236623,266.270469 183.537868,239.733339 183.537868,207.000422 C183.537868,174.266661 210.236623,147.731008 243.170209,147.731008 C254.893441,147.731008 265.816335,151.106712 275.035404,156.915842 L277.160833,153.786413 C267.334346,147.570481 255.680621,143.956835 243.170209,143.956835 C208.138997,143.956835 179.740557,172.182238 179.740557,207.000422 C179.740557,241.818711 208.138997,270.043165 243.170209,270.043165 C272.012221,270.043165 296.352089,250.908621 304.05304,224.714272 M276.924297,219.598402 L291.145961,185.074061 L305.314778,219.598402 L276.924297,219.598402" id="Fill-4" fill="#D62631"></path>
                </g>
            </g>
            <g id="Group-10" transform="translate(2119.000000, 121.000000)">
                <g id="Group">
                    <rect id="Rectangle-17" fill="#F2F2F2" x="0" y="0" width="1032" height="403"></rect>
                    <path d="M304.312484,224.757437 C304.803808,223.085406 305.227217,221.383526 305.58165,219.657389 L325.477632,268.145665 L343.851889,268.145665 L291.491359,146.079782 L258.41462,222.571235 L300.979331,222.571235 C294.113524,247.771837 270.956443,266.313634 243.429653,266.313634 C210.496066,266.313634 183.797311,239.776504 183.797311,207.043587 C183.797311,174.309827 210.496066,147.774173 243.429653,147.774173 C255.152885,147.774173 266.075778,151.149877 275.294848,156.959008 L277.420276,153.829578 C267.59379,147.613647 255.940065,144 243.429653,144 C208.39844,144 180,172.225404 180,207.043587 C180,241.861876 208.39844,270.086331 243.429653,270.086331 C272.271664,270.086331 296.611532,250.951787 304.312484,224.757437 M277.18374,219.641568 L291.405404,185.117227 L305.574222,219.641568 L277.18374,219.641568" id="Fill-4" fill="#D62626"></path>
                </g>
            </g>
            <g id="Group-10" transform="translate(2119.000000, 584.000000)">
                <g id="Group">
                    <rect id="Rectangle-17" fill="#F2F2F2" x="0" y="0" width="1032" height="403"></rect>
                    <path d="M304.312484,224.757437 C304.803808,223.085406 305.227217,221.383526 305.58165,219.657389 L325.477632,268.145665 L343.851889,268.145665 L291.491359,146.079782 L258.41462,222.571235 L300.979331,222.571235 C294.113524,247.771837 270.956443,266.313634 243.429653,266.313634 C210.496066,266.313634 183.797311,239.776504 183.797311,207.043587 C183.797311,174.309827 210.496066,147.774173 243.429653,147.774173 C255.152885,147.774173 266.075778,151.149877 275.294848,156.959008 L277.420276,153.829578 C267.59379,147.613647 255.940065,144 243.429653,144 C208.39844,144 180,172.225404 180,207.043587 C180,241.861876 208.39844,270.086331 243.429653,270.086331 C272.271664,270.086331 296.611532,250.951787 304.312484,224.757437 M277.18374,219.641568 L291.405404,185.117227 L305.574222,219.641568 L277.18374,219.641568" id="Fill-4" fill="#D62626"></path>
                </g>
            </g>
            <g id="Group-10" transform="translate(2119.000000, 1048.000000)">
                <g id="Group">
                    <rect id="Rectangle-17" fill="#F2F2F2" x="0" y="0" width="1032" height="403"></rect>
                    <path d="M304.312484,224.757437 C304.803808,223.085406 305.227217,221.383526 305.58165,219.657389 L325.477632,268.145665 L343.851889,268.145665 L291.491359,146.079782 L258.41462,222.571235 L300.979331,222.571235 C294.113524,247.771837 270.956443,266.313634 243.429653,266.313634 C210.496066,266.313634 183.797311,239.776504 183.797311,207.043587 C183.797311,174.309827 210.496066,147.774173 243.429653,147.774173 C255.152885,147.774173 266.075778,151.149877 275.294848,156.959008 L277.420276,153.829578 C267.59379,147.613647 255.940065,144 243.429653,144 C208.39844,144 180,172.225404 180,207.043587 C180,241.861876 208.39844,270.086331 243.429653,270.086331 C272.271664,270.086331 296.611532,250.951787 304.312484,224.757437 M277.18374,219.641568 L291.405404,185.117227 L305.574222,219.641568 L277.18374,219.641568" id="Fill-4" fill="#D62626"></path>
                </g>
            </g>
            <g id="Group-10" transform="translate(2119.000000, 1512.000000)">
                <g id="Group">
                    <rect id="Rectangle-17" fill="#F2F2F2" x="0" y="0" width="1032" height="403"></rect>
                    <path d="M304.312484,224.757437 C304.803808,223.085406 305.227217,221.383526 305.58165,219.657389 L325.477632,268.145665 L343.851889,268.145665 L291.491359,146.079782 L258.41462,222.571235 L300.979331,222.571235 C294.113524,247.771837 270.956443,266.313634 243.429653,266.313634 C210.496066,266.313634 183.797311,239.776504 183.797311,207.043587 C183.797311,174.309827 210.496066,147.774173 243.429653,147.774173 C255.152885,147.774173 266.075778,151.149877 275.294848,156.959008 L277.420276,153.829578 C267.59379,147.613647 255.940065,144 243.429653,144 C208.39844,144 180,172.225404 180,207.043587 C180,241.861876 208.39844,270.086331 243.429653,270.086331 C272.271664,270.086331 296.611532,250.951787 304.312484,224.757437 M277.18374,219.641568 L291.405404,185.117227 L305.574222,219.641568 L277.18374,219.641568" id="Fill-4" fill="#D62626"></path>
                </g>
            </g>
            <g id="Group-10" transform="translate(1097.000000, 121.000000)">
                <g id="Group">
                    <rect id="Rectangle-17" fill="#F2F2F2" x="0" y="0" width="955" height="926"></rect>
                    <path d="M526.220812,416.675838 C526.948914,414.198026 527.576371,411.675981 528.101611,409.117988 L557.58581,480.9736 L584.814937,480.9736 L507.220967,300.082065 L458.203977,413.436067 L521.281355,413.436067 C511.106798,450.781273 476.78992,478.258682 435.997495,478.258682 C387.192646,478.258682 347.627301,438.932852 347.627301,390.425378 C347.627301,341.916654 387.192646,302.593013 435.997495,302.593013 C453.370355,302.593013 469.557178,307.595526 483.219077,316.204177 L486.368786,311.566622 C471.806746,302.355125 454.53689,297 435.997495,297 C384.084138,297 342,338.827712 342,390.425378 C342,442.023201 384.084138,483.849506 435.997495,483.849506 C478.738969,483.849506 514.808638,455.493696 526.220812,416.675838 M486.018259,409.094543 L507.093588,357.932326 L528.090603,409.094543 L486.018259,409.094543" id="Fill-4" fill="#D62626"></path>
                    <path d="M298.360544,532.503401 L298.360544,571.352172 C298.360544,575.5943 297.495386,579.306107 295.765044,582.487703 C294.034703,585.669299 291.57877,588.125231 288.397174,589.855573 C285.215578,591.585915 281.503771,592.451073 277.261643,592.451073 C273.856777,592.451073 270.717091,591.851044 267.842491,590.650968 C264.967891,589.450892 262.218921,587.678714 259.5955,585.33438 L261.437467,582.73888 C263.781801,584.859944 266.223779,586.464673 268.763475,587.553114 C271.30317,588.641554 274.107956,589.185767 277.177917,589.185767 C282.592213,589.185767 286.918002,587.581038 290.155416,584.371533 C293.39283,581.162028 295.011512,576.850193 295.011512,571.435897 L295.011512,563.147043 C293.50444,566.663545 291.18805,569.412514 288.062271,571.394035 C284.936492,573.375555 281.308411,574.3663 277.177917,574.3663 C273.326511,574.3663 269.86588,573.473234 266.795918,571.687075 C263.725957,569.900916 261.325842,567.417075 259.5955,564.235479 C257.865158,561.053883 257,557.453709 257,553.434851 C257,549.415992 257.865158,545.815819 259.5955,542.634223 C261.325842,539.452627 263.712003,536.954832 266.754055,535.140764 C269.796108,533.326696 273.242786,532.419676 277.094192,532.419676 C281.224685,532.419676 284.852767,533.424375 287.978545,535.433804 C291.104324,537.443233 293.448623,540.206157 295.011512,543.722658 L295.011512,532.503401 L298.360544,532.503401 Z M286.513344,569.049712 C289.164674,567.514732 291.243844,565.393699 292.750916,562.686552 C294.257988,559.979404 295.011512,556.923443 295.011512,553.518577 C295.011512,550.113711 294.257988,547.043795 292.750916,544.308739 C291.243844,541.573682 289.164674,539.438696 286.513344,537.903715 C283.862014,536.368735 280.889777,535.601256 277.596546,535.601256 C274.303315,535.601256 271.331079,536.368735 268.679749,537.903715 C266.028419,539.438696 263.963203,541.573682 262.48404,544.308739 C261.004877,547.043795 260.265306,550.113711 260.265306,553.518577 C260.265306,556.923443 261.004877,559.979404 262.48404,562.686552 C263.963203,565.393699 266.014464,567.514732 268.637886,569.049712 C271.261307,570.584693 274.247498,571.352172 277.596546,571.352172 C280.889777,571.352172 283.862014,570.584693 286.513344,569.049712 Z M343.78179,535.22449 C347.047112,537.094375 349.600723,539.689849 351.4427,543.010989 C353.284677,546.332129 354.205652,550.085798 354.205652,554.272109 C354.205652,558.514237 353.284677,562.295815 351.4427,565.616954 C349.600723,568.938094 347.047112,571.533568 343.78179,573.403454 C340.516467,575.273339 336.818615,576.208268 332.688121,576.208268 C328.613446,576.208268 324.943501,575.273339 321.678179,573.403454 C318.412857,571.533568 315.845291,568.938094 313.975406,565.616954 C312.10552,562.295815 311.170591,558.514237 311.170591,554.272109 C311.170591,550.085798 312.10552,546.332129 313.975406,543.010989 C315.845291,539.689849 318.412857,537.094375 321.678179,535.22449 C324.943501,533.354604 328.613446,532.419676 332.688121,532.419676 C336.818615,532.419676 340.516467,533.354604 343.78179,535.22449 Z M323.394558,538.11303 C320.659501,539.675919 318.510561,541.866722 316.947671,544.685505 C315.384782,547.504288 314.603349,550.69979 314.603349,554.272109 C314.603349,557.900245 315.384782,561.13761 316.947671,563.984301 C318.510561,566.830993 320.659501,569.03575 323.394558,570.598639 C326.129614,572.161529 329.227438,572.942962 332.688121,572.942962 C336.148805,572.942962 339.260583,572.161529 342.023548,570.598639 C344.786513,569.03575 346.935454,566.830993 348.470434,563.984301 C350.005415,561.13761 350.772894,557.900245 350.772894,554.272109 C350.772894,550.69979 350.005415,547.504288 348.470434,544.685505 C346.935454,541.866722 344.786513,539.675919 342.023548,538.11303 C339.260583,536.55014 336.148805,535.768707 332.688121,535.768707 C329.227438,535.768707 326.129614,536.55014 323.394558,538.11303 Z M368.606489,514 L372.122972,514 L372.122972,576.124542 L368.606489,576.124542 L368.606489,514 Z M429.893773,514 L429.893773,576.124542 L426.37729,576.124542 L426.37729,564.737834 C424.702765,568.36597 422.246833,571.212618 419.009419,573.277865 C415.772006,575.343112 412.032291,576.37572 407.790162,576.37572 C403.715486,576.37572 400.059497,575.426837 396.822083,573.529042 C393.584669,571.631248 391.058966,569.02182 389.244898,565.70068 C387.43083,562.37954 386.52381,558.597963 386.52381,554.355835 C386.52381,550.113706 387.43083,546.318175 389.244898,542.969126 C391.058966,539.620077 393.570715,536.996695 396.78022,535.098901 C399.989725,533.201107 403.631761,532.252224 407.706437,532.252224 C412.004382,532.252224 415.772006,533.284832 419.009419,535.350078 C422.246833,537.415325 424.702765,540.261974 426.37729,543.89011 L426.37729,514 L429.893773,514 Z M417.544218,570.682365 C420.307183,569.063658 422.470078,566.830993 424.032967,563.984301 C425.595857,561.13761 426.37729,557.928153 426.37729,554.355835 C426.37729,550.783516 425.595857,547.574059 424.032967,544.727368 C422.470078,541.880677 420.307183,539.648011 417.544218,538.029304 C414.781253,536.410597 411.669475,535.601256 408.208791,535.601256 C404.748108,535.601256 401.63633,536.410597 398.873365,538.029304 C396.1104,539.648011 393.933551,541.880677 392.342753,544.727368 C390.751955,547.574059 389.956567,550.783516 389.956567,554.355835 C389.956567,557.928153 390.738,561.13761 392.30089,563.984301 C393.863779,566.830993 396.026674,569.063658 398.789639,570.682365 C401.552604,572.301072 404.69229,573.110413 408.208791,573.110413 C411.669475,573.110413 414.781253,572.301072 417.544218,570.682365 Z M476.48718,535.308216 C479.58505,537.233919 481.929349,539.927071 483.520147,543.387755 C485.110945,546.848439 485.878424,550.81142 485.822606,555.276818 L447.727368,555.276818 C447.894821,558.79332 448.759978,561.891143 450.322868,564.570382 C451.885757,567.249621 454.00679,569.328791 456.686028,570.807954 C459.365267,572.287117 462.379366,573.026688 465.728415,573.026688 C468.686741,573.026688 471.435711,572.510384 473.975406,571.47776 C476.515101,570.445137 478.677996,568.952042 480.464155,566.99843 L482.473574,569.259027 C480.408328,571.491726 477.924487,573.208087 475.021978,574.408163 C472.119469,575.608239 468.965829,576.208268 465.560963,576.208268 C461.486287,576.208268 457.830297,575.273339 454.592884,573.403454 C451.35547,571.533568 448.829767,568.938094 447.015699,565.616954 C445.201631,562.295815 444.29461,558.542145 444.29461,554.355835 C444.29461,550.169524 445.215585,546.401901 447.057562,543.052852 C448.899538,539.703803 451.425241,537.094375 454.634746,535.22449 C457.844251,533.354604 461.486287,532.419676 465.560963,532.419676 C469.747274,532.419676 473.38931,533.382513 476.48718,535.308216 Z M482.641026,552.178964 C482.306121,547.155391 480.603713,543.136593 477.533752,540.122449 C474.463791,537.108305 470.472901,535.601256 465.560963,535.601256 C460.649025,535.601256 456.57441,537.122259 453.336997,540.164312 C450.099583,543.206364 448.257634,547.211208 447.811094,552.178964 L482.641026,552.178964 Z M533.336997,536.982732 C536.323232,540.024784 537.816327,544.197078 537.816327,549.499738 L537.816327,576.124542 L534.299843,576.124542 L534.299843,550.169545 C534.299843,545.704147 533.043969,542.215606 530.532182,539.70382 C528.020396,537.192033 524.531856,535.936159 520.066458,535.936159 C515.098702,536.047794 511.121766,537.568797 508.135531,540.499215 C505.149296,543.429633 503.460843,547.434477 503.070121,552.513867 L503.070121,576.124542 L499.553637,576.124542 L499.553637,532.503401 L503.070121,532.503401 L503.070121,543.638932 C504.521375,540.066614 506.767995,537.331599 509.810047,535.433804 C512.8521,533.53601 516.549952,532.531311 520.903716,532.419676 C526.206376,532.419676 530.350762,533.940679 533.336997,536.982732 Z M581.018839,576.124542 L581.018839,569.928833 C577.725607,574.282596 572.562568,576.459445 565.529566,576.459445 C562.459605,576.459445 559.766452,575.873371 557.450026,574.701204 C555.133601,573.529037 553.347469,571.910354 552.091575,569.845107 C550.835682,567.779861 550.207745,565.46347 550.207745,562.895866 C550.207745,558.932825 551.672932,555.793139 554.603349,553.476714 C557.533767,551.160288 561.622336,549.974185 566.869179,549.918367 L580.935113,549.918367 L580.935113,547.825222 C580.935113,544.699444 579.972276,542.285374 578.046573,540.582941 C576.12087,538.880508 573.316084,538.029304 569.63213,538.029304 C565.166732,538.029304 560.617676,539.620078 555.984825,542.801675 L552.719519,537.443223 C555.901115,535.377977 558.845443,533.884882 561.552591,532.963893 C564.259738,532.042905 567.483149,531.582418 571.22292,531.582418 C576.748851,531.582418 581.018824,532.935971 584.032967,535.643119 C587.047111,538.350266 588.582069,542.131844 588.637886,546.987964 L588.721612,576.124542 L581.018839,576.124542 Z M625.895866,539.119972 L634.812664,539.159602 L634.812664,563.691261 C634.812664,567.933389 635.901088,571.100984 638.07797,573.194139 C640.254851,575.287295 643.1015,576.333857 646.618001,576.333857 C650.134502,576.333857 653.595134,574.19886 657,572.021978 L654.906855,567.040293 C652.450886,568.43573 650.162404,569.133438 648.04134,569.133438 C646.25518,569.133438 644.915581,568.60318 644.022501,567.542648 C643.129422,566.482116 642.682889,564.723892 642.682889,562.267923 L642.682889,539.159602 L656.246468,539.159602 L659,532 L642.682889,531.791732 L642.682889,521.326007 L634.812664,521.326007 L634.812664,531.791732 L625.393511,531.749869 L625.393511,531.804383 C621.921918,531.927081 618.907817,532.774069 616.351125,534.345369 C613.671886,535.991985 611.60667,538.406054 610.155416,541.58765 L610.155416,532.042909 L602.368917,532.042909 L602.368917,576.333857 L610.155416,576.333857 L610.155416,552.974359 C610.546138,548.732231 612.136913,545.355324 614.927786,542.843537 C617.71866,540.331751 621.37465,539.159601 625.895866,539.327054 L625.895866,539.119972 Z M576.372057,567.375196 C573.832362,569.133447 570.748492,570.012559 567.120356,570.012559 C564.217847,570.012559 561.901457,569.342759 560.171115,568.00314 C558.440773,566.66352 557.575615,564.849479 557.575615,562.560963 C557.575615,560.272446 558.426819,558.597947 560.129252,557.537415 C561.831685,556.476883 564.441113,555.946625 567.957614,555.946625 L580.935113,555.946625 L580.935113,560.384092 C580.432756,563.286601 578.911752,565.616946 576.372057,567.375196 Z" id="Combined-Shape" fill="#555555"></path>
                </g>
            </g>
            <path d="M2575.1675,305.4875 C2578.09051,307.304509 2580.30249,309.84565 2581.8035,313.111 C2583.30451,316.37635 2584.02867,320.115646 2583.976,324.329 L2548.031,324.329 C2548.189,327.647017 2549.00533,330.569987 2550.48,333.098 C2551.95467,335.626013 2553.95599,337.587826 2556.484,338.9835 C2559.01201,340.379174 2561.85598,341.077 2565.016,341.077 C2567.80735,341.077 2570.40115,340.589838 2572.7975,339.6155 C2575.19385,338.641162 2577.23466,337.232343 2578.92,335.389 L2580.816,337.522 C2578.86732,339.628677 2576.52368,341.248161 2573.785,342.3805 C2571.04632,343.512839 2568.07068,344.079 2564.858,344.079 C2561.01331,344.079 2557.56368,343.196842 2554.509,341.4325 C2551.45432,339.668158 2549.07118,337.219182 2547.3595,334.0855 C2545.64782,330.951818 2544.792,327.41002 2544.792,323.46 C2544.792,319.50998 2545.66099,315.955016 2547.399,312.795 C2549.13701,309.634984 2551.52015,307.172842 2554.5485,305.4085 C2557.57685,303.644158 2561.01331,302.762 2564.858,302.762 C2568.80802,302.762 2572.24449,303.670491 2575.1675,305.4875 Z M2580.974,321.406 C2580.658,316.665976 2579.05168,312.874014 2576.155,310.03 C2573.25832,307.185986 2569.49269,305.764 2564.858,305.764 C2560.22331,305.764 2556.37868,307.199152 2553.324,310.0695 C2550.26932,312.939848 2548.53134,316.718643 2548.11,321.406 L2580.974,321.406 Z M2606.585,305.764 C2603.53032,305.764 2601.05501,306.356494 2599.159,307.5415 C2597.26299,308.726506 2596.315,310.503988 2596.315,312.874 C2596.315,314.454008 2596.789,315.770661 2597.737,316.824 C2598.685,317.877339 2599.86999,318.693664 2601.292,319.273 C2602.71401,319.852336 2604.63632,320.510663 2607.059,321.248 C2609.95568,322.143338 2612.27299,322.985996 2614.011,323.776 C2615.74901,324.566004 2617.23683,325.698326 2618.4745,327.173 C2619.71217,328.647674 2620.331,330.596321 2620.331,333.019 C2620.331,336.653018 2618.96168,339.404824 2616.223,341.2745 C2613.48432,343.144176 2610.08735,344.079 2606.032,344.079 C2603.13532,344.079 2600.37035,343.578672 2597.737,342.578 C2595.10365,341.577328 2592.83901,340.181676 2590.943,338.391 L2592.444,335.863 C2594.23468,337.548342 2596.32815,338.838662 2598.7245,339.734 C2601.12085,340.629338 2603.60932,341.077 2606.19,341.077 C2609.35002,341.077 2611.97016,340.418673 2614.0505,339.102 C2616.13084,337.785327 2617.171,335.863013 2617.171,333.335 C2617.171,331.649658 2616.68384,330.267172 2615.7095,329.1875 C2614.73516,328.107828 2613.51067,327.252003 2612.036,326.62 C2610.56133,325.987997 2608.58635,325.303337 2606.111,324.566 C2603.26699,323.670662 2601.00234,322.84117 2599.317,322.0775 C2597.63166,321.31383 2596.18334,320.207841 2594.972,318.7595 C2593.76066,317.311159 2593.155,315.428345 2593.155,313.111 C2593.155,309.68765 2594.43215,307.107009 2596.9865,305.369 C2599.54085,303.630991 2602.76665,302.762 2606.664,302.762 C2610.98269,302.762 2614.90632,303.841656 2618.435,306.001 L2617.013,308.687 C2613.95832,306.738324 2610.48235,305.764 2606.585,305.764 Z M2642.308,305.764 C2639.25332,305.764 2636.77801,306.356494 2634.882,307.5415 C2632.98599,308.726506 2632.038,310.503988 2632.038,312.874 C2632.038,314.454008 2632.512,315.770661 2633.46,316.824 C2634.408,317.877339 2635.59299,318.693664 2637.015,319.273 C2638.43701,319.852336 2640.35932,320.510663 2642.782,321.248 C2645.67868,322.143338 2647.99599,322.985996 2649.734,323.776 C2651.47201,324.566004 2652.95983,325.698326 2654.1975,327.173 C2655.43517,328.647674 2656.054,330.596321 2656.054,333.019 C2656.054,336.653018 2654.68468,339.404824 2651.946,341.2745 C2649.20732,343.144176 2645.81035,344.079 2641.755,344.079 C2638.85832,344.079 2636.09335,343.578672 2633.46,342.578 C2630.82665,341.577328 2628.56201,340.181676 2626.666,338.391 L2628.167,335.863 C2629.95768,337.548342 2632.05115,338.838662 2634.4475,339.734 C2636.84385,340.629338 2639.33232,341.077 2641.913,341.077 C2645.07302,341.077 2647.69316,340.418673 2649.7735,339.102 C2651.85384,337.785327 2652.894,335.863013 2652.894,333.335 C2652.894,331.649658 2652.40684,330.267172 2651.4325,329.1875 C2650.45816,328.107828 2649.23367,327.252003 2647.759,326.62 C2646.28433,325.987997 2644.30935,325.303337 2641.834,324.566 C2638.98999,323.670662 2636.72534,322.84117 2635.04,322.0775 C2633.35466,321.31383 2631.90634,320.207841 2630.695,318.7595 C2629.48366,317.311159 2628.878,315.428345 2628.878,313.111 C2628.878,309.68765 2630.15515,307.107009 2632.7095,305.369 C2635.26385,303.630991 2638.48965,302.762 2642.387,302.762 C2646.70569,302.762 2650.62932,303.841656 2654.158,306.001 L2652.736,308.687 C2649.68132,306.738324 2646.20535,305.764 2642.308,305.764 Z M2694.3445,305.4875 C2697.26751,307.304509 2699.47949,309.84565 2700.9805,313.111 C2702.48151,316.37635 2703.20567,320.115646 2703.153,324.329 L2667.208,324.329 C2667.366,327.647017 2668.18233,330.569987 2669.657,333.098 C2671.13167,335.626013 2673.13299,337.587826 2675.661,338.9835 C2678.18901,340.379174 2681.03298,341.077 2684.193,341.077 C2686.98435,341.077 2689.57815,340.589838 2691.9745,339.6155 C2694.37085,338.641162 2696.41166,337.232343 2698.097,335.389 L2699.993,337.522 C2698.04432,339.628677 2695.70068,341.248161 2692.962,342.3805 C2690.22332,343.512839 2687.24768,344.079 2684.035,344.079 C2680.19031,344.079 2676.74068,343.196842 2673.686,341.4325 C2670.63132,339.668158 2668.24818,337.219182 2666.5365,334.0855 C2664.82482,330.951818 2663.969,327.41002 2663.969,323.46 C2663.969,319.50998 2664.83799,315.955016 2666.576,312.795 C2668.31401,309.634984 2670.69715,307.172842 2673.7255,305.4085 C2676.75385,303.644158 2680.19031,302.762 2684.035,302.762 C2687.98502,302.762 2691.42149,303.670491 2694.3445,305.4875 Z M2700.151,321.406 C2699.835,316.665976 2698.22868,312.874014 2695.332,310.03 C2692.43532,307.185986 2688.66969,305.764 2684.035,305.764 C2679.40031,305.764 2675.55568,307.199152 2672.501,310.0695 C2669.44632,312.939848 2667.70834,316.718643 2667.287,321.406 L2700.151,321.406 Z M2748.0005,307.0675 C2750.81818,309.937848 2752.227,313.874642 2752.227,318.878 L2752.227,344 L2748.909,344 L2748.909,319.51 C2748.909,315.296646 2747.72401,312.005012 2745.354,309.635 C2742.98399,307.264988 2739.69235,306.08 2735.479,306.08 C2730.79164,306.185334 2727.03918,307.620486 2724.2215,310.3855 C2721.40382,313.150514 2719.81067,316.929309 2719.442,321.722 L2719.442,344 L2716.124,344 L2716.124,302.841 L2719.442,302.841 L2719.442,313.348 C2720.81134,309.977316 2722.93115,307.396676 2725.8015,305.606 C2728.67185,303.815324 2732.16098,302.867334 2736.269,302.762 C2741.27236,302.762 2745.18282,304.197152 2748.0005,307.0675 Z M2784.316,305.922 C2781.05065,305.922 2778.12768,306.659326 2775.547,308.134 C2772.96632,309.608674 2770.95184,311.67582 2769.5035,314.3355 C2768.05516,316.99518 2767.331,320.010316 2767.331,323.381 C2767.331,326.80435 2768.05516,329.858987 2769.5035,332.545 C2770.95184,335.231013 2772.96632,337.311326 2775.547,338.786 C2778.12768,340.260674 2781.05065,340.998 2784.316,340.998 C2787.05468,340.998 2789.58266,340.497672 2791.9,339.497 C2794.21735,338.496328 2796.16599,337.074343 2797.746,335.231 L2799.721,337.364 C2797.87766,339.523344 2795.62618,341.182328 2792.9665,342.341 C2790.30682,343.499672 2787.39702,344.079 2784.237,344.079 C2780.39231,344.079 2776.94268,343.196842 2773.888,341.4325 C2770.83332,339.668158 2768.43701,337.219182 2766.699,334.0855 C2764.96099,330.951818 2764.092,327.41002 2764.092,323.46 C2764.092,319.50998 2764.96099,315.955016 2766.699,312.795 C2768.43701,309.634984 2770.83332,307.172842 2773.888,305.4085 C2776.94268,303.644158 2780.39231,302.762 2784.237,302.762 C2787.18635,302.762 2789.91182,303.262328 2792.4135,304.263 C2794.91518,305.263672 2797.08766,306.685657 2798.931,308.529 L2797.035,310.899 C2793.45365,307.580983 2789.21402,305.922 2784.316,305.922 Z M2813.877,302.841 L2817.116,302.841 L2817.116,344 L2813.877,344 L2813.877,302.841 Z M2817.4715,288.9765 C2818.0245,289.529503 2818.301,290.200996 2818.301,290.991 C2818.301,291.833671 2818.0245,292.531497 2817.4715,293.0845 C2816.9185,293.637503 2816.27334,293.914 2815.536,293.914 C2814.79866,293.914 2814.1535,293.637503 2813.6005,293.0845 C2813.0475,292.531497 2812.771,291.833671 2812.771,290.991 C2812.771,290.200996 2813.0475,289.529503 2813.6005,288.9765 C2814.1535,288.423497 2814.79866,288.147 2815.536,288.147 C2816.27334,288.147 2816.9185,288.423497 2817.4715,288.9765 Z M2861.292,344 L2861.213,335.863 C2859.52766,338.654347 2857.27618,340.721493 2854.4585,342.0645 C2851.64082,343.407507 2848.41502,344.079 2844.781,344.079 C2842.09499,344.079 2839.72501,343.552339 2837.671,342.499 C2835.61699,341.445661 2834.02384,340.010509 2832.8915,338.1935 C2831.75916,336.376491 2831.193,334.309345 2831.193,331.992 C2831.193,328.56865 2832.56232,325.86951 2835.301,323.8945 C2838.03968,321.91949 2841.77898,320.932 2846.519,320.932 L2861.134,320.932 L2861.134,316.903 C2861.08133,313.374316 2860.02801,310.635676 2857.974,308.687 C2855.91999,306.738324 2852.86535,305.764 2848.81,305.764 C2846.33465,305.764 2843.99101,306.224829 2841.779,307.1465 C2839.56699,308.068171 2837.30235,309.397991 2834.985,311.136 L2833.405,308.608 C2836.09101,306.659324 2838.67165,305.197838 2841.147,304.2235 C2843.62235,303.249162 2846.33465,302.762 2849.284,302.762 C2854.07669,302.762 2857.77649,303.999654 2860.3835,306.475 C2862.99051,308.950346 2864.32033,312.347312 2864.373,316.666 L2864.531,344 L2861.292,344 Z M2855.288,338.47 C2858.02668,336.731991 2860.00166,334.098684 2861.213,330.57 L2861.213,323.855 L2846.835,323.855 C2842.77965,323.855 2839.68551,324.53966 2837.5525,325.909 C2835.41949,327.27834 2834.353,329.279653 2834.353,331.913 C2834.353,334.65168 2835.34049,336.863658 2837.3155,338.549 C2839.29051,340.234342 2841.93698,341.077 2845.255,341.077 C2849.20502,341.077 2852.54932,340.208009 2855.288,338.47 Z M2881.215,285.382 L2884.533,285.382 L2884.533,344 L2881.215,344 L2881.215,285.382 Z" id="essencial" fill="#555555"></path>
            <path d="M2565.016,768.922 C2561.75065,768.922 2558.82768,769.659326 2556.247,771.134 C2553.66632,772.608674 2551.65184,774.67582 2550.2035,777.3355 C2548.75516,779.99518 2548.031,783.010316 2548.031,786.381 C2548.031,789.80435 2548.75516,792.858987 2550.2035,795.545 C2551.65184,798.231013 2553.66632,800.311326 2556.247,801.786 C2558.82768,803.260674 2561.75065,803.998 2565.016,803.998 C2567.75468,803.998 2570.28266,803.497672 2572.6,802.497 C2574.91734,801.496328 2576.86599,800.074343 2578.446,798.231 L2580.421,800.364 C2578.57766,802.523344 2576.32618,804.182328 2573.6665,805.341 C2571.00682,806.499672 2568.09702,807.079 2564.937,807.079 C2561.09231,807.079 2557.64268,806.196842 2554.588,804.4325 C2551.53332,802.668158 2549.13701,800.219182 2547.399,797.0855 C2545.66099,793.951818 2544.792,790.41002 2544.792,786.46 C2544.792,782.50998 2545.66099,778.955016 2547.399,775.795 C2549.13701,772.634984 2551.53332,770.172842 2554.588,768.4085 C2557.64268,766.644158 2561.09231,765.762 2564.937,765.762 C2567.88635,765.762 2570.61182,766.262328 2573.1135,767.263 C2575.61518,768.263672 2577.78766,769.685657 2579.631,771.529 L2577.735,773.899 C2574.15365,770.580983 2569.91402,768.922 2565.016,768.922 Z M2603.7805,768.5665 C2606.38751,766.802158 2609.53431,765.867334 2613.221,765.762 L2613.221,769.159 C2608.74431,769.159 2605.16301,770.541486 2602.477,773.3065 C2599.79099,776.071514 2598.26367,779.876642 2597.895,784.722 L2597.895,807 L2594.577,807 L2594.577,765.841 L2597.895,765.841 L2597.895,776.19 C2599.21167,772.871983 2601.17349,770.330842 2603.7805,768.5665 Z M2623.427,765.841 L2626.666,765.841 L2626.666,807 L2623.427,807 L2623.427,765.841 Z M2627.0215,751.9765 C2627.5745,752.529503 2627.851,753.200996 2627.851,753.991 C2627.851,754.833671 2627.5745,755.531497 2627.0215,756.0845 C2626.4685,756.637503 2625.82334,756.914 2625.086,756.914 C2624.34866,756.914 2623.7035,756.637503 2623.1505,756.0845 C2622.5975,755.531497 2622.321,754.833671 2622.321,753.991 C2622.321,753.200996 2622.5975,752.529503 2623.1505,751.9765 C2623.7035,751.423497 2624.34866,751.147 2625.086,751.147 C2625.82334,751.147 2626.4685,751.423497 2627.0215,751.9765 Z M2654.015,768.764 C2650.96032,768.764 2648.48501,769.356494 2646.589,770.5415 C2644.69299,771.726506 2643.745,773.503988 2643.745,775.874 C2643.745,777.454008 2644.219,778.770661 2645.167,779.824 C2646.115,780.877339 2647.29999,781.693664 2648.722,782.273 C2650.14401,782.852336 2652.06632,783.510663 2654.489,784.248 C2657.38568,785.143338 2659.70299,785.985996 2661.441,786.776 C2663.17901,787.566004 2664.66683,788.698326 2665.9045,790.173 C2667.14217,791.647674 2667.761,793.596321 2667.761,796.019 C2667.761,799.653018 2666.39168,802.404824 2663.653,804.2745 C2660.91432,806.144176 2657.51735,807.079 2653.462,807.079 C2650.56532,807.079 2647.80035,806.578672 2645.167,805.578 C2642.53365,804.577328 2640.26901,803.181676 2638.373,801.391 L2639.874,798.863 C2641.66468,800.548342 2643.75815,801.838662 2646.1545,802.734 C2648.55085,803.629338 2651.03932,804.077 2653.62,804.077 C2656.78002,804.077 2659.40016,803.418673 2661.4805,802.102 C2663.56084,800.785327 2664.601,798.863013 2664.601,796.335 C2664.601,794.649658 2664.11384,793.267172 2663.1395,792.1875 C2662.16516,791.107828 2660.94067,790.252003 2659.466,789.62 C2657.99133,788.987997 2656.01635,788.303337 2653.541,787.566 C2650.69699,786.670662 2648.43234,785.84117 2646.747,785.0775 C2645.06166,784.31383 2643.61334,783.207841 2642.402,781.7595 C2641.19066,780.311159 2640.585,778.428345 2640.585,776.111 C2640.585,772.68765 2641.86215,770.107009 2644.4165,768.369 C2646.97085,766.630991 2650.19665,765.762 2654.094,765.762 C2658.41269,765.762 2662.33632,766.841656 2665.865,769.001 L2664.443,771.687 C2661.38832,769.738324 2657.91235,768.764 2654.015,768.764 Z M2699.455,804.156 C2696.55832,806.104676 2693.63535,807.079 2690.686,807.079 C2687.73665,807.079 2685.47201,806.117843 2683.892,804.1955 C2682.31199,802.273157 2681.522,799.416019 2681.522,795.624 L2681.522,769.712 L2675.518,769.712 L2675.518,766.868 L2681.522,766.868 L2681.522,756.677 L2684.682,756.677 L2684.682,766.868 L2698.665,766.868 L2698.665,769.712 L2684.682,769.712 L2684.682,795.229 C2684.682,800.969695 2686.81498,803.84 2691.081,803.84 C2693.50368,803.84 2695.87366,803.050008 2698.191,801.47 L2699.455,804.156 Z M2737.153,807 L2737.074,798.863 C2735.38866,801.654347 2733.13718,803.721493 2730.3195,805.0645 C2727.50182,806.407507 2724.27602,807.079 2720.642,807.079 C2717.95599,807.079 2715.58601,806.552339 2713.532,805.499 C2711.47799,804.445661 2709.88484,803.010509 2708.7525,801.1935 C2707.62016,799.376491 2707.054,797.309345 2707.054,794.992 C2707.054,791.56865 2708.42332,788.86951 2711.162,786.8945 C2713.90068,784.91949 2717.63998,783.932 2722.38,783.932 L2736.995,783.932 L2736.995,779.903 C2736.94233,776.374316 2735.88901,773.635676 2733.835,771.687 C2731.78099,769.738324 2728.72635,768.764 2724.671,768.764 C2722.19565,768.764 2719.85201,769.224829 2717.64,770.1465 C2715.42799,771.068171 2713.16335,772.397991 2710.846,774.136 L2709.266,771.608 C2711.95201,769.659324 2714.53265,768.197838 2717.008,767.2235 C2719.48335,766.249162 2722.19565,765.762 2725.145,765.762 C2729.93769,765.762 2733.63749,766.999654 2736.2445,769.475 C2738.85151,771.950346 2740.18133,775.347312 2740.234,779.666 L2740.392,807 L2737.153,807 Z M2731.149,801.47 C2733.88768,799.731991 2735.86266,797.098684 2737.074,793.57 L2737.074,786.855 L2722.696,786.855 C2718.64065,786.855 2715.54651,787.53966 2713.4135,788.909 C2711.28049,790.27834 2710.214,792.279653 2710.214,794.913 C2710.214,797.65168 2711.20149,799.863658 2713.1765,801.549 C2715.15151,803.234342 2717.79798,804.077 2721.116,804.077 C2725.06602,804.077 2728.41032,803.208009 2731.149,801.47 Z M2757.076,748.382 L2760.394,748.382 L2760.394,807 L2757.076,807 L2757.076,748.382 Z" id="cristal" fill="#555555"></path>
            <path d="M2585.714,1212.382 L2585.714,1271 L2582.396,1271 L2582.396,1260.256 C2580.81599,1263.67935 2578.49868,1266.36532 2575.444,1268.314 C2572.38932,1270.26268 2568.86069,1271.237 2564.858,1271.237 C2561.01331,1271.237 2557.56368,1270.34168 2554.509,1268.551 C2551.45432,1266.76032 2549.07118,1264.29818 2547.3595,1261.1645 C2545.64782,1258.03082 2544.792,1254.46269 2544.792,1250.46 C2544.792,1246.45731 2545.64782,1242.87602 2547.3595,1239.716 C2549.07118,1236.55598 2551.44115,1234.08068 2554.4695,1232.29 C2557.49785,1230.49932 2560.93431,1229.604 2564.779,1229.604 C2568.83435,1229.604 2572.38932,1230.57832 2575.444,1232.527 C2578.49868,1234.47568 2580.81599,1237.16165 2582.396,1240.585 L2582.396,1212.382 L2585.714,1212.382 Z M2574.0615,1265.865 C2576.66851,1264.33766 2578.70933,1262.23101 2580.184,1259.545 C2581.65867,1256.85899 2582.396,1253.83068 2582.396,1250.46 C2582.396,1247.08932 2581.65867,1244.06101 2580.184,1241.375 C2578.70933,1238.68899 2576.66851,1236.58234 2574.0615,1235.055 C2571.45449,1233.52766 2568.51835,1232.764 2565.253,1232.764 C2561.98765,1232.764 2559.05151,1233.52766 2556.4445,1235.055 C2553.83749,1236.58234 2551.78351,1238.68899 2550.2825,1241.375 C2548.78149,1244.06101 2548.031,1247.08932 2548.031,1250.46 C2548.031,1253.83068 2548.76833,1256.85899 2550.243,1259.545 C2551.71767,1262.23101 2553.75849,1264.33766 2556.3655,1265.865 C2558.97251,1267.39234 2561.93498,1268.156 2565.253,1268.156 C2568.51835,1268.156 2571.45449,1267.39234 2574.0615,1265.865 Z M2629.6925,1232.4875 C2632.61551,1234.30451 2634.82749,1236.84565 2636.3285,1240.111 C2637.82951,1243.37635 2638.55367,1247.11565 2638.501,1251.329 L2602.556,1251.329 C2602.714,1254.64702 2603.53033,1257.56999 2605.005,1260.098 C2606.47967,1262.62601 2608.48099,1264.58783 2611.009,1265.9835 C2613.53701,1267.37917 2616.38098,1268.077 2619.541,1268.077 C2622.33235,1268.077 2624.92615,1267.58984 2627.3225,1266.6155 C2629.71885,1265.64116 2631.75966,1264.23234 2633.445,1262.389 L2635.341,1264.522 C2633.39232,1266.62868 2631.04868,1268.24816 2628.31,1269.3805 C2625.57132,1270.51284 2622.59568,1271.079 2619.383,1271.079 C2615.53831,1271.079 2612.08868,1270.19684 2609.034,1268.4325 C2605.97932,1266.66816 2603.59618,1264.21918 2601.8845,1261.0855 C2600.17282,1257.95182 2599.317,1254.41002 2599.317,1250.46 C2599.317,1246.50998 2600.18599,1242.95502 2601.924,1239.795 C2603.66201,1236.63498 2606.04515,1234.17284 2609.0735,1232.4085 C2612.10185,1230.64416 2615.53831,1229.762 2619.383,1229.762 C2623.33302,1229.762 2626.76949,1230.67049 2629.6925,1232.4875 Z M2635.499,1248.406 C2635.183,1243.66598 2633.57668,1239.87401 2630.68,1237.03 C2627.78332,1234.18599 2624.01769,1232.764 2619.383,1232.764 C2614.74831,1232.764 2610.90368,1234.19915 2607.849,1237.0695 C2604.79432,1239.93985 2603.05634,1243.71864 2602.635,1248.406 L2635.499,1248.406 Z M2661.11,1232.764 C2658.05532,1232.764 2655.58001,1233.35649 2653.684,1234.5415 C2651.78799,1235.72651 2650.84,1237.50399 2650.84,1239.874 C2650.84,1241.45401 2651.314,1242.77066 2652.262,1243.824 C2653.21,1244.87734 2654.39499,1245.69366 2655.817,1246.273 C2657.23901,1246.85234 2659.16132,1247.51066 2661.584,1248.248 C2664.48068,1249.14334 2666.79799,1249.986 2668.536,1250.776 C2670.27401,1251.566 2671.76183,1252.69833 2672.9995,1254.173 C2674.23717,1255.64767 2674.856,1257.59632 2674.856,1260.019 C2674.856,1263.65302 2673.48668,1266.40482 2670.748,1268.2745 C2668.00932,1270.14418 2664.61235,1271.079 2660.557,1271.079 C2657.66032,1271.079 2654.89535,1270.57867 2652.262,1269.578 C2649.62865,1268.57733 2647.36401,1267.18168 2645.468,1265.391 L2646.969,1262.863 C2648.75968,1264.54834 2650.85315,1265.83866 2653.2495,1266.734 C2655.64585,1267.62934 2658.13432,1268.077 2660.715,1268.077 C2663.87502,1268.077 2666.49516,1267.41867 2668.5755,1266.102 C2670.65584,1264.78533 2671.696,1262.86301 2671.696,1260.335 C2671.696,1258.64966 2671.20884,1257.26717 2670.2345,1256.1875 C2669.26016,1255.10783 2668.03567,1254.252 2666.561,1253.62 C2665.08633,1252.988 2663.11135,1252.30334 2660.636,1251.566 C2657.79199,1250.67066 2655.52734,1249.84117 2653.842,1249.0775 C2652.15666,1248.31383 2650.70834,1247.20784 2649.497,1245.7595 C2648.28566,1244.31116 2647.68,1242.42834 2647.68,1240.111 C2647.68,1236.68765 2648.95715,1234.10701 2651.5115,1232.369 C2654.06585,1230.63099 2657.29165,1229.762 2661.189,1229.762 C2665.50769,1229.762 2669.43132,1230.84166 2672.96,1233.001 L2671.538,1235.687 C2668.48332,1233.73832 2665.00735,1232.764 2661.11,1232.764 Z M2687.195,1229.841 L2690.434,1229.841 L2690.434,1271 L2687.195,1271 L2687.195,1229.841 Z M2690.7895,1215.9765 C2691.3425,1216.5295 2691.619,1217.201 2691.619,1217.991 C2691.619,1218.83367 2691.3425,1219.5315 2690.7895,1220.0845 C2690.2365,1220.6375 2689.59134,1220.914 2688.854,1220.914 C2688.11666,1220.914 2687.4715,1220.6375 2686.9185,1220.0845 C2686.3655,1219.5315 2686.089,1218.83367 2686.089,1217.991 C2686.089,1217.201 2686.3655,1216.5295 2686.9185,1215.9765 C2687.4715,1215.4235 2688.11666,1215.147 2688.854,1215.147 C2689.59134,1215.147 2690.2365,1215.4235 2690.7895,1215.9765 Z M2742.747,1229.841 L2742.747,1266.497 C2742.747,1270.49969 2741.93068,1274.00198 2740.298,1277.004 C2738.66533,1280.00602 2736.34802,1282.32333 2733.346,1283.956 C2730.34399,1285.58867 2726.84169,1286.405 2722.839,1286.405 C2719.62632,1286.405 2716.66385,1285.83884 2713.9515,1284.7065 C2711.23915,1283.57416 2708.64535,1281.90201 2706.17,1279.69 L2707.908,1277.241 C2710.12001,1279.24234 2712.42415,1280.75649 2714.8205,1281.7835 C2717.21685,1282.81051 2719.86332,1283.324 2722.76,1283.324 C2727.86869,1283.324 2731.95032,1281.80985 2735.005,1278.7815 C2738.05968,1275.75315 2739.587,1271.68469 2739.587,1266.576 L2739.587,1258.755 C2738.16499,1262.07302 2735.97935,1264.66682 2733.03,1266.5365 C2730.08065,1268.40618 2726.65735,1269.341 2722.76,1269.341 C2719.12598,1269.341 2715.86068,1268.49834 2712.964,1266.813 C2710.06732,1265.12766 2707.80268,1262.78402 2706.17,1259.782 C2704.53733,1256.77998 2703.721,1253.38302 2703.721,1249.591 C2703.721,1245.79898 2704.53733,1242.40202 2706.17,1239.4 C2707.80268,1236.39798 2710.05415,1234.04118 2712.9245,1232.3295 C2715.79485,1230.61782 2719.04698,1229.762 2722.681,1229.762 C2726.57835,1229.762 2730.00165,1230.70999 2732.951,1232.606 C2735.90035,1234.50201 2738.11233,1237.10898 2739.587,1240.427 L2739.587,1229.841 L2742.747,1229.841 Z M2731.5685,1264.3245 C2734.07018,1262.87616 2736.03199,1260.87485 2737.454,1258.3205 C2738.87601,1255.76615 2739.587,1252.88268 2739.587,1249.67 C2739.587,1246.45732 2738.87601,1243.56068 2737.454,1240.98 C2736.03199,1238.39932 2734.07018,1236.38484 2731.5685,1234.9365 C2729.06682,1233.48816 2726.26235,1232.764 2723.155,1232.764 C2720.04765,1232.764 2717.24318,1233.48816 2714.7415,1234.9365 C2712.23982,1236.38484 2710.29117,1238.39932 2708.8955,1240.98 C2707.49983,1243.56068 2706.802,1246.45732 2706.802,1249.67 C2706.802,1252.88268 2707.49983,1255.76615 2708.8955,1258.3205 C2710.29117,1260.87485 2712.22665,1262.87616 2714.702,1264.3245 C2717.17735,1265.77284 2719.99498,1266.497 2723.155,1266.497 C2726.26235,1266.497 2729.06682,1265.77284 2731.5685,1264.3245 Z M2791.1495,1234.0675 C2793.96718,1236.93785 2795.376,1240.87464 2795.376,1245.878 L2795.376,1271 L2792.058,1271 L2792.058,1246.51 C2792.058,1242.29665 2790.87301,1239.00501 2788.503,1236.635 C2786.13299,1234.26499 2782.84135,1233.08 2778.628,1233.08 C2773.94064,1233.18533 2770.18818,1234.62049 2767.3705,1237.3855 C2764.55282,1240.15051 2762.95967,1243.92931 2762.591,1248.722 L2762.591,1271 L2759.273,1271 L2759.273,1229.841 L2762.591,1229.841 L2762.591,1240.348 C2763.96034,1236.97732 2766.08015,1234.39668 2768.9505,1232.606 C2771.82085,1230.81532 2775.30998,1229.86733 2779.418,1229.762 C2784.42136,1229.762 2788.33182,1231.19715 2791.1495,1234.0675 Z M2812.4945,1266.734 C2813.0475,1267.26067 2813.324,1267.919 2813.324,1268.709 C2813.324,1269.55167 2813.0475,1270.2495 2812.4945,1270.8025 C2811.9415,1271.3555 2811.29634,1271.632 2810.559,1271.632 C2809.82166,1271.632 2809.18967,1271.3555 2808.663,1270.8025 C2808.13633,1270.2495 2807.873,1269.55167 2807.873,1268.709 C2807.873,1267.919 2808.13633,1267.26067 2808.663,1266.734 C2809.18967,1266.20733 2809.82166,1265.944 2810.559,1265.944 C2811.29634,1265.944 2811.9415,1266.20733 2812.4945,1266.734 Z M2827.559,1212.382 L2830.877,1212.382 L2830.877,1271 L2827.559,1271 L2827.559,1212.382 Z M2875.369,1271 L2875.29,1262.863 C2873.60466,1265.65435 2871.35318,1267.72149 2868.5355,1269.0645 C2865.71782,1270.40751 2862.49202,1271.079 2858.858,1271.079 C2856.17199,1271.079 2853.80201,1270.55234 2851.748,1269.499 C2849.69399,1268.44566 2848.10084,1267.01051 2846.9685,1265.1935 C2845.83616,1263.37649 2845.27,1261.30934 2845.27,1258.992 C2845.27,1255.56865 2846.63932,1252.86951 2849.378,1250.8945 C2852.11668,1248.91949 2855.85598,1247.932 2860.596,1247.932 L2875.211,1247.932 L2875.211,1243.903 C2875.15833,1240.37432 2874.10501,1237.63568 2872.051,1235.687 C2869.99699,1233.73832 2866.94235,1232.764 2862.887,1232.764 C2860.41165,1232.764 2858.06801,1233.22483 2855.856,1234.1465 C2853.64399,1235.06817 2851.37935,1236.39799 2849.062,1238.136 L2847.482,1235.608 C2850.16801,1233.65932 2852.74865,1232.19784 2855.224,1231.2235 C2857.69935,1230.24916 2860.41165,1229.762 2863.361,1229.762 C2868.15369,1229.762 2871.85349,1230.99965 2874.4605,1233.475 C2877.06751,1235.95035 2878.39733,1239.34731 2878.45,1243.666 L2878.608,1271 L2875.369,1271 Z M2869.365,1265.47 C2872.10368,1263.73199 2874.07866,1261.09868 2875.29,1257.57 L2875.29,1250.855 L2860.912,1250.855 C2856.85665,1250.855 2853.76251,1251.53966 2851.6295,1252.909 C2849.49649,1254.27834 2848.43,1256.27965 2848.43,1258.913 C2848.43,1261.65168 2849.41749,1263.86366 2851.3925,1265.549 C2853.36751,1267.23434 2856.01398,1268.077 2859.332,1268.077 C2863.28202,1268.077 2866.62632,1267.20801 2869.365,1265.47 Z M2926.2995,1232.4085 C2929.32785,1234.17284 2931.68466,1236.62182 2933.37,1239.7555 C2935.05534,1242.88918 2935.898,1246.45731 2935.898,1250.46 C2935.898,1254.41002 2935.05534,1257.95182 2933.37,1261.0855 C2931.68466,1264.21918 2929.34102,1266.66816 2926.339,1268.4325 C2923.33699,1270.19684 2919.91369,1271.079 2916.069,1271.079 C2912.06631,1271.079 2908.55085,1270.11784 2905.5225,1268.1955 C2902.49415,1266.27316 2900.19001,1263.62668 2898.61,1260.256 L2898.61,1271 L2895.292,1271 L2895.292,1212.382 L2898.61,1212.382 L2898.61,1240.664 C2900.19001,1237.24065 2902.49415,1234.56784 2905.5225,1232.6455 C2908.55085,1230.72316 2912.06631,1229.762 2916.069,1229.762 C2919.86102,1229.762 2923.27115,1230.64416 2926.2995,1232.4085 Z M2924.4035,1265.7465 C2927.01051,1264.24549 2929.03816,1262.16518 2930.4865,1259.5055 C2931.93484,1256.84582 2932.659,1253.83068 2932.659,1250.46 C2932.659,1247.08932 2931.93484,1244.07418 2930.4865,1241.4145 C2929.03816,1238.75482 2927.01051,1236.66134 2924.4035,1235.134 C2921.79649,1233.60666 2918.86035,1232.843 2915.595,1232.843 C2912.32965,1232.843 2909.40668,1233.60666 2906.826,1235.134 C2904.24532,1236.66134 2902.23084,1238.75482 2900.7825,1241.4145 C2899.33416,1244.07418 2898.61,1247.08932 2898.61,1250.46 C2898.61,1253.83068 2899.33416,1256.84582 2900.7825,1259.5055 C2902.23084,1262.16518 2904.24532,1264.24549 2906.826,1265.7465 C2909.40668,1267.24751 2912.32965,1267.998 2915.595,1267.998 C2918.86035,1267.998 2921.79649,1267.24751 2924.4035,1265.7465 Z" id="design.lab" fill="#555555"></path>
            <path d="M2541.632,1693.841 L2545.187,1693.841 L2560.039,1731.445 L2574.812,1693.841 L2578.288,1693.841 L2561.698,1735 L2558.301,1735 L2541.632,1693.841 Z M2587.625,1693.841 L2590.864,1693.841 L2590.864,1735 L2587.625,1735 L2587.625,1693.841 Z M2591.2195,1679.9765 C2591.7725,1680.5295 2592.049,1681.201 2592.049,1681.991 C2592.049,1682.83367 2591.7725,1683.5315 2591.2195,1684.0845 C2590.6665,1684.6375 2590.02134,1684.914 2589.284,1684.914 C2588.54666,1684.914 2587.9015,1684.6375 2587.3485,1684.0845 C2586.7955,1683.5315 2586.519,1682.83367 2586.519,1681.991 C2586.519,1681.201 2586.7955,1680.5295 2587.3485,1679.9765 C2587.9015,1679.4235 2588.54666,1679.147 2589.284,1679.147 C2590.02134,1679.147 2590.6665,1679.4235 2591.2195,1679.9765 Z M2640.4515,1698.0675 C2643.26918,1700.93785 2644.678,1704.87464 2644.678,1709.878 L2644.678,1735 L2641.36,1735 L2641.36,1710.51 C2641.36,1706.29665 2640.17501,1703.00501 2637.805,1700.635 C2635.43499,1698.26499 2632.14335,1697.08 2627.93,1697.08 C2623.24264,1697.18533 2619.49018,1698.62049 2616.6725,1701.3855 C2613.85482,1704.15051 2612.26167,1707.92931 2611.893,1712.722 L2611.893,1735 L2608.575,1735 L2608.575,1693.841 L2611.893,1693.841 L2611.893,1704.348 C2613.26234,1700.97732 2615.38215,1698.39668 2618.2525,1696.606 C2621.12285,1694.81532 2624.61198,1693.86733 2628.72,1693.762 C2633.72336,1693.762 2637.63382,1695.19715 2640.4515,1698.0675 Z M2680.322,1732.156 C2677.42532,1734.10468 2674.50235,1735.079 2671.553,1735.079 C2668.60365,1735.079 2666.33901,1734.11784 2664.759,1732.1955 C2663.17899,1730.27316 2662.389,1727.41602 2662.389,1723.624 L2662.389,1697.712 L2656.385,1697.712 L2656.385,1694.868 L2662.389,1694.868 L2662.389,1684.677 L2665.549,1684.677 L2665.549,1694.868 L2679.532,1694.868 L2679.532,1697.712 L2665.549,1697.712 L2665.549,1723.229 C2665.549,1728.9697 2667.68198,1731.84 2671.948,1731.84 C2674.37068,1731.84 2676.74066,1731.05001 2679.058,1729.47 L2680.322,1732.156 Z M2718.02,1735 L2717.941,1726.863 C2716.25566,1729.65435 2714.00418,1731.72149 2711.1865,1733.0645 C2708.36882,1734.40751 2705.14302,1735.079 2701.509,1735.079 C2698.82299,1735.079 2696.45301,1734.55234 2694.399,1733.499 C2692.34499,1732.44566 2690.75184,1731.01051 2689.6195,1729.1935 C2688.48716,1727.37649 2687.921,1725.30934 2687.921,1722.992 C2687.921,1719.56865 2689.29032,1716.86951 2692.029,1714.8945 C2694.76768,1712.91949 2698.50698,1711.932 2703.247,1711.932 L2717.862,1711.932 L2717.862,1707.903 C2717.80933,1704.37432 2716.75601,1701.63568 2714.702,1699.687 C2712.64799,1697.73832 2709.59335,1696.764 2705.538,1696.764 C2703.06265,1696.764 2700.71901,1697.22483 2698.507,1698.1465 C2696.29499,1699.06817 2694.03035,1700.39799 2691.713,1702.136 L2690.133,1699.608 C2692.81901,1697.65932 2695.39965,1696.19784 2697.875,1695.2235 C2700.35035,1694.24916 2703.06265,1693.762 2706.012,1693.762 C2710.80469,1693.762 2714.50449,1694.99965 2717.1115,1697.475 C2719.71851,1699.95035 2721.04833,1703.34731 2721.101,1707.666 L2721.259,1735 L2718.02,1735 Z M2712.016,1729.47 C2714.75468,1727.73199 2716.72966,1725.09868 2717.941,1721.57 L2717.941,1714.855 L2703.563,1714.855 C2699.50765,1714.855 2696.41351,1715.53966 2694.2805,1716.909 C2692.14749,1718.27834 2691.081,1720.27965 2691.081,1722.913 C2691.081,1725.65168 2692.06849,1727.86366 2694.0435,1729.549 C2696.01851,1731.23434 2698.66498,1732.077 2701.983,1732.077 C2705.93302,1732.077 2709.27732,1731.20801 2712.016,1729.47 Z M2772.15,1693.841 L2772.15,1730.497 C2772.15,1734.49969 2771.33368,1738.00198 2769.701,1741.004 C2768.06833,1744.00602 2765.75102,1746.32333 2762.749,1747.956 C2759.74699,1749.58867 2756.24469,1750.405 2752.242,1750.405 C2749.02932,1750.405 2746.06685,1749.83884 2743.3545,1748.7065 C2740.64215,1747.57416 2738.04835,1745.90201 2735.573,1743.69 L2737.311,1741.241 C2739.52301,1743.24234 2741.82715,1744.75649 2744.2235,1745.7835 C2746.61985,1746.81051 2749.26632,1747.324 2752.163,1747.324 C2757.27169,1747.324 2761.35332,1745.80985 2764.408,1742.7815 C2767.46268,1739.75315 2768.99,1735.68469 2768.99,1730.576 L2768.99,1722.755 C2767.56799,1726.07302 2765.38235,1728.66682 2762.433,1730.5365 C2759.48365,1732.40618 2756.06035,1733.341 2752.163,1733.341 C2748.52898,1733.341 2745.26368,1732.49834 2742.367,1730.813 C2739.47032,1729.12766 2737.20568,1726.78402 2735.573,1723.782 C2733.94033,1720.77998 2733.124,1717.38302 2733.124,1713.591 C2733.124,1709.79898 2733.94033,1706.40202 2735.573,1703.4 C2737.20568,1700.39798 2739.45715,1698.04118 2742.3275,1696.3295 C2745.19785,1694.61782 2748.44998,1693.762 2752.084,1693.762 C2755.98135,1693.762 2759.40465,1694.70999 2762.354,1696.606 C2765.30335,1698.50201 2767.51533,1701.10898 2768.99,1704.427 L2768.99,1693.841 L2772.15,1693.841 Z M2760.9715,1728.3245 C2763.47318,1726.87616 2765.43499,1724.87485 2766.857,1722.3205 C2768.27901,1719.76615 2768.99,1716.88268 2768.99,1713.67 C2768.99,1710.45732 2768.27901,1707.56068 2766.857,1704.98 C2765.43499,1702.39932 2763.47318,1700.38484 2760.9715,1698.9365 C2758.46982,1697.48816 2755.66535,1696.764 2752.558,1696.764 C2749.45065,1696.764 2746.64618,1697.48816 2744.1445,1698.9365 C2741.64282,1700.38484 2739.69417,1702.39932 2738.2985,1704.98 C2736.90283,1707.56068 2736.205,1710.45732 2736.205,1713.67 C2736.205,1716.88268 2736.90283,1719.76615 2738.2985,1722.3205 C2739.69417,1724.87485 2741.62965,1726.87616 2744.105,1728.3245 C2746.58035,1729.77284 2749.39798,1730.497 2752.558,1730.497 C2755.66535,1730.497 2758.46982,1729.77284 2760.9715,1728.3245 Z M2814.6275,1696.4875 C2817.55051,1698.30451 2819.76249,1700.84565 2821.2635,1704.111 C2822.76451,1707.37635 2823.48867,1711.11565 2823.436,1715.329 L2787.491,1715.329 C2787.649,1718.64702 2788.46533,1721.56999 2789.94,1724.098 C2791.41467,1726.62601 2793.41599,1728.58783 2795.944,1729.9835 C2798.47201,1731.37917 2801.31598,1732.077 2804.476,1732.077 C2807.26735,1732.077 2809.86115,1731.58984 2812.2575,1730.6155 C2814.65385,1729.64116 2816.69466,1728.23234 2818.38,1726.389 L2820.276,1728.522 C2818.32732,1730.62868 2815.98368,1732.24816 2813.245,1733.3805 C2810.50632,1734.51284 2807.53068,1735.079 2804.318,1735.079 C2800.47331,1735.079 2797.02368,1734.19684 2793.969,1732.4325 C2790.91432,1730.66816 2788.53118,1728.21918 2786.8195,1725.0855 C2785.10783,1721.95182 2784.252,1718.41002 2784.252,1714.46 C2784.252,1710.50998 2785.12099,1706.95502 2786.859,1703.795 C2788.59701,1700.63498 2790.98015,1698.17284 2794.0085,1696.4085 C2797.03685,1694.64416 2800.47331,1693.762 2804.318,1693.762 C2808.26802,1693.762 2811.70449,1694.67049 2814.6275,1696.4875 Z M2820.434,1712.406 C2820.118,1707.66598 2818.51168,1703.87401 2815.615,1701.03 C2812.71832,1698.18599 2808.95269,1696.764 2804.318,1696.764 C2799.68331,1696.764 2795.83868,1698.19915 2792.784,1701.0695 C2789.72932,1703.93985 2787.99134,1707.71864 2787.57,1712.406 L2820.434,1712.406 Z" id="vintage" fill="#555555"></path>
            <path d="M2510.82473,1296.75 L2507.02898,1296.75 L2471.86504,1214.25 L2475.6608,1214.25 L2510.82473,1296.75 Z M2474.66957,1215.75 L2474.13496,1215.75 L2508.0202,1295.25 L2508.55482,1295.25 L2474.66957,1215.75 Z" id="Combined-Shape" fill="#D62626" fill-rule="nonzero"></path>
            <path d="M2510.82473,1755.75 L2507.02898,1755.75 L2471.86504,1673.25 L2475.6608,1673.25 L2510.82473,1755.75 Z M2474.66957,1674.75 L2474.13496,1674.75 L2508.0202,1754.25 L2508.55482,1754.25 L2474.66957,1674.75 Z" id="Combined-Shape" fill="#D62626" fill-rule="nonzero"></path>
            <path d="M2510.82473,830.75 L2507.02898,830.75 L2471.86504,748.25 L2475.6608,748.25 L2510.82473,830.75 Z M2474.66957,749.75 L2474.13496,749.75 L2508.0202,829.25 L2508.55482,829.25 L2474.66957,749.75 Z" id="Combined-Shape" fill="#D62626" fill-rule="nonzero"></path>
            <path d="M2510.82473,364.75 L2507.02898,364.75 L2471.86504,282.25 L2475.6608,282.25 L2510.82473,364.75 Z M2474.66957,283.75 L2474.13496,283.75 L2508.0202,363.25 L2508.55482,363.25 L2474.66957,283.75 Z" id="Combined-Shape" fill="#D62626" fill-rule="nonzero"></path>
            <g id="Group-2" transform="translate(102.000000, 1212.000000)">
                <g id="Group-5">
                    <rect id="Rectangle-17" fill="#D62626" x="0" y="0" width="434" height="434"></rect>
                    <path d="M274.002654,205.860541 C274.678154,203.548305 275.260281,201.194791 275.747575,198.80773 L303.101682,265.861725 L328.363636,265.861725 L256.375456,97.0579299 L210.899708,202.837262 L269.42005,202.837262 C259.980555,237.686944 228.142907,263.328227 190.297538,263.328227 C145.018604,263.328227 108.311664,226.630272 108.311664,181.36422 C108.311664,136.097001 145.018604,99.4010881 190.297538,99.4010881 C206.415292,99.4010881 221.432696,104.069318 234.107587,112.102712 L237.029746,107.775052 C223.519743,99.179097 207.497551,94.1818182 190.297538,94.1818182 C142.134671,94.1818182 103.090909,133.214472 103.090909,181.36422 C103.090909,229.514114 142.134671,268.545455 190.297538,268.545455 C229.951146,268.545455 263.414956,242.084468 274.002654,205.860541 M236.704543,198.785852 L256.25728,151.042455 L275.737362,198.785852 L236.704543,198.785852" id="Fill-4" fill="#FFFFFF"></path>
                    <path d="M295.27622,335.791261 L295.27622,331.929592 C293.235322,334.643211 290.035658,336 285.677132,336 C283.774601,336 282.105587,335.634711 280.67004,334.904121 C279.234494,334.173531 278.127583,333.164637 277.349275,331.877407 C276.570966,330.590178 276.181818,329.146415 276.181818,327.546076 C276.181818,325.075987 277.089831,323.119079 278.905884,321.675295 C280.721936,320.231511 283.255724,319.492235 286.507323,319.457445 L295.224333,319.457445 L295.224333,318.152827 C295.224333,316.204587 294.627639,314.699943 293.434233,313.638849 C292.240827,312.577754 290.502631,312.047215 288.219593,312.047215 C285.452275,312.047215 282.633111,313.038714 279.762018,315.021744 L277.738427,311.681922 C279.710141,310.394692 281.534815,309.464074 283.212501,308.890039 C284.890188,308.316005 286.887816,308.028992 289.205445,308.028992 C292.630002,308.028992 295.27621,308.872636 297.14415,310.55995 C299.01209,312.247265 299.963342,314.604251 299.997933,317.630979 L300.04982,335.791261 L295.27622,335.791261 Z M323.08763,312.727008 L328.613592,312.751708 L328.613592,328.041831 C328.613592,330.68587 329.288116,332.660172 330.637183,333.964796 C331.986251,335.26942 333.75039,335.921723 335.929653,335.921723 C338.108916,335.921723 340.253556,334.591019 342.363636,333.23421 L341.066462,330.129219 C339.544437,330.998969 338.126208,331.433837 336.811732,331.433837 C335.704804,331.433837 334.874621,331.103337 334.321157,330.442328 C333.767694,329.781318 333.490966,328.68545 333.490966,327.15469 L333.490966,312.751708 L341.896654,312.751708 L341.896654,308.159453 L333.490966,308.159453 L333.490966,301.636364 L328.613592,301.636364 L328.613592,308.159453 L322.776309,308.133361 L322.776309,308.167339 C320.624876,308.243814 318.756962,308.771725 317.172517,309.751087 C315.512126,310.777392 314.23226,312.282036 313.332882,314.265065 L313.332882,308.316007 L308.507395,308.316007 L308.507395,335.921723 L313.332882,335.921723 L313.332882,321.362187 C313.575022,318.718148 314.560865,316.613385 316.290439,315.047836 C318.020013,313.482287 320.285721,312.751708 323.08763,312.856078 L323.08763,312.727008 Z M292.396493,330.337958 C290.822581,331.433843 288.91143,331.981777 286.662984,331.981777 C284.864227,331.981777 283.428702,331.564303 282.356367,330.729344 C281.284031,329.894384 280.747871,328.763726 280.747871,327.337337 C280.747871,325.910948 281.275383,324.867264 282.330423,324.206254 C283.385463,323.545244 285.002591,323.214744 287.181854,323.214744 L295.224333,323.214744 L295.224333,325.980534 C294.913009,327.789614 293.970406,329.242074 292.396493,330.337958 Z" id="Combined-Shape" fill="#FFFFFF"></path>
                    <path d="M116.765225,307.785617 L116.765225,331.967436 C116.765225,334.579841 116.209773,336.865662 115.098853,338.824966 C113.987932,340.78427 112.399687,342.2881 110.334069,343.336499 C108.268451,344.384899 105.881743,344.909091 103.173875,344.909091 C99.1467877,344.909091 95.4148451,343.534161 91.9779347,340.784261 L93.6443071,338.309362 C95.0329578,339.512444 96.4910191,340.423335 98.0185349,341.042062 C99.5460506,341.66079 101.212406,341.970149 103.017652,341.970149 C106.142116,341.970149 108.632971,341.067852 110.490291,339.263229 C112.347611,337.458607 113.276258,335.043887 113.276258,332.018996 L113.276258,327.636364 C112.304202,329.52692 110.915572,331.00497 109.110327,332.070556 C107.305081,333.136143 105.222136,333.668928 102.86143,333.668928 C100.431291,333.668928 98.270236,333.110363 96.3781995,331.993216 C94.4861629,330.876069 93.0107437,329.329273 91.9518976,327.352782 C90.8930515,325.37629 90.3636364,323.133436 90.3636364,320.624152 C90.3636364,318.114868 90.8930515,315.880607 91.9518976,313.921303 C93.0107437,311.961998 94.4948419,310.432389 96.4042365,309.332429 C98.3136312,308.232468 100.483365,307.682497 102.913504,307.682497 C105.27421,307.682497 107.339797,308.206689 109.110327,309.255088 C110.880856,310.303488 112.269486,311.790131 113.276258,313.715061 L113.276258,307.785617 L116.765225,307.785617 Z M108.537511,329.569878 C110.03031,328.693347 111.193288,327.48169 112.026478,325.934871 C112.859669,324.388052 113.276258,322.652203 113.276258,320.727273 C113.276258,318.767968 112.859669,317.014933 112.026478,315.468114 C111.193288,313.921295 110.03031,312.709638 108.537511,311.833107 C107.044712,310.956576 105.360998,310.518318 103.486319,310.518318 C101.611641,310.518318 99.9279274,310.956576 98.435128,311.833107 C96.9423285,312.709638 95.7706721,313.921295 94.9201236,315.468114 C94.069575,317.014933 93.6443071,318.767968 93.6443071,320.727273 C93.6443071,322.686577 94.069575,324.431019 94.9201236,325.960651 C95.7706721,327.490284 96.9336496,328.693347 98.4090909,329.569878 C99.8845322,330.446409 101.576925,330.884668 103.486319,330.884668 C105.360998,330.884668 107.044712,330.446409 108.537511,329.569878 Z M145.319506,309.409769 C147.402482,310.56129 149.034122,312.168239 150.214475,314.230665 C151.394828,316.29309 151.984996,318.630471 151.984996,321.242877 C151.984996,323.889656 151.394828,326.252816 150.214475,328.332429 C149.034122,330.412041 147.402482,332.027584 145.319506,333.179104 C143.23653,334.330625 140.875859,334.906377 138.237423,334.906377 C135.598987,334.906377 133.238316,334.330625 131.15534,333.179104 C129.072364,332.027584 127.440724,330.412041 126.260371,328.332429 C125.080018,326.252816 124.48985,323.889656 124.48985,321.242877 C124.48985,318.630471 125.080018,316.29309 126.260371,314.230665 C127.440724,312.168239 129.072364,310.56129 131.15534,309.409769 C133.238316,308.258248 135.598987,307.682497 138.237423,307.682497 C140.875859,307.682497 143.23653,308.258248 145.319506,309.409769 Z M132.925861,312.013569 C131.363629,312.907286 130.148577,314.16191 129.280671,315.777476 C128.412764,317.393043 127.978817,319.232011 127.978817,321.294437 C127.978817,323.391236 128.412764,325.247391 129.280671,326.862958 C130.148577,328.478525 131.363629,329.733148 132.925861,330.626866 C134.488093,331.520583 136.258596,331.967436 138.237423,331.967436 C140.21625,331.967436 141.986753,331.520583 143.548985,330.626866 C145.111217,329.733148 146.326268,328.478525 147.194175,326.862958 C148.062081,325.247391 148.496028,323.391236 148.496028,321.294437 C148.496028,319.232011 148.062081,317.393043 147.194175,315.777476 C146.326268,314.16191 145.111217,312.907286 143.548985,312.013569 C141.986753,311.119851 140.21625,310.672999 138.237423,310.672999 C136.258596,310.672999 134.488093,311.119851 132.925861,312.013569 Z M160.699029,296.545455 L164.187996,296.545455 L164.187996,334.803256 L160.699029,334.803256 L160.699029,296.545455 Z M200.553398,296.545455 L200.553398,334.803256 L197.064431,334.803256 L197.064431,328.616011 C196.022943,330.644063 194.564881,332.216638 192.690203,333.333786 C190.815525,334.450933 188.628433,335.009498 186.128861,335.009498 C183.559858,335.009498 181.268619,334.425153 179.255075,333.256445 C177.241532,332.087737 175.679323,330.455008 174.568402,328.358209 C173.457482,326.26141 172.90203,323.889656 172.90203,321.242877 C172.90203,318.596097 173.466161,316.24153 174.59444,314.179104 C175.722718,312.116679 177.284927,310.501137 179.281112,309.332429 C181.277297,308.163721 183.5425,307.579376 186.076787,307.579376 C188.576358,307.579376 190.772129,308.146534 192.664166,309.280868 C194.556202,310.415202 196.022943,311.996372 197.064431,314.024423 L197.064431,296.545455 L200.553398,296.545455 Z M192.065313,330.652646 C193.627545,329.741741 194.851275,328.478525 195.73654,326.862958 C196.621805,325.247391 197.064431,323.408423 197.064431,321.345997 C197.064431,319.283572 196.621805,317.43601 195.73654,315.803256 C194.851275,314.170503 193.627545,312.8901 192.065313,311.962008 C190.503081,311.033917 188.732578,310.569878 186.753751,310.569878 C184.774924,310.569878 183.004421,311.033917 181.442189,311.962008 C179.879957,312.8901 178.647548,314.170503 177.744925,315.803256 C176.842302,317.43601 176.390997,319.283572 176.390997,321.345997 C176.390997,323.408423 176.833623,325.247391 177.718888,326.862958 C178.604153,328.478525 179.836562,329.741741 181.416152,330.652646 C182.995742,331.56355 184.774924,332.018996 186.753751,332.018996 C188.732578,332.018996 190.503081,331.56355 192.065313,330.652646 Z M232.38835,311.678426 C234.610191,314.342392 235.634305,317.925803 235.460724,322.428765 L212.704325,322.428765 C212.947339,325.316161 214.023527,327.644948 215.932921,329.415197 C217.842316,331.185445 220.202987,332.070556 223.015004,332.070556 C224.750818,332.070556 226.3651,331.761197 227.857899,331.142469 C229.350699,330.523742 230.635181,329.647224 231.711386,328.51289 L233.690203,330.472185 C232.370985,331.881509 230.78274,332.972859 228.925419,333.746269 C227.068099,334.519678 225.028549,334.906377 222.806708,334.906377 C220.168272,334.906377 217.824959,334.330625 215.776699,333.179104 C213.728439,332.027584 212.122836,330.420634 210.959841,328.358209 C209.796846,326.295783 209.215357,323.941216 209.215357,321.294437 C209.215357,318.682031 209.796846,316.336057 210.959841,314.256445 C212.122836,312.176833 213.728439,310.56129 215.776699,309.409769 C217.824959,308.258248 220.133556,307.682497 222.70256,307.682497 C226.937944,307.682497 230.166508,309.01446 232.38835,311.678426 Z M232.336275,319.747626 C232.162694,316.928977 231.21669,314.686123 229.498235,313.018996 C227.77978,311.351869 225.531935,310.518318 222.754634,310.518318 C220.012049,310.518318 217.720809,311.360462 215.880847,313.044776 C214.040885,314.72909 212.982055,316.963351 212.704325,319.747626 L232.336275,319.747626 Z M265.759488,310.492537 C267.616808,312.365907 268.545455,314.935307 268.545455,318.200814 L268.545455,334.803256 L265.004413,334.803256 L265.004413,319.02578 C265.004413,316.482122 264.29274,314.488474 262.869373,313.044776 C261.446006,311.601078 259.467209,310.87924 256.932921,310.87924 C254.120904,310.913614 251.873059,311.772945 250.18932,313.457259 C248.505581,315.141573 247.54222,317.410207 247.299206,320.263229 L247.299206,334.803256 L243.810238,334.803256 L243.810238,307.785617 L247.299206,307.785617 L247.299206,314.075984 C248.236545,311.979184 249.616496,310.398015 251.4391,309.332429 C253.261704,308.266842 255.474833,307.71687 258.078553,307.682497 C261.341882,307.682497 263.902168,308.619167 265.759488,310.492537 Z" id="golden" fill="#FFFFFF"></path>
                </g>
                <g id="Group-5" transform="translate(489.000000, 0.000000)">
                    <rect id="Rectangle-17" fill="#D62626" x="0" y="0" width="434" height="434"></rect>
                    <path d="M274.002654,242.769632 C274.678154,240.457395 275.260281,238.103882 275.747575,235.716821 L303.101682,302.770816 L328.363636,302.770816 L256.375456,133.967021 L210.899708,239.746353 L269.42005,239.746353 C259.980555,274.596035 228.142907,300.237318 190.297538,300.237318 C145.018604,300.237318 108.311664,263.539363 108.311664,218.273311 C108.311664,173.006092 145.018604,136.310179 190.297538,136.310179 C206.415292,136.310179 221.432696,140.978409 234.107587,149.011803 L237.029746,144.684143 C223.519743,136.088188 207.497551,131.090909 190.297538,131.090909 C142.134671,131.090909 103.090909,170.123562 103.090909,218.273311 C103.090909,266.423205 142.134671,305.454545 190.297538,305.454545 C229.951146,305.454545 263.414956,278.993559 274.002654,242.769632 M236.704543,235.694943 L256.25728,187.951546 L275.737362,235.694943 L236.704543,235.694943" id="Fill-4" fill="#FFFFFF"></path>
                </g>
            </g>
            <path d="M504.360544,825.503401 L504.360544,864.352172 C504.360544,868.5943 503.495386,872.306107 501.765044,875.487703 C500.034703,878.669299 497.57877,881.125231 494.397174,882.855573 C491.215578,884.585915 487.503771,885.451073 483.261643,885.451073 C479.856777,885.451073 476.717091,884.851044 473.842491,883.650968 C470.967891,882.450892 468.218921,880.678714 465.5955,878.33438 L467.437467,875.73888 C469.781801,877.859944 472.223779,879.464673 474.763475,880.553114 C477.30317,881.641554 480.107956,882.185767 483.177917,882.185767 C488.592213,882.185767 492.918002,880.581038 496.155416,877.371533 C499.39283,874.162028 501.011512,869.850193 501.011512,864.435897 L501.011512,856.147043 C499.50444,859.663545 497.18805,862.412514 494.062271,864.394035 C490.936492,866.375555 487.308411,867.3663 483.177917,867.3663 C479.326511,867.3663 475.86588,866.473234 472.795918,864.687075 C469.725957,862.900916 467.325842,860.417075 465.5955,857.235479 C463.865158,854.053883 463,850.453709 463,846.434851 C463,842.415992 463.865158,838.815819 465.5955,835.634223 C467.325842,832.452627 469.712003,829.954832 472.754055,828.140764 C475.796108,826.326696 479.242786,825.419676 483.094192,825.419676 C487.224685,825.419676 490.852767,826.424375 493.978545,828.433804 C497.104324,830.443233 499.448623,833.206157 501.011512,836.722658 L501.011512,825.503401 L504.360544,825.503401 Z M492.513344,862.049712 C495.164674,860.514732 497.243844,858.393699 498.750916,855.686552 C500.257988,852.979404 501.011512,849.923443 501.011512,846.518577 C501.011512,843.113711 500.257988,840.043795 498.750916,837.308739 C497.243844,834.573682 495.164674,832.438696 492.513344,830.903715 C489.862014,829.368735 486.889777,828.601256 483.596546,828.601256 C480.303315,828.601256 477.331079,829.368735 474.679749,830.903715 C472.028419,832.438696 469.963203,834.573682 468.48404,837.308739 C467.004877,840.043795 466.265306,843.113711 466.265306,846.518577 C466.265306,849.923443 467.004877,852.979404 468.48404,855.686552 C469.963203,858.393699 472.014464,860.514732 474.637886,862.049712 C477.261307,863.584693 480.247498,864.352172 483.596546,864.352172 C486.889777,864.352172 489.862014,863.584693 492.513344,862.049712 Z M549.78179,828.22449 C553.047112,830.094375 555.600723,832.689849 557.4427,836.010989 C559.284677,839.332129 560.205652,843.085798 560.205652,847.272109 C560.205652,851.514237 559.284677,855.295815 557.4427,858.616954 C555.600723,861.938094 553.047112,864.533568 549.78179,866.403454 C546.516467,868.273339 542.818615,869.208268 538.688121,869.208268 C534.613446,869.208268 530.943501,868.273339 527.678179,866.403454 C524.412857,864.533568 521.845291,861.938094 519.975406,858.616954 C518.10552,855.295815 517.170591,851.514237 517.170591,847.272109 C517.170591,843.085798 518.10552,839.332129 519.975406,836.010989 C521.845291,832.689849 524.412857,830.094375 527.678179,828.22449 C530.943501,826.354604 534.613446,825.419676 538.688121,825.419676 C542.818615,825.419676 546.516467,826.354604 549.78179,828.22449 Z M529.394558,831.11303 C526.659501,832.675919 524.510561,834.866722 522.947671,837.685505 C521.384782,840.504288 520.603349,843.69979 520.603349,847.272109 C520.603349,850.900245 521.384782,854.13761 522.947671,856.984301 C524.510561,859.830993 526.659501,862.03575 529.394558,863.598639 C532.129614,865.161529 535.227438,865.942962 538.688121,865.942962 C542.148805,865.942962 545.260583,865.161529 548.023548,863.598639 C550.786513,862.03575 552.935454,859.830993 554.470434,856.984301 C556.005415,854.13761 556.772894,850.900245 556.772894,847.272109 C556.772894,843.69979 556.005415,840.504288 554.470434,837.685505 C552.935454,834.866722 550.786513,832.675919 548.023548,831.11303 C545.260583,829.55014 542.148805,828.768707 538.688121,828.768707 C535.227438,828.768707 532.129614,829.55014 529.394558,831.11303 Z M574.606489,807 L578.122972,807 L578.122972,869.124542 L574.606489,869.124542 L574.606489,807 Z M635.893773,807 L635.893773,869.124542 L632.37729,869.124542 L632.37729,857.737834 C630.702765,861.36597 628.246833,864.212618 625.009419,866.277865 C621.772006,868.343112 618.032291,869.37572 613.790162,869.37572 C609.715486,869.37572 606.059497,868.426837 602.822083,866.529042 C599.584669,864.631248 597.058966,862.02182 595.244898,858.70068 C593.43083,855.37954 592.52381,851.597963 592.52381,847.355835 C592.52381,843.113706 593.43083,839.318175 595.244898,835.969126 C597.058966,832.620077 599.570715,829.996695 602.78022,828.098901 C605.989725,826.201107 609.631761,825.252224 613.706437,825.252224 C618.004382,825.252224 621.772006,826.284832 625.009419,828.350078 C628.246833,830.415325 630.702765,833.261974 632.37729,836.89011 L632.37729,807 L635.893773,807 Z M623.544218,863.682365 C626.307183,862.063658 628.470078,859.830993 630.032967,856.984301 C631.595857,854.13761 632.37729,850.928153 632.37729,847.355835 C632.37729,843.783516 631.595857,840.574059 630.032967,837.727368 C628.470078,834.880677 626.307183,832.648011 623.544218,831.029304 C620.781253,829.410597 617.669475,828.601256 614.208791,828.601256 C610.748108,828.601256 607.63633,829.410597 604.873365,831.029304 C602.1104,832.648011 599.933551,834.880677 598.342753,837.727368 C596.751955,840.574059 595.956567,843.783516 595.956567,847.355835 C595.956567,850.928153 596.738,854.13761 598.30089,856.984301 C599.863779,859.830993 602.026674,862.063658 604.789639,863.682365 C607.552604,865.301072 610.69229,866.110413 614.208791,866.110413 C617.669475,866.110413 620.781253,865.301072 623.544218,863.682365 Z M682.48718,828.308216 C685.58505,830.233919 687.929349,832.927071 689.520147,836.387755 C691.110945,839.848439 691.878424,843.81142 691.822606,848.276818 L653.727368,848.276818 C653.894821,851.79332 654.759978,854.891143 656.322868,857.570382 C657.885757,860.249621 660.00679,862.328791 662.686028,863.807954 C665.365267,865.287117 668.379366,866.026688 671.728415,866.026688 C674.686741,866.026688 677.435711,865.510384 679.975406,864.47776 C682.515101,863.445137 684.677996,861.952042 686.464155,859.99843 L688.473574,862.259027 C686.408328,864.491726 683.924487,866.208087 681.021978,867.408163 C678.119469,868.608239 674.965829,869.208268 671.560963,869.208268 C667.486287,869.208268 663.830297,868.273339 660.592884,866.403454 C657.35547,864.533568 654.829767,861.938094 653.015699,858.616954 C651.201631,855.295815 650.29461,851.542145 650.29461,847.355835 C650.29461,843.169524 651.215585,839.401901 653.057562,836.052852 C654.899538,832.703803 657.425241,830.094375 660.634746,828.22449 C663.844251,826.354604 667.486287,825.419676 671.560963,825.419676 C675.747274,825.419676 679.38931,826.382513 682.48718,828.308216 Z M688.641026,845.178964 C688.306121,840.155391 686.603713,836.136593 683.533752,833.122449 C680.463791,830.108305 676.472901,828.601256 671.560963,828.601256 C666.649025,828.601256 662.57441,830.122259 659.336997,833.164312 C656.099583,836.206364 654.257634,840.211208 653.811094,845.178964 L688.641026,845.178964 Z M739.336997,829.982732 C742.323232,833.024784 743.816327,837.197078 743.816327,842.499738 L743.816327,869.124542 L740.299843,869.124542 L740.299843,843.169545 C740.299843,838.704147 739.043969,835.215606 736.532182,832.70382 C734.020396,830.192033 730.531856,828.936159 726.066458,828.936159 C721.098702,829.047794 717.121766,830.568797 714.135531,833.499215 C711.149296,836.429633 709.460843,840.434477 709.070121,845.513867 L709.070121,869.124542 L705.553637,869.124542 L705.553637,825.503401 L709.070121,825.503401 L709.070121,836.638932 C710.521375,833.066614 712.767995,830.331599 715.810047,828.433804 C718.8521,826.53601 722.549952,825.531311 726.903716,825.419676 C732.206376,825.419676 736.350762,826.940679 739.336997,829.982732 Z M787.018839,869.124542 L787.018839,862.928833 C783.725607,867.282596 778.562568,869.459445 771.529566,869.459445 C768.459605,869.459445 765.766452,868.873371 763.450026,867.701204 C761.133601,866.529037 759.347469,864.910354 758.091575,862.845107 C756.835682,860.779861 756.207745,858.46347 756.207745,855.895866 C756.207745,851.932825 757.672932,848.793139 760.603349,846.476714 C763.533767,844.160288 767.622336,842.974185 772.869179,842.918367 L786.935113,842.918367 L786.935113,840.825222 C786.935113,837.699444 785.972276,835.285374 784.046573,833.582941 C782.12087,831.880508 779.316084,831.029304 775.63213,831.029304 C771.166732,831.029304 766.617676,832.620078 761.984825,835.801675 L758.719519,830.443223 C761.901115,828.377977 764.845443,826.884882 767.552591,825.963893 C770.259738,825.042905 773.483149,824.582418 777.22292,824.582418 C782.748851,824.582418 787.018824,825.935971 790.032967,828.643119 C793.047111,831.350266 794.582069,835.131844 794.637886,839.987964 L794.721612,869.124542 L787.018839,869.124542 Z M831.895866,832.119972 L840.812664,832.159602 L840.812664,856.691261 C840.812664,860.933389 841.901088,864.100984 844.07797,866.194139 C846.254851,868.287295 849.1015,869.333857 852.618001,869.333857 C856.134502,869.333857 859.595134,867.19886 863,865.021978 L860.906855,860.040293 C858.450886,861.43573 856.162404,862.133438 854.04134,862.133438 C852.25518,862.133438 850.915581,861.60318 850.022501,860.542648 C849.129422,859.482116 848.682889,857.723892 848.682889,855.267923 L848.682889,832.159602 L862.246468,832.159602 L865,825 L848.682889,824.791732 L848.682889,814.326007 L840.812664,814.326007 L840.812664,824.791732 L831.393511,824.749869 L831.393511,824.804383 C827.921918,824.927081 824.907817,825.774069 822.351125,827.345369 C819.671886,828.991985 817.60667,831.406054 816.155416,834.58765 L816.155416,825.042909 L808.368917,825.042909 L808.368917,869.333857 L816.155416,869.333857 L816.155416,845.974359 C816.546138,841.732231 818.136913,838.355324 820.927786,835.843537 C823.71866,833.331751 827.37465,832.159601 831.895866,832.327054 L831.895866,832.119972 Z M782.372057,860.375196 C779.832362,862.133447 776.748492,863.012559 773.120356,863.012559 C770.217847,863.012559 767.901457,862.342759 766.171115,861.00314 C764.440773,859.66352 763.575615,857.849479 763.575615,855.560963 C763.575615,853.272446 764.426819,851.597947 766.129252,850.537415 C767.831685,849.476883 770.441113,848.946625 773.957614,848.946625 L786.935113,848.946625 L786.935113,853.384092 C786.432756,856.286601 784.911752,858.616946 782.372057,860.375196 Z" id="Combined-Shape" fill="#555555"></path>
            <path d="M497.360544,303.503401 L497.360544,342.352172 C497.360544,346.5943 496.495386,350.306107 494.765044,353.487703 C493.034703,356.669299 490.57877,359.125231 487.397174,360.855573 C484.215578,362.585915 480.503771,363.451073 476.261643,363.451073 C472.856777,363.451073 469.717091,362.851044 466.842491,361.650968 C463.967891,360.450892 461.218921,358.678714 458.5955,356.33438 L460.437467,353.73888 C462.781801,355.859944 465.223779,357.464673 467.763475,358.553114 C470.30317,359.641554 473.107956,360.185767 476.177917,360.185767 C481.592213,360.185767 485.918002,358.581038 489.155416,355.371533 C492.39283,352.162028 494.011512,347.850193 494.011512,342.435897 L494.011512,334.147043 C492.50444,337.663545 490.18805,340.412514 487.062271,342.394035 C483.936492,344.375555 480.308411,345.3663 476.177917,345.3663 C472.326511,345.3663 468.86588,344.473234 465.795918,342.687075 C462.725957,340.900916 460.325842,338.417075 458.5955,335.235479 C456.865158,332.053883 456,328.453709 456,324.434851 C456,320.415992 456.865158,316.815819 458.5955,313.634223 C460.325842,310.452627 462.712003,307.954832 465.754055,306.140764 C468.796108,304.326696 472.242786,303.419676 476.094192,303.419676 C480.224685,303.419676 483.852767,304.424375 486.978545,306.433804 C490.104324,308.443233 492.448623,311.206157 494.011512,314.722658 L494.011512,303.503401 L497.360544,303.503401 Z M485.513344,340.049712 C488.164674,338.514732 490.243844,336.393699 491.750916,333.686552 C493.257988,330.979404 494.011512,327.923443 494.011512,324.518577 C494.011512,321.113711 493.257988,318.043795 491.750916,315.308739 C490.243844,312.573682 488.164674,310.438696 485.513344,308.903715 C482.862014,307.368735 479.889777,306.601256 476.596546,306.601256 C473.303315,306.601256 470.331079,307.368735 467.679749,308.903715 C465.028419,310.438696 462.963203,312.573682 461.48404,315.308739 C460.004877,318.043795 459.265306,321.113711 459.265306,324.518577 C459.265306,327.923443 460.004877,330.979404 461.48404,333.686552 C462.963203,336.393699 465.014464,338.514732 467.637886,340.049712 C470.261307,341.584693 473.247498,342.352172 476.596546,342.352172 C479.889777,342.352172 482.862014,341.584693 485.513344,340.049712 Z M542.78179,306.22449 C546.047112,308.094375 548.600723,310.689849 550.4427,314.010989 C552.284677,317.332129 553.205652,321.085798 553.205652,325.272109 C553.205652,329.514237 552.284677,333.295815 550.4427,336.616954 C548.600723,339.938094 546.047112,342.533568 542.78179,344.403454 C539.516467,346.273339 535.818615,347.208268 531.688121,347.208268 C527.613446,347.208268 523.943501,346.273339 520.678179,344.403454 C517.412857,342.533568 514.845291,339.938094 512.975406,336.616954 C511.10552,333.295815 510.170591,329.514237 510.170591,325.272109 C510.170591,321.085798 511.10552,317.332129 512.975406,314.010989 C514.845291,310.689849 517.412857,308.094375 520.678179,306.22449 C523.943501,304.354604 527.613446,303.419676 531.688121,303.419676 C535.818615,303.419676 539.516467,304.354604 542.78179,306.22449 Z M522.394558,309.11303 C519.659501,310.675919 517.510561,312.866722 515.947671,315.685505 C514.384782,318.504288 513.603349,321.69979 513.603349,325.272109 C513.603349,328.900245 514.384782,332.13761 515.947671,334.984301 C517.510561,337.830993 519.659501,340.03575 522.394558,341.598639 C525.129614,343.161529 528.227438,343.942962 531.688121,343.942962 C535.148805,343.942962 538.260583,343.161529 541.023548,341.598639 C543.786513,340.03575 545.935454,337.830993 547.470434,334.984301 C549.005415,332.13761 549.772894,328.900245 549.772894,325.272109 C549.772894,321.69979 549.005415,318.504288 547.470434,315.685505 C545.935454,312.866722 543.786513,310.675919 541.023548,309.11303 C538.260583,307.55014 535.148805,306.768707 531.688121,306.768707 C528.227438,306.768707 525.129614,307.55014 522.394558,309.11303 Z M567.606489,285 L571.122972,285 L571.122972,347.124542 L567.606489,347.124542 L567.606489,285 Z M628.893773,285 L628.893773,347.124542 L625.37729,347.124542 L625.37729,335.737834 C623.702765,339.36597 621.246833,342.212618 618.009419,344.277865 C614.772006,346.343112 611.032291,347.37572 606.790162,347.37572 C602.715486,347.37572 599.059497,346.426837 595.822083,344.529042 C592.584669,342.631248 590.058966,340.02182 588.244898,336.70068 C586.43083,333.37954 585.52381,329.597963 585.52381,325.355835 C585.52381,321.113706 586.43083,317.318175 588.244898,313.969126 C590.058966,310.620077 592.570715,307.996695 595.78022,306.098901 C598.989725,304.201107 602.631761,303.252224 606.706437,303.252224 C611.004382,303.252224 614.772006,304.284832 618.009419,306.350078 C621.246833,308.415325 623.702765,311.261974 625.37729,314.89011 L625.37729,285 L628.893773,285 Z M616.544218,341.682365 C619.307183,340.063658 621.470078,337.830993 623.032967,334.984301 C624.595857,332.13761 625.37729,328.928153 625.37729,325.355835 C625.37729,321.783516 624.595857,318.574059 623.032967,315.727368 C621.470078,312.880677 619.307183,310.648011 616.544218,309.029304 C613.781253,307.410597 610.669475,306.601256 607.208791,306.601256 C603.748108,306.601256 600.63633,307.410597 597.873365,309.029304 C595.1104,310.648011 592.933551,312.880677 591.342753,315.727368 C589.751955,318.574059 588.956567,321.783516 588.956567,325.355835 C588.956567,328.928153 589.738,332.13761 591.30089,334.984301 C592.863779,337.830993 595.026674,340.063658 597.789639,341.682365 C600.552604,343.301072 603.69229,344.110413 607.208791,344.110413 C610.669475,344.110413 613.781253,343.301072 616.544218,341.682365 Z M675.48718,306.308216 C678.58505,308.233919 680.929349,310.927071 682.520147,314.387755 C684.110945,317.848439 684.878424,321.81142 684.822606,326.276818 L646.727368,326.276818 C646.894821,329.79332 647.759978,332.891143 649.322868,335.570382 C650.885757,338.249621 653.00679,340.328791 655.686028,341.807954 C658.365267,343.287117 661.379366,344.026688 664.728415,344.026688 C667.686741,344.026688 670.435711,343.510384 672.975406,342.47776 C675.515101,341.445137 677.677996,339.952042 679.464155,337.99843 L681.473574,340.259027 C679.408328,342.491726 676.924487,344.208087 674.021978,345.408163 C671.119469,346.608239 667.965829,347.208268 664.560963,347.208268 C660.486287,347.208268 656.830297,346.273339 653.592884,344.403454 C650.35547,342.533568 647.829767,339.938094 646.015699,336.616954 C644.201631,333.295815 643.29461,329.542145 643.29461,325.355835 C643.29461,321.169524 644.215585,317.401901 646.057562,314.052852 C647.899538,310.703803 650.425241,308.094375 653.634746,306.22449 C656.844251,304.354604 660.486287,303.419676 664.560963,303.419676 C668.747274,303.419676 672.38931,304.382513 675.48718,306.308216 Z M681.641026,323.178964 C681.306121,318.155391 679.603713,314.136593 676.533752,311.122449 C673.463791,308.108305 669.472901,306.601256 664.560963,306.601256 C659.649025,306.601256 655.57441,308.122259 652.336997,311.164312 C649.099583,314.206364 647.257634,318.211208 646.811094,323.178964 L681.641026,323.178964 Z M732.336997,307.982732 C735.323232,311.024784 736.816327,315.197078 736.816327,320.499738 L736.816327,347.124542 L733.299843,347.124542 L733.299843,321.169545 C733.299843,316.704147 732.043969,313.215606 729.532182,310.70382 C727.020396,308.192033 723.531856,306.936159 719.066458,306.936159 C714.098702,307.047794 710.121766,308.568797 707.135531,311.499215 C704.149296,314.429633 702.460843,318.434477 702.070121,323.513867 L702.070121,347.124542 L698.553637,347.124542 L698.553637,303.503401 L702.070121,303.503401 L702.070121,314.638932 C703.521375,311.066614 705.767995,308.331599 708.810047,306.433804 C711.8521,304.53601 715.549952,303.531311 719.903716,303.419676 C725.206376,303.419676 729.350762,304.940679 732.336997,307.982732 Z M780.018839,347.124542 L780.018839,340.928833 C776.725607,345.282596 771.562568,347.459445 764.529566,347.459445 C761.459605,347.459445 758.766452,346.873371 756.450026,345.701204 C754.133601,344.529037 752.347469,342.910354 751.091575,340.845107 C749.835682,338.779861 749.207745,336.46347 749.207745,333.895866 C749.207745,329.932825 750.672932,326.793139 753.603349,324.476714 C756.533767,322.160288 760.622336,320.974185 765.869179,320.918367 L779.935113,320.918367 L779.935113,318.825222 C779.935113,315.699444 778.972276,313.285374 777.046573,311.582941 C775.12087,309.880508 772.316084,309.029304 768.63213,309.029304 C764.166732,309.029304 759.617676,310.620078 754.984825,313.801675 L751.719519,308.443223 C754.901115,306.377977 757.845443,304.884882 760.552591,303.963893 C763.259738,303.042905 766.483149,302.582418 770.22292,302.582418 C775.748851,302.582418 780.018824,303.935971 783.032967,306.643119 C786.047111,309.350266 787.582069,313.131844 787.637886,317.987964 L787.721612,347.124542 L780.018839,347.124542 Z M824.895866,310.119972 L833.812664,310.159602 L833.812664,334.691261 C833.812664,338.933389 834.901088,342.100984 837.07797,344.194139 C839.254851,346.287295 842.1015,347.333857 845.618001,347.333857 C849.134502,347.333857 852.595134,345.19886 856,343.021978 L853.906855,338.040293 C851.450886,339.43573 849.162404,340.133438 847.04134,340.133438 C845.25518,340.133438 843.915581,339.60318 843.022501,338.542648 C842.129422,337.482116 841.682889,335.723892 841.682889,333.267923 L841.682889,310.159602 L855.246468,310.159602 L858,303 L841.682889,302.791732 L841.682889,292.326007 L833.812664,292.326007 L833.812664,302.791732 L824.393511,302.749869 L824.393511,302.804383 C820.921918,302.927081 817.907817,303.774069 815.351125,305.345369 C812.671886,306.991985 810.60667,309.406054 809.155416,312.58765 L809.155416,303.042909 L801.368917,303.042909 L801.368917,347.333857 L809.155416,347.333857 L809.155416,323.974359 C809.546138,319.732231 811.136913,316.355324 813.927786,313.843537 C816.71866,311.331751 820.37465,310.159601 824.895866,310.327054 L824.895866,310.119972 Z M775.372057,338.375196 C772.832362,340.133447 769.748492,341.012559 766.120356,341.012559 C763.217847,341.012559 760.901457,340.342759 759.171115,339.00314 C757.440773,337.66352 756.575615,335.849479 756.575615,333.560963 C756.575615,331.272446 757.426819,329.597947 759.129252,328.537415 C760.831685,327.476883 763.441113,326.946625 766.957614,326.946625 L779.935113,326.946625 L779.935113,331.384092 C779.432756,334.286601 777.911752,336.616946 775.372057,338.375196 Z" id="Combined-Shape" fill="#FFFFFF"></path>
        </g>
    </g>
</svg>