<?xml version="1.0" encoding="UTF-8"?>
<svg width="755px" height="228px" viewBox="0 0 755 228" version="1.1" xmlns="http://www.w3.org/2000/svg" xmlns:xlink="http://www.w3.org/1999/xlink">
    <!-- Generator: Sketch 44.1 (41455) - http://www.bohemiancoding.com/sketch -->
    <title>Group 5</title>
    <desc>Created with Sketch.</desc>
    <defs></defs>
    <g id="Page-1" stroke="none" stroke-width="1" fill="none" fill-rule="evenodd">
        <g id="Desktop-Landscape" transform="translate(-322.000000, -2318.000000)">
            <g id="Group-5" transform="translate(322.000000, 2318.000000)">
                <path d="M311.56,117.88 C311.56,120.667347 312.068495,123.285154 313.0855,125.7335 C314.102505,128.181846 315.496158,130.328824 317.2665,132.1745 C319.036842,134.020176 321.108488,135.489161 323.4815,136.5815 C325.854512,137.673839 328.434653,138.22 331.222,138.22 C333.934014,138.22 336.514154,137.730338 338.9625,136.751 C341.410846,135.771662 343.576657,134.396842 345.46,132.6265 C347.343343,130.856158 348.793495,128.728012 349.8105,126.242 C350.827505,123.755988 351.298334,120.968682 351.223,117.88 C351.223,115.092653 350.771005,112.474846 349.867,110.0265 C348.962995,107.578154 347.644675,105.431176 345.912,103.5855 C344.179325,101.739824 342.070012,100.270839 339.584,99.1785 C337.097988,98.0861612 334.310682,97.54 331.222,97.54 C328.434653,97.54 325.854512,98.0861612 323.4815,99.1785 C321.108488,100.270839 319.036842,101.739824 317.2665,103.5855 C315.496158,105.431176 314.102505,107.578154 313.0855,110.0265 C312.068495,112.474846 311.56,115.092653 311.56,117.88 Z M310.204,155.622 C312.388678,158.560015 315.232482,160.914158 318.7355,162.6845 C322.238518,164.454842 326.136979,165.34 330.431,165.34 C334.197686,165.34 337.39932,164.793839 340.036,163.7015 C342.67268,162.609161 344.800825,161.121343 346.4205,159.238 C348.040175,157.354657 349.20783,155.151179 349.9235,152.6275 C350.63917,150.103821 350.997,147.410681 350.997,144.548 L350.997,135.056 L350.771,135.056 C348.360321,138.672018 345.422351,141.233326 341.957,142.74 C338.491649,144.246674 334.838019,145 330.996,145 C327.153981,145 323.55685,144.322007 320.2045,142.966 C316.85215,141.609993 313.933012,139.745512 311.447,137.3725 C308.960988,134.999488 307.00234,132.155683 305.571,128.841 C304.13966,125.526317 303.424,121.948019 303.424,118.106 C303.424,114.263981 304.101993,110.685683 305.458,107.371 C306.814007,104.056317 308.678488,101.156012 311.0515,98.67 C313.424512,96.1839876 316.249484,94.2441736 319.5265,92.8505 C322.803516,91.4568264 326.400647,90.76 330.318,90.76 C331.900008,90.76 333.576158,90.9106652 335.3465,91.212 C337.116842,91.5133348 338.887158,92.0406629 340.6575,92.794 C342.427842,93.5473371 344.179325,94.5831601 345.912,95.9015 C347.644675,97.2198399 349.264326,98.8959898 350.771,100.93 L350.997,100.93 L350.997,92.116 L358.455,92.116 L358.455,144.548 C358.455,147.410681 358.09717,150.46165 357.3815,153.701 C356.66583,156.94035 355.272177,159.915986 353.2005,162.628 C351.128823,165.340014 348.247352,167.599991 344.556,169.408 C340.864648,171.216009 336.043363,172.12 330.092,172.12 C324.81864,172.12 320.110354,171.253675 315.967,169.521 C311.823646,167.788325 308.057017,165.114018 304.667,161.498 L310.204,155.622 Z M415.142,118.558 C415.142,115.619985 414.671171,112.870346 413.7295,110.309 C412.787829,107.747654 411.450675,105.525343 409.718,103.642 C407.985325,101.758657 405.894846,100.270839 403.4465,99.1785 C400.998155,98.0861612 398.229682,97.54 395.141,97.54 C392.052318,97.54 389.283846,98.0861612 386.8355,99.1785 C384.387155,100.270839 382.315509,101.758657 380.6205,103.642 C378.925492,105.525343 377.607171,107.747654 376.6655,110.309 C375.723829,112.870346 375.253,115.619985 375.253,118.558 C375.253,121.496015 375.723829,124.245654 376.6655,126.807 C377.607171,129.368346 378.925492,131.590657 380.6205,133.474 C382.315509,135.357343 384.387155,136.845161 386.8355,137.9375 C389.283846,139.029839 392.052318,139.576 395.141,139.576 C398.229682,139.576 400.998155,139.029839 403.4465,137.9375 C405.894846,136.845161 407.985325,135.357343 409.718,133.474 C411.450675,131.590657 412.787829,129.368346 413.7295,126.807 C414.671171,124.245654 415.142,121.496015 415.142,118.558 Z M423.278,118.558 C423.278,122.550687 422.581174,126.241983 421.1875,129.632 C419.793826,133.022017 417.854013,135.959988 415.368,138.446 C412.881988,140.932012 409.925184,142.871826 406.4975,144.2655 C403.069816,145.659174 399.284354,146.356 395.141,146.356 C391.07298,146.356 387.325184,145.659174 383.8975,144.2655 C380.469816,142.871826 377.513013,140.932012 375.027,138.446 C372.540988,135.959988 370.601174,133.022017 369.2075,129.632 C367.813826,126.241983 367.117,122.550687 367.117,118.558 C367.117,114.565313 367.813826,110.874017 369.2075,107.484 C370.601174,104.093983 372.540988,101.156012 375.027,98.67 C377.513013,96.1839876 380.469816,94.2441736 383.8975,92.8505 C387.325184,91.4568264 391.07298,90.76 395.141,90.76 C399.284354,90.76 403.069816,91.4568264 406.4975,92.8505 C409.925184,94.2441736 412.881988,96.1839876 415.368,98.67 C417.854013,101.156012 419.793826,104.093983 421.1875,107.484 C422.581174,110.874017 423.278,114.565313 423.278,118.558 Z M440.641,145 L433.183,145 L433.183,59.572 L440.641,59.572 L440.641,145 Z M457.778,118.558 C457.778,121.496015 458.248829,124.245654 459.1905,126.807 C460.132172,129.368346 461.469325,131.590657 463.202,133.474 C464.934676,135.357343 467.025155,136.845161 469.4735,137.9375 C471.921846,139.029839 474.690318,139.576 477.779,139.576 C480.792349,139.576 483.598487,139.029839 486.1975,137.9375 C488.796513,136.845161 491.037658,135.357343 492.921,133.474 C494.804343,131.590657 496.273328,129.368346 497.328,126.807 C498.382672,124.245654 498.91,121.496015 498.91,118.558 C498.91,115.619985 498.382672,112.870346 497.328,110.309 C496.273328,107.747654 494.804343,105.525343 492.921,103.642 C491.037658,101.758657 488.796513,100.270839 486.1975,99.1785 C483.598487,98.0861612 480.792349,97.54 477.779,97.54 C474.690318,97.54 471.921846,98.0861612 469.4735,99.1785 C467.025155,100.270839 464.934676,101.758657 463.202,103.642 C461.469325,105.525343 460.132172,107.747654 459.1905,110.309 C458.248829,112.870346 457.778,115.619985 457.778,118.558 Z M506.029,145 L498.571,145 L498.571,136.186 L498.345,136.186 C497.139661,137.994009 495.708342,139.538327 494.051,140.819 C492.393659,142.099673 490.661009,143.154329 488.853,143.983 C487.044991,144.811671 485.18051,145.414331 483.2595,145.791 C481.338491,146.167669 479.511676,146.356 477.779,146.356 C473.635646,146.356 469.850184,145.659174 466.4225,144.2655 C462.994816,142.871826 460.038013,140.932012 457.552,138.446 C455.065988,135.959988 453.126174,133.022017 451.7325,129.632 C450.338827,126.241983 449.642,122.550687 449.642,118.558 C449.642,114.565313 450.338827,110.874017 451.7325,107.484 C453.126174,104.093983 455.065988,101.156012 457.552,98.67 C460.038013,96.1839876 462.994816,94.2441736 466.4225,92.8505 C469.850184,91.4568264 473.635646,90.76 477.779,90.76 C479.511676,90.76 481.338491,90.9483314 483.2595,91.325 C485.18051,91.7016685 487.044991,92.3043292 488.853,93.133 C490.661009,93.9616708 492.393659,95.0163269 494.051,96.297 C495.708342,97.5776731 497.139661,99.121991 498.345,100.93 L498.571,100.93 L498.571,59.572 L506.029,59.572 L506.029,145 Z M558.083,114.49 C558.083,109.442641 556.576349,105.355849 553.563,102.2295 C550.549652,99.103151 546.331028,97.54 540.907,97.54 C538.496322,97.54 536.161012,98.0108286 533.901,98.9525 C531.640989,99.8941714 529.663509,101.155992 527.9685,102.738 C526.273492,104.320008 524.917505,106.12799 523.9005,108.162 C522.883495,110.19601 522.375,112.305322 522.375,114.49 L558.083,114.49 Z M522.149,120.592 C522.375002,123.22868 523.015328,125.714655 524.07,128.05 C525.124672,130.385345 526.518325,132.400492 528.251,134.0955 C529.983676,135.790508 531.979989,137.127662 534.24,138.107 C536.500012,139.086338 538.948321,139.576 541.585,139.576 C545.577687,139.576 549.024153,138.653176 551.9245,136.8075 C554.824848,134.961824 557.028326,132.833679 558.535,130.423 L564.298,135.169 C561.133985,139.161687 557.649853,142.024325 553.8455,143.757 C550.041148,145.489675 545.954356,146.356 541.585,146.356 C537.667647,146.356 534.03285,145.659174 530.6805,144.2655 C527.32815,142.871826 524.446679,140.932012 522.036,138.446 C519.625322,135.959988 517.723174,133.022017 516.3295,129.632 C514.935827,126.241983 514.239,122.550687 514.239,118.558 C514.239,114.565313 514.916994,110.874017 516.273,107.484 C517.629007,104.093983 519.512322,101.156012 521.923,98.67 C524.333679,96.1839876 527.158651,94.2441736 530.398,92.8505 C533.63735,91.4568264 537.140315,90.76 540.907,90.76 C544.899687,90.76 548.477985,91.4756595 551.642,92.907 C554.806016,94.3383405 557.46149,96.2404881 559.6085,98.6135 C561.755511,100.986512 563.393995,103.773817 564.524,106.9755 C565.654006,110.177183 566.219,113.585982 566.219,117.202 L566.219,120.592 L522.149,120.592 Z M581.548,92.116 C581.698668,93.5473405 581.792834,94.9598264 581.8305,96.3535 C581.868167,97.7471736 581.887,99.1596595 581.887,100.591 L582.113,100.591 C582.941671,99.1596595 583.996327,97.8413394 585.277,96.636 C586.557674,95.4306606 587.988993,94.3948377 589.571,93.5285 C591.153008,92.6621623 592.829158,91.9841691 594.5995,91.4945 C596.369843,91.0048309 598.121325,90.76 599.854,90.76 C606.634034,90.76 611.643651,92.5491488 614.883,96.1275 C618.12235,99.7058512 619.742,104.809634 619.742,111.439 L619.742,145 L612.284,145 L612.284,115.733 C612.284,109.856971 611.267011,105.355849 609.233,102.2295 C607.19899,99.103151 603.432361,97.54 597.933,97.54 C597.556332,97.54 596.501676,97.6906652 594.769,97.992 C593.036325,98.2933348 591.20951,99.1219932 589.2885,100.478 C587.367491,101.834007 585.653675,103.867986 584.147,106.58 C582.640326,109.292014 581.887,113.058643 581.887,117.88 L581.887,145 L574.429,145 L574.429,103.755 C574.429,102.32366 574.372501,100.515678 574.2595,98.331 C574.1465,96.1463224 574.014668,94.0746765 573.864,92.116 L581.548,92.116 Z M665.355001,137.542 L665.016001,137.542 C663.057324,140.630682 660.571349,142.871826 657.558001,144.2655 C654.544652,145.659174 651.230019,146.356 647.614001,146.356 C645.127988,146.356 642.698512,146.017003 640.325501,145.339 C637.952489,144.660997 635.843176,143.644007 633.997501,142.288 C632.151825,140.931993 630.664006,139.23701 629.534001,137.203 C628.403995,135.16899 627.839001,132.796014 627.839001,130.084 C627.839001,127.145985 628.366329,124.641177 629.421001,122.5695 C630.475673,120.497823 631.888158,118.765174 633.658501,117.3715 C635.428843,115.977826 637.481656,114.866671 639.817001,114.038 C642.152346,113.209329 644.581821,112.587835 647.105501,112.1735 C649.62918,111.759165 652.171654,111.495501 654.733001,111.3825 C657.294347,111.269499 659.704989,111.213 661.965001,111.213 L665.355001,111.213 L665.355001,109.744 C665.355001,106.353983 664.187346,103.811508 661.852001,102.1165 C659.516656,100.421492 656.541019,99.574 652.925001,99.574 C650.06232,99.574 647.388013,100.082495 644.902001,101.0995 C642.415988,102.116505 640.26901,103.491325 638.461001,105.224 L631.342001,98.105 C634.355349,95.0163179 637.877147,92.7940068 641.907501,91.438 C645.937854,90.0819932 650.099979,89.404 654.394001,89.404 C658.23602,89.404 661.475321,89.8371623 664.112001,90.7035 C666.74868,91.5698377 668.933325,92.6809932 670.666001,94.037 C672.398676,95.3930068 673.735829,96.9561578 674.677501,98.7265 C675.619172,100.496842 676.297165,102.285991 676.711501,104.094 C677.125836,105.902009 677.370667,107.653492 677.446001,109.3485 C677.521334,111.043508 677.559001,112.531327 677.559001,113.812 L677.559001,145 L665.355001,145 L665.355001,137.542 Z M664.564001,120.705 L661.739001,120.705 C659.855658,120.705 657.746346,120.780333 655.411001,120.931 C653.075656,121.081667 650.872178,121.439497 648.800501,122.0045 C646.728824,122.569503 644.977341,123.398161 643.546001,124.4905 C642.11466,125.582839 641.399001,127.108324 641.399001,129.067 C641.399001,130.347673 641.681498,131.421162 642.246501,132.2875 C642.811503,133.153838 643.545996,133.88833 644.450001,134.491 C645.354005,135.09367 646.370995,135.526832 647.501001,135.7905 C648.631006,136.054168 649.760995,136.186 650.891001,136.186 C655.561691,136.186 659.008156,135.074844 661.230501,132.8525 C663.452845,130.630156 664.564001,127.598019 664.564001,123.756 L664.564001,120.705 Z M721.477001,90.76 L721.477001,90.195 C720.64833,89.9689989 719.838505,89.7806674 719.047501,89.63 C718.256497,89.4793326 717.446671,89.404 716.618001,89.404 C713.001983,89.404 709.800348,90.2703247 707.013001,92.003 C704.225653,93.7356753 702.078675,96.1839842 700.572001,99.348 L700.346001,99.348 L700.346001,90.76 L686.786001,90.76 L686.786001,145 L700.346001,145 L700.346001,115.959 C700.346001,115.205663 700.515499,114.075674 700.854501,112.569 C701.193502,111.062326 701.871496,109.555674 702.888501,108.049 C703.905506,106.542326 705.374491,105.205173 707.295501,104.0375 C709.21651,102.869827 711.758985,102.286 714.923001,102.286 C715.977673,102.286 717.051162,102.380166 718.143501,102.5685 C719.235839,102.756834 720.346995,103.001665 721.477001,103.303 L721.477001,102.286 L725.543,102.286 L725.543,127.146 C725.543,130.310016 725.787831,133.097321 726.2775,135.508 C726.767169,137.918679 727.67116,139.933825 728.9895,141.5535 C730.30784,143.173175 732.115822,144.378496 734.4135,145.1695 C736.711178,145.960504 739.667982,146.356 743.284,146.356 C744.866008,146.356 746.692823,146.224168 748.7645,145.9605 C750.836177,145.696832 752.58766,145.226003 754.019,144.548 L754.019,133.135 C753.190329,133.73767 752.06034,134.170832 750.629,134.4345 C749.19766,134.698168 747.879339,134.83 746.674,134.83 C743.660652,134.83 741.645505,134.039008 740.6285,132.457 C739.611495,130.874992 739.103,128.728014 739.103,126.016 L739.103,102.286 L754.019,102.286 L754.019,90.76 L739.103,90.76 L739.103,75.053 L725.543,75.053 L725.543,90.76 L721.477001,90.76 Z" id="Combined-Shape" fill="#222222"></path>
                <path d="M118.488293,133 L180.03878,0.846618852 L292.647267,217.465048 L291.618211,218 L265.876167,218 L181.220805,55.1533811 L149.625165,122.991523 C189.863783,122.997174 209.988728,123 210,123 C210.000079,123 210.000079,123.000201 209.999999,123.000601 C209.991983,129.000253 209.991983,132.000053 210,132 C204.961128,185.574331 160.392279,228 105.5,228 C47.2339589,228 0,180.766041 0,122.5 C0,64.2339589 47.2339589,17 105.5,17 C121.915601,17 138,17 164,32 L159.002775,40.6618559 C148.157242,34.4048175 138.869394,30.732519 129.984815,28.8442834 C123.116438,27.3845502 117.477263,27.0104327 107.081532,27.000502 C106.643887,27.0000839 106.292531,27 105.5,27 C52.7568064,27 10,69.7568064 10,122.5 C10,175.243194 52.7568064,218 105.5,218 C154.665612,218 195.153648,180.846878 200.420063,133.084677 C200.280749,133.064527 200.140709,133.036435 200,133 C172.590589,133.180395 156.378503,133.181267 147,133.136608 L147,133 L118.488293,133 Z" id="Combined-Shape" fill="#D8232A" fill-rule="nonzero"></path>
                <rect id="Rectangle-7-Copy" fill="#FFFFFF" transform="translate(155.462939, 33.757704) rotate(-64.000000) translate(-155.462939, -33.757704) " x="121.462939" y="26.4609041" width="68" height="14.5936001"></rect>
            </g>
        </g>
    </g>
</svg>