<?xml version="1.0" encoding="UTF-8"?>
<svg width="757px" height="215px" viewBox="0 0 757 215" version="1.1" xmlns="http://www.w3.org/2000/svg" xmlns:xlink="http://www.w3.org/1999/xlink">
    <!-- Generator: Sketch 44.1 (41455) - http://www.bohemiancoding.com/sketch -->
    <title>logotipo_golden</title>
    <desc>Created with Sketch.</desc>
    <defs>
        <polygon id="path-1" points="757 107.5 757 0 8.30245622e-14 0 0 215 189.25 215 757 215"></polygon>
    </defs>
    <g id="Page-1" stroke="none" stroke-width="1" fill="none" fill-rule="evenodd">
        <g id="Desktop-Landscape" transform="translate(-322.000000, -1590.000000)">
            <g id="logotipo_golden" transform="translate(322.000000, 1590.000000)">
                <mask id="mask-2" fill="white">
                    <use xlink:href="#path-1"></use>
                </mask>
                <g id="Clip-2"></g>
                <path d="M299,198.474129 L304.228059,198.474129 L304.228059,150.035623 L299,150.035623 L299,198.474129 Z M317.769422,198.474129 L345.922713,198.474129 L345.922713,193.914343 L322.926672,193.914343 L322.926672,150.035623 L317.769422,150.035623 L317.769422,198.474129 Z M370.780017,199.042426 C380.666291,199.042426 388.258019,193.273961 388.258019,181.949934 L388.258019,150.035623 L383.100769,150.035623 L383.100769,181.591186 C383.100769,190.209517 378.300936,194.484316 370.780017,194.484316 C363.186603,194.484316 358.459264,190.209517 358.459264,181.591186 L358.459264,150.035623 L353.302014,150.035623 L353.302014,181.949934 C353.302014,193.273961 360.821248,199.042426 370.780017,199.042426 L370.780017,199.042426 Z M401.153673,198.474129 L406.167619,198.474129 L406.167619,166.491086 C406.167619,164.281434 405.881011,160.935691 405.881011,160.935691 C405.881011,160.935691 407.814769,164.067862 409.391111,165.992695 L423.933915,184.513137 L424.793738,184.513137 L439.548968,165.992695 C441.126996,164.067862 442.989945,160.935691 442.989945,160.935691 C442.989945,160.935691 442.77246,164.281434 442.77246,166.491086 L442.77246,198.474129 L447.788092,198.474129 L447.788092,149.464644 L447.000765,149.464644 L424.505444,177.601373 L401.868506,149.464644 L401.153673,149.464644 L401.153673,198.474129 Z M461.326084,198.474129 L466.555829,198.474129 L466.555829,150.035623 L461.326084,150.035623 L461.326084,198.474129 Z M516.986955,198.972017 L517.848464,198.972017 L517.848464,150.035623 L513.050316,150.035623 L513.050316,182.732809 C513.050316,184.796447 513.407733,188.216287 513.407733,188.216287 C513.407733,188.216287 511.40148,185.366421 510.039251,183.730262 L480.957015,149.535891 L480.097192,149.535891 L480.097192,198.474129 L484.966149,198.474129 L484.966149,165.77929 C484.966149,163.711796 484.536237,160.292124 484.536237,160.292124 C484.536237,160.292124 486.54249,163.142326 487.904719,164.779658 L516.986955,198.972017 Z M527.161523,198.474129 L532.247964,198.474129 L535.46977,190.35201 L560.112961,190.35201 L563.408948,198.474129 L568.852805,198.474129 L548.220434,149.535891 L547.363983,149.535891 L527.161523,198.474129 Z M537.26191,185.936394 L545.858451,164.426609 C546.789082,162.145878 547.790523,158.654792 547.790523,158.654792 C547.790523,158.654792 548.724526,162.145878 549.655158,164.426609 L558.251698,185.936394 L537.26191,185.936394 Z M597.1494,199.042426 C605.889244,199.042426 612.909443,195.3376 617.208556,189.071247 L613.197736,186.291789 C609.685951,191.349463 604.242093,194.413908 597.1494,194.413908 C585.760965,194.413908 577.521841,185.793901 577.521841,174.255295 C577.521841,162.715349 585.760965,154.094503 597.1494,154.094503 C604.171285,154.094503 609.399343,157.088875 612.552026,161.718734 L616.493723,158.868365 C612.336228,152.670911 605.74594,149.464644 597.1494,149.464644 C583.323114,149.464644 572.150478,159.651407 572.150478,174.255295 C572.150478,187.64799 581.53266,197.334182 593.710109,198.829524 L593.710109,205.09923 L595.286451,205.09923 C597.864233,205.09923 599.083158,206.594571 599.083158,208.445308 C599.083158,210.584384 597.579311,211.652245 595.861352,211.652245 C593.6393,211.652245 592.851972,210.44189 591.99215,209.015281 L588.911962,210.797286 C590.056706,213.078855 592.422061,215 596.146273,215 C599.658059,215 603.023168,212.720107 603.023168,208.730294 C603.023168,204.95506 600.158779,202.676843 597.1494,202.249363 L597.1494,199.042426 Z M636.836115,145.192192 C637.122723,142.343332 638.053354,140.98931 639.484706,140.98931 C640.632822,140.98931 641.135228,141.416287 642.923996,142.983881 C644.502024,144.336394 645.862567,145.33435 647.867134,145.33435 C651.449728,145.33435 653.742588,142.555227 654.02751,137.498224 L650.303298,137.143834 C650.018376,139.992695 649.229362,141.273961 647.725516,141.273961 C646.579086,141.273961 646.076679,140.846984 644.286225,139.279222 C642.709884,137.926877 641.349341,137 639.344774,137 C635.832989,137 633.396825,139.777614 633.110217,144.905864 L636.836115,145.192192 Z M622.939021,198.474129 L628.025462,198.474129 L631.247268,190.35201 L655.890459,190.35201 L659.186446,198.474129 L664.630303,198.474129 L643.997932,149.535891 L643.141481,149.535891 L622.939021,198.474129 Z M633.039408,185.936394 L641.635948,164.426609 C642.56658,162.145878 643.569706,158.654792 643.569706,158.654792 C643.569706,158.654792 644.502024,162.145878 645.432655,164.426609 L654.02751,185.936394 L633.039408,185.936394 Z M692.926729,199.042426 C706.825678,199.042426 718,188.858345 718,174.255295 C718,159.651407 706.825678,149.464644 692.926729,149.464644 C679.100612,149.464644 667.92629,159.651407 667.92629,174.255295 C667.92629,188.858345 679.100612,199.042426 692.926729,199.042426 L692.926729,199.042426 Z M692.926729,194.413908 C681.609271,194.413908 673.299339,185.793901 673.299339,174.255295 C673.299339,162.715349 681.609271,154.094503 692.926729,154.094503 C704.318705,154.094503 712.626951,162.715349 712.626951,174.255295 C712.626951,185.793901 704.318705,194.413908 692.926729,194.413908 L692.926729,194.413908 Z" id="Fill-1" fill="#8A8B8A" mask="url(#mask-2)"></path>
                <path d="M323.398598,127 C343.892272,127 355.469418,113.744637 355.089812,93.8577209 L324.820856,93.8577209 L324.820856,102.570086 L344.462525,102.570086 C342.9441,110.902591 335.63879,118.098547 323.305806,118.098547 C309.830629,118.098547 300.247681,107.6822 300.247681,93.953191 C300.247681,80.2224983 309.734462,69.9954079 323.209639,69.9954079 C331.559288,69.9954079 337.629613,73.4986734 341.616322,79.7490203 L349.395719,74.1615762 C343.607146,65.072382 334.403804,61 323.209639,61 C304.802955,61 290,74.824479 290,93.953191 C290,113.080388 304.328869,127 323.398598,127 L323.398598,127 Z M386.587005,127 C400.725228,127 412.491333,116.583653 412.491333,101.905668 C412.491333,87.0401096 400.725228,76.8145346 386.587005,76.8145346 C372.546637,76.8145346 360.686051,87.0401096 360.686051,101.905668 C360.686051,116.583653 372.546637,127 386.587005,127 L386.587005,127 Z M386.587005,118.38462 C377.193017,118.38462 370.648605,111.565325 370.648605,101.905668 C370.648605,92.3428271 377.193017,85.3361277 386.587005,85.3361277 C395.980993,85.3361277 402.527092,92.3428271 402.527092,101.905668 C402.527092,111.565325 395.980993,118.38462 386.587005,118.38462 L386.587005,118.38462 Z M420.269043,126.148009 L452.054736,126.148009 L452.054736,117.720202 L429.948158,117.720202 L429.948158,77.5697083 L420.269043,77.5697083 L420.269043,126.148009 Z M459.267254,126.148009 L474.637088,126.148009 C489.723483,126.148009 500.254603,116.489867 500.254603,101.905668 C500.254603,87.1355797 489.627316,77.5697083 474.637088,77.5697083 L459.267254,77.5697083 L459.267254,126.148009 Z M468.944682,117.720202 L468.944682,85.9990306 L474.066835,85.9990306 C485.262688,85.9990306 490.290361,92.4367818 490.290361,101.905668 C490.290361,111.471539 485.262688,117.720202 474.066835,117.720202 L468.944682,117.720202 Z M508.033999,126.148009 L541.621557,126.148009 L541.621557,117.720202 L517.70974,117.720202 L517.70974,109.007837 L537.351409,109.007837 L537.351409,100.864589 L517.70974,100.864589 L517.70974,85.9990306 L540.671698,85.9990306 L540.671698,77.5697083 L508.033999,77.5697083 L508.033999,126.148009 Z M588.586438,126.810744 L589.53461,126.810744 L589.53461,77.5697083 L580.712561,77.5697083 L580.712561,98.7822622 C580.712561,103.042217 581.27944,107.968105 581.27944,107.968105 C581.27944,107.968105 578.623884,104.274236 575.207428,100.961406 L550.539772,77.0036227 L549.589913,77.0036227 L549.589913,126.148009 L558.413649,126.148009 L558.413649,104.843184 C558.413649,100.864589 557.656124,95.6571729 557.656124,95.6571729 C557.656124,95.6571729 560.787453,99.8248566 563.728136,102.663872 L588.586438,126.810744 Z M614.774205,126.148009 L624.451633,126.148009 L628.149841,117.057468 L657.659585,117.057468 L661.361167,126.148009 L671.797807,126.148009 L643.521362,61.0939547 L642.382543,61.0939547 L614.774205,126.148009 Z M631.566297,108.629493 L639.63082,88.5550034 C641.243725,84.768695 642.763837,78.9921628 642.763837,78.9921628 C642.763837,78.9921628 644.375054,84.768695 645.989646,88.5550034 L654.052482,108.629493 L631.566297,108.629493 Z M704.911279,111.091679 C710.603685,108.440405 714.020141,103.232989 714.020141,95.9415627 C714.020141,84.1042768 705.670491,77.5697083 692.6694,77.5697083 L677.964299,77.5697083 L677.964299,126.148009 L687.641727,126.148009 L687.641727,114.02768 L692.6694,114.02768 C693.809906,114.02768 694.852558,113.933726 695.89521,113.838424 L703.77246,126.148009 L714.681499,126.148009 L704.911279,111.091679 Z M687.641727,105.790477 L687.641727,85.9990306 L692.385961,85.9990306 C700.733923,85.9990306 704.150379,89.5977662 704.150379,95.9415627 C704.150379,102.191741 700.733923,105.790477 692.385961,105.790477 L687.641727,105.790477 Z M732.804743,126.148009 L742.482171,126.148009 L742.482171,85.9990306 L757,85.9990306 L757,77.5697083 L718.288602,77.5697083 L718.288602,85.9990306 L732.804743,85.9990306 L732.804743,126.148009 L732.804743,126.148009 Z" id="Fill-3" fill="#8A8B8A" mask="url(#mask-2)"></path>
                <path d="M198.017603,128.739133 C198.800234,126.073671 199.474684,123.360627 200.03926,120.608911 L231.73161,197.906295 L261,197.906295 L177.594808,3.31547605 L124.906805,125.254008 L192.708217,125.254008 C181.77166,165.427442 144.884699,194.985771 101.03722,194.985771 C48.5772444,194.985771 6.04874422,152.681716 6.04874422,100.500673 C6.04874422,48.3182842 48.5772444,6.01658274 101.03722,6.01658274 C119.71118,6.01658274 137.110278,11.3979472 151.795353,20.6585482 L155.180952,15.6697815 C139.528322,5.76067957 120.96508,0 101.03722,0 C45.2359319,0 0,44.9954101 0,100.500673 C0,156.006103 45.2359319,201 101.03722,201 C146.979718,201 185.750742,170.496746 198.017603,128.739133 M154.804173,120.583691 L177.45789,65.5468556 L200.027428,120.583691 L154.804173,120.583691" id="Fill-4" fill="#D9222A" mask="url(#mask-2)"></path>
            </g>
        </g>
    </g>
</svg>