<?xml version="1.0" encoding="UTF-8"?>
<svg width="904px" height="394px" viewBox="0 0 904 394" version="1.1" xmlns="http://www.w3.org/2000/svg" xmlns:xlink="http://www.w3.org/1999/xlink">
    <!-- Generator: Sketch 44.1 (41455) - http://www.bohemiancoding.com/sketch -->
    <title>logo-expanded</title>
    <desc>Created with Sketch.</desc>
    <defs></defs>
    <g id="Page-1" stroke="none" stroke-width="1" fill="none" fill-rule="evenodd">
        <g id="logo-expanded">
            <g>
                <rect id="Rectangle-17" fill="#D62626" x="0" y="0" width="904" height="393.646255"></rect>
                <path d="M248.020204,220.294726 C248.632895,218.197483 249.160895,216.062802 249.60288,213.897692 L274.413576,274.716941 L297.326648,274.716941 L232.032,121.608688 L190.784631,217.552554 L243.863694,217.552554 C235.301893,249.161879 206.42454,272.41901 172.098071,272.41901 C131.029217,272.41901 97.7353243,239.133267 97.7353243,198.076097 C97.7353243,157.017868 131.029217,123.733977 172.098071,123.733977 C186.717181,123.733977 200.338251,127.968151 211.834619,135.254591 L214.485072,131.329322 C202.231243,123.532627 187.69881,119 172.098071,119 C128.413434,119 93,154.403359 93,198.076097 C93,241.748966 128.413434,277.151135 172.098071,277.151135 C208.064648,277.151135 238.41696,253.150517 248.020204,220.294726 M214.190107,213.877848 L231.924812,170.57368 L249.593617,213.877848 L214.190107,213.877848" id="Fill-4" fill="#FFFFFF"></path>
            </g>
            <g id="Group-12" transform="translate(327.000000, 139.000000)" fill="#FFFFFF">
                <path d="M52.7935402,31.5859125 L52.7935402,81.1056564 C52.7935402,86.5130117 51.6892329,91.2443767 49.4805852,95.2998933 C47.2719376,99.3554098 44.1371298,102.485937 40.076068,104.691569 C36.0150061,106.897201 31.2771717,108 25.8624225,108 C21.5163739,108 17.5088071,107.235155 13.8396021,105.705443 C10.1703971,104.175731 6.66154982,101.916771 3.31295495,98.9284952 L5.66408427,95.620064 C8.65644564,98.3237417 11.773442,100.369257 15.0151668,101.75667 C18.2568916,103.144084 21.8369845,103.83778 25.755553,103.83778 C32.6664828,103.83778 38.1880192,101.792265 42.3203278,97.701174 C46.4526363,93.6100827 48.5187596,88.113873 48.5187596,81.2123799 L48.5187596,70.6467449 C46.5950987,75.129158 43.6384051,78.633214 39.6485899,81.1590181 C35.6587747,83.6848223 31.0278087,84.9477054 25.755553,84.9477054 C20.8395308,84.9477054 16.4223017,83.8093319 12.5037332,81.5325507 C8.58516474,79.2557695 5.52160263,76.0896681 3.31295495,72.0341515 C1.10430727,67.978635 0,63.3895667 0,58.266809 C0,53.1440512 1.10430727,48.5549829 3.31295495,44.4994664 C5.52160263,40.4439498 8.56735333,37.2600614 12.4502984,34.9477054 C16.3332436,32.6353495 20.7326612,31.4791889 25.6486835,31.4791889 C30.9209392,31.4791889 35.5519052,32.7598591 39.5417204,35.321238 C43.5315355,37.8826169 46.523852,41.40446 48.5187596,45.886873 L48.5187596,31.5859125 L52.7935402,31.5859125 Z M37.6715039,78.1707577 C41.0557221,76.2141489 43.7096218,73.5105117 45.6332827,70.0597652 C47.5569436,66.6090187 48.5187596,62.7136467 48.5187596,58.3735326 C48.5187596,54.0334184 47.5569436,50.1202593 45.6332827,46.6339381 C43.7096218,43.1476169 41.0557221,40.4261926 37.6715039,38.4695838 C34.2872857,36.5129749 30.4934558,35.5346852 26.2899006,35.5346852 C22.0863453,35.5346852 18.2925155,36.5129749 14.9082973,38.4695838 C11.5240791,40.4261926 8.88799073,43.1476169 6.9999532,46.6339381 C5.11191567,50.1202593 4.16791107,54.0334184 4.16791107,58.3735326 C4.16791107,62.7136467 5.11191567,66.6090187 6.9999532,70.0597652 C8.88799073,73.5105117 11.5062677,76.2141489 14.8548625,78.1707577 C18.2034574,80.1273666 22.0150986,81.1056564 26.2899006,81.1056564 C30.4934558,81.1056564 34.2872857,80.1273666 37.6715039,78.1707577 Z M103.111715,35.054429 C107.279647,37.4379344 110.539135,40.7463324 112.890276,44.9797225 C115.241417,49.2131126 116.41697,53.9978388 116.41697,59.3340448 C116.41697,64.7414002 115.241417,69.5617006 112.890276,73.7950907 C110.539135,78.0284808 107.279647,81.3368789 103.111715,83.7203842 C98.9437834,86.1038895 94.2237604,87.2956243 88.9515046,87.2956243 C83.7504956,87.2956243 79.0660954,86.1038895 74.8981635,83.7203842 C70.7302316,81.3368789 67.4529325,78.0284808 65.0661681,73.7950907 C62.6794037,69.5617006 61.4860394,64.7414002 61.4860394,59.3340448 C61.4860394,53.9978388 62.6794037,49.2131126 65.0661681,44.9797225 C67.4529325,40.7463324 70.7302316,37.4379344 74.8981635,35.054429 C79.0660954,32.6709237 83.7504956,31.4791889 88.9515046,31.4791889 C94.2237604,31.4791889 98.9437834,32.6709237 103.111715,35.054429 Z M77.0889885,38.7363927 C73.5979002,40.7285763 70.8549435,43.5211489 68.8600359,47.1141942 C66.8651283,50.7072396 65.8676895,54.7804824 65.8676895,59.3340448 C65.8676895,63.9587567 66.8651283,68.0853607 68.8600359,71.7139808 C70.8549435,75.3426009 73.5979002,78.1529605 77.0889885,80.1451441 C80.5800768,82.1373276 84.5342093,83.1334045 88.9515046,83.1334045 C93.3688,83.1334045 97.3407439,82.1373276 100.867455,80.1451441 C104.394167,78.1529605 107.137124,75.3426009 109.096408,71.7139808 C111.055692,68.0853607 112.03532,63.9587567 112.03532,59.3340448 C112.03532,54.7804824 111.055692,50.7072396 109.096408,47.1141942 C107.137124,43.5211489 104.394167,40.7285763 100.867455,38.7363927 C97.3407439,36.7442092 93.3688,35.7481323 88.9515046,35.7481323 C84.5342093,35.7481323 80.5800768,36.7442092 77.0889885,38.7363927 Z M128.416413,8 L132.904932,8 L132.904932,87.1889007 L128.416413,87.1889007 L128.416413,8 Z M201.539206,8 L201.539206,87.1889007 L197.050687,87.1889007 L197.050687,72.6744931 C194.913286,77.2992049 191.778478,80.9277705 187.646169,83.5602988 C183.513861,86.1928271 178.740404,87.5090715 173.325654,87.5090715 C168.124645,87.5090715 163.458057,86.2995496 159.325748,83.8804696 C155.193439,81.4613895 151.969575,78.1352044 149.654057,73.9018143 C147.338539,69.6684242 146.180798,64.8481238 146.180798,59.4407684 C146.180798,54.033413 147.338539,49.1953255 149.654057,44.9263607 C151.969575,40.6573959 155.175628,37.3134237 159.272313,34.8943436 C163.368998,32.4752636 168.017776,31.2657417 173.218785,31.2657417 C178.704781,31.2657417 183.513861,32.5819861 187.646169,35.2145144 C191.778478,37.8470427 194.913286,41.4756083 197.050687,46.1003202 L197.050687,8 L201.539206,8 Z M185.775953,80.2518677 C189.302664,78.1885347 192.063433,75.3426009 194.05834,71.7139808 C196.053248,68.0853607 197.050687,63.9943308 197.050687,59.4407684 C197.050687,54.887206 196.053248,50.7961761 194.05834,47.167556 C192.063433,43.538936 189.302664,40.6930021 185.775953,38.6296692 C182.249241,36.5663362 178.277297,35.5346852 173.860002,35.5346852 C169.442707,35.5346852 165.470763,36.5663362 161.944051,38.6296692 C158.417339,40.6930021 155.63876,43.538936 153.608229,47.167556 C151.577698,50.7961761 150.562448,54.887206 150.562448,59.4407684 C150.562448,63.9943308 151.559887,68.0853607 153.554794,71.7139808 C155.549702,75.3426009 158.31047,78.1885347 161.837182,80.2518677 C165.363893,82.3152006 169.37146,83.3468517 173.860002,83.3468517 C178.277297,83.3468517 182.249241,82.3152006 185.775953,80.2518677 Z M254.629977,35.1611526 C258.584169,37.6158074 261.576486,41.048715 263.607017,45.4599787 C265.637547,49.8712423 266.617175,54.9227748 266.545928,60.6147279 L217.920299,60.6147279 C218.134039,65.0971409 219.238346,69.0458741 221.233254,72.4610459 C223.228162,75.8762177 225.935496,78.5264936 229.355337,80.411953 C232.775179,82.2974125 236.622443,83.2401281 240.897245,83.2401281 C244.67332,83.2401281 248.182167,82.5820059 251.423892,81.2657417 C254.665617,79.9494776 257.426385,78.0462593 259.706279,75.5560299 L262.271148,78.4375667 C259.63502,81.2835432 256.464589,83.4713549 252.759761,85.0010672 C249.054932,86.5307796 245.029554,87.2956243 240.683506,87.2956243 C235.482497,87.2956243 230.815908,86.1038895 226.683599,83.7203842 C222.551291,81.3368789 219.327426,78.0284808 217.011908,73.7950907 C214.69639,69.5617006 213.538649,64.7769744 213.538649,59.4407684 C213.538649,54.1045624 214.714202,49.3020491 217.065343,45.0330843 C219.416484,40.7641195 222.640349,37.4379344 226.737034,35.054429 C230.833719,32.6709237 235.482497,31.4791889 240.683506,31.4791889 C246.027008,31.4791889 250.675786,32.7064979 254.629977,35.1611526 Z M262.484887,56.6659552 C262.057406,50.262508 259.884415,45.1398271 255.965846,41.2977588 C252.047278,37.4556905 246.953215,35.5346852 240.683506,35.5346852 C234.413796,35.5346852 229.212865,37.4734776 225.080557,41.3511206 C220.948248,45.2287636 218.597142,50.3336574 218.027169,56.6659552 L262.484887,56.6659552 Z M320.812264,37.2956243 C324.623962,41.1732673 326.529783,46.4916062 326.529783,53.2508004 L326.529783,87.1889007 L322.041263,87.1889007 L322.041263,54.1045891 C322.041263,48.4126361 320.438237,43.9658645 317.232135,40.7641409 C314.026034,37.5624173 309.573182,35.9615795 303.873446,35.9615795 C297.53249,36.1038783 292.456238,38.0426708 288.64454,41.7780149 C284.832842,45.5133591 282.677661,50.6182529 282.178934,57.0928495 L282.178934,87.1889007 L277.690415,87.1889007 L277.690415,31.5859125 L282.178934,31.5859125 L282.178934,45.7801494 C284.031349,41.226587 286.898985,37.740318 290.78193,35.321238 C294.664875,32.902158 299.384898,31.6214877 304.942141,31.4791889 C311.710577,31.4791889 317.000566,33.4179813 320.812264,37.2956243 Z M377.845184,87.1889007 L377.845184,79.2913554 C373.641629,84.8410096 367.051408,87.6157951 358.074324,87.6157951 C354.155756,87.6157951 350.718154,86.8687375 347.761416,85.3745998 C344.804678,83.8804621 342.524818,81.8171601 340.921767,79.1846318 C339.318716,76.5521035 338.517203,73.5994472 338.517203,70.3265742 C338.517203,65.2749658 340.387401,61.2728714 344.127852,58.3201708 C347.868304,55.3674701 353.087047,53.8555678 359.784236,53.7844184 L377.738315,53.7844184 L377.738315,51.1163287 C377.738315,47.1319616 376.509328,44.0547956 374.051316,41.8847385 C371.593305,39.7146814 368.013212,38.6296692 363.31093,38.6296692 C357.611194,38.6296692 351.804675,40.657397 345.891199,44.7129136 L341.723288,37.8826041 C345.78435,35.2500758 349.542557,33.3468575 352.998022,32.1728922 C356.453487,30.9989269 360.567922,30.411953 365.341451,30.411953 C372.394874,30.411953 377.845165,32.1373004 381.692487,35.588047 C385.539809,39.0387935 387.499063,43.8590939 387.57031,50.0490928 L387.67718,87.1889007 L377.845184,87.1889007 Z M430.021553,40.025587 L440.126733,40.0704376 L440.126733,71.3404482 C440.126733,76.7478036 441.516023,80.7854723 444.294644,83.4535752 C447.073265,86.1216782 450.706793,87.4557097 455.195335,87.4557097 C459.683877,87.4557097 464.101106,84.7342721 468.447154,81.959445 L465.775417,75.6093917 C462.640562,77.388127 459.719491,78.2774813 457.012116,78.2774813 C454.732222,78.2774813 453.022327,77.601572 451.88238,76.2497332 C450.742433,74.8978943 450.172467,72.6567215 450.172467,69.5261473 L450.172467,40.0704376 L467.485329,40.0704376 L471,30.9442369 L450.172467,30.678762 L450.172467,17.3383138 L440.126733,17.3383138 L440.126733,30.678762 L428.103913,30.6254002 L428.103913,30.7667271 C424.206236,31.0700431 420.784434,32.1257376 417.838428,33.9338314 C414.418586,36.0327391 411.782498,39.109905 409.930084,43.1654216 L409.930084,30.9989328 L399.991219,30.9989328 L399.991219,87.4557097 L409.930084,87.4557097 L409.930084,57.6798292 C410.428811,52.2724739 412.459311,47.9679989 416.021646,44.7662753 C419.583981,41.5645518 424.25057,40.0704365 430.021553,40.2838847 L430.021553,40.025587 Z M371.913926,76.036286 C368.672201,78.2774925 364.73588,79.398079 360.104845,79.398079 C356.400016,79.398079 353.443323,78.5442988 351.234675,76.8367129 C349.026027,75.129127 347.92172,72.8168058 347.92172,69.8996798 C347.92172,66.9825539 349.008216,64.8481035 351.18124,63.4962647 C353.354265,62.1444258 356.684998,61.4685165 361.17354,61.4685165 L377.738315,61.4685165 L377.738315,67.1248666 C377.097094,70.8246361 375.155651,73.7950795 371.913926,76.036286 Z" id="Combined-Shape"></path>
            </g>
        </g>
    </g>
</svg>