<?xml version="1.0" encoding="UTF-8"?>
<svg width="897px" height="228px" viewBox="0 0 897 228" version="1.1" xmlns="http://www.w3.org/2000/svg" xmlns:xlink="http://www.w3.org/1999/xlink">
    <!-- Generator: Sketch 44.1 (41455) - http://www.bohemiancoding.com/sketch -->
    <title>Group 7</title>
    <desc>Created with Sketch.</desc>
    <defs></defs>
    <g id="Page-1" stroke="none" stroke-width="1" fill="none" fill-rule="evenodd">
        <g id="Desktop-Landscape" transform="translate(-175.000000, -2690.000000)">
            <g id="Group-7" transform="translate(175.000000, 2690.000000)">
                <path d="M389.43479,151.058857 C389.43479,159.523241 388.20452,166.363541 385.743943,171.579964 C383.283366,176.796387 380.207692,180.831672 376.516827,183.685941 C372.825962,186.54021 368.864492,188.459431 364.632301,189.443661 C360.400109,190.427892 356.561667,190.92 353.116859,190.92 C349.672052,190.92 346.301112,190.60013 343.00394,189.96038 C339.706767,189.32063 336.581881,188.385625 333.629189,187.155337 C330.676497,185.925048 327.994509,184.424119 325.583144,182.652504 C323.171779,180.880888 321.08032,178.863246 319.308705,176.599515 L326.247496,170.103625 C329.397034,174.532663 333.333898,177.780576 338.058205,179.84746 C342.782513,181.914345 347.802014,182.947771 353.116859,182.947771 C357.64432,182.947771 361.458157,182.357242 364.558484,181.176165 C367.65881,179.995088 370.217772,178.444948 372.235445,176.525698 C374.253117,174.606449 375.827863,172.490384 376.959728,170.177442 C378.091593,167.8645 378.928177,165.551593 379.469504,163.238651 C380.010831,160.925709 380.330701,158.735828 380.429124,156.668944 C380.527547,154.602059 380.576758,152.928892 380.576758,151.649393 L380.576758,142.200825 L380.28149,142.200825 C377.72249,146.334594 374.253129,149.582507 369.873303,151.94466 C365.493476,154.306814 360.350948,155.487873 354.445564,155.487873 C349.425988,155.487873 344.701751,154.577473 340.272713,152.756647 C335.843675,150.93582 331.980628,148.426069 328.683455,145.22732 C325.386282,142.02857 322.77811,138.313155 320.85886,134.080963 C318.939611,129.848771 317.98,125.321378 317.98,120.498648 C317.98,115.675917 318.939611,111.148524 320.85886,106.916332 C322.77811,102.68414 325.386282,98.9933306 328.683455,95.8437925 C331.980628,92.6942543 335.843675,90.1845037 340.272713,88.3144655 C344.701751,86.4444272 349.425988,85.5094221 354.445564,85.5094221 C360.350948,85.5094221 365.493476,86.6904812 369.873303,89.0526348 C374.253129,91.4147884 377.72249,94.6627009 380.28149,98.7964697 L380.576758,98.7964697 L380.576758,87.2810284 L389.43479,87.2810284 L389.43479,151.058857 Z M380.872025,120.498648 C380.872025,116.758571 380.158469,113.239999 378.731334,109.942826 C377.3042,106.645654 375.384979,103.791427 372.973614,101.380062 C370.562249,98.9686972 367.708023,97.0494761 364.41085,95.6223417 C361.113677,94.1952072 357.595105,93.4816507 353.855029,93.4816507 C350.114952,93.4816507 346.59638,94.1952072 343.299207,95.6223417 C340.002035,97.0494761 337.147809,98.9686972 334.736443,101.380062 C332.325078,103.791427 330.405857,106.645654 328.978723,109.942826 C327.551588,113.239999 326.838032,116.758571 326.838032,120.498648 C326.838032,124.238724 327.551588,127.757296 328.978723,131.054469 C330.405857,134.351641 332.325078,137.205868 334.736443,139.617233 C337.147809,142.028598 340.002035,143.947819 343.299207,145.374953 C346.59638,146.802088 350.114952,147.515644 353.855029,147.515644 C357.595105,147.515644 361.113677,146.802088 364.41085,145.374953 C367.708023,143.947819 370.562249,142.028598 372.973614,139.617233 C375.384979,137.205868 377.3042,134.351641 378.731334,131.054469 C380.158469,127.757296 380.872025,124.238724 380.872025,120.498648 Z M399.916793,121.384451 C399.916793,116.168028 400.802587,111.369976 402.574202,106.990149 C404.345817,102.610323 406.806357,98.8210913 409.955895,95.6223417 C413.105433,92.423592 416.894665,89.9384468 421.323703,88.1668316 C425.752741,86.3952164 430.575399,85.5094221 435.791821,85.5094221 C441.008244,85.5094221 445.806296,86.3952164 450.186123,88.1668316 C454.565949,89.9384468 458.355181,92.423592 461.55393,95.6223417 C464.75268,98.8210913 467.237825,102.610323 469.00944,106.990149 C470.781056,111.369976 471.66685,116.168028 471.66685,121.384451 C471.66685,126.600873 470.781056,131.398926 469.00944,135.778752 C467.237825,140.158579 464.75268,143.94781 461.55393,147.14656 C458.355181,150.345309 454.565949,152.830455 450.186123,154.60207 C445.806296,156.373685 441.008244,157.259479 435.791821,157.259479 C430.575399,157.259479 425.752741,156.373685 421.323703,154.60207 C416.894665,152.830455 413.105433,150.345309 409.955895,147.14656 C406.806357,143.94781 404.345817,140.158579 402.574202,135.778752 C400.802587,131.398926 399.916793,126.600873 399.916793,121.384451 Z M408.774824,121.384451 C408.774824,125.22295 409.389959,128.839944 410.620248,132.23554 C411.850536,135.631135 413.64673,138.583783 416.008884,141.093571 C418.371037,143.60336 421.225263,145.596397 424.571648,147.072743 C427.918032,148.549089 431.658052,149.287251 435.791821,149.287251 C439.92559,149.287251 443.665611,148.549089 447.011995,147.072743 C450.358379,145.596397 453.212605,143.60336 455.574759,141.093571 C457.936912,138.583783 459.733106,135.631135 460.963395,132.23554 C462.193683,128.839944 462.808818,125.22295 462.808818,121.384451 C462.808818,117.545951 462.193683,113.928958 460.963395,110.533362 C459.733106,107.137766 457.936912,104.185118 455.574759,101.67533 C453.212605,99.1655418 450.358379,97.1725046 447.011995,95.6961586 C443.665611,94.2198126 439.92559,93.4816507 435.791821,93.4816507 C431.658052,93.4816507 427.918032,94.2198126 424.571648,95.6961586 C421.225263,97.1725046 418.371037,99.1655418 416.008884,101.67533 C413.64673,104.185118 411.850536,107.137766 410.620248,110.533362 C409.389959,113.928958 408.774824,117.545951 408.774824,121.384451 Z M485.544432,43.8766728 L494.402464,43.8766728 L494.402464,155.487873 L485.544432,155.487873 L485.544432,43.8766728 Z M571.762606,143.52953 L571.467339,143.52953 C570.089416,145.891684 568.367038,147.933932 566.300153,149.656335 C564.233269,151.378739 561.994178,152.805852 559.582813,153.937717 C557.171448,155.069583 554.637092,155.906166 551.979669,156.447493 C549.322246,156.98882 546.714074,157.259479 544.155074,157.259479 C538.938652,157.259479 534.115994,156.373685 529.686956,154.60207 C525.257918,152.830455 521.468686,150.345309 518.319148,147.14656 C515.16961,143.94781 512.70907,140.158579 510.937455,135.778752 C509.16584,131.398926 508.280045,126.600873 508.280045,121.384451 C508.280045,116.168028 509.16584,111.369976 510.937455,106.990149 C512.70907,102.610323 515.16961,98.8210913 518.319148,95.6223417 C521.468686,92.423592 525.257918,89.9384468 529.686956,88.1668316 C534.115994,86.3952164 538.938652,85.5094221 544.155074,85.5094221 C546.714074,85.5094221 549.322246,85.7800814 551.979669,86.3214083 C554.637092,86.8627352 557.171448,87.6993187 559.582813,88.831184 C561.994178,89.9630493 564.233269,91.3901623 566.300153,93.112566 C568.367038,94.8349697 570.089416,96.8772177 571.467339,99.2393713 L571.762606,99.2393713 L571.762606,43.8766728 L580.620638,43.8766728 L580.620638,155.487873 L571.762606,155.487873 L571.762606,143.52953 Z M572.64841,121.384451 C572.64841,117.545951 571.910248,113.928958 570.433902,110.533362 C568.957556,107.137766 566.939913,104.185118 564.380913,101.67533 C561.821914,99.1655418 558.820055,97.1725046 555.375248,95.6961586 C551.93044,94.2198126 548.19042,93.4816507 544.155074,93.4816507 C540.021305,93.4816507 536.281285,94.2198126 532.934901,95.6961586 C529.588516,97.1725046 526.73429,99.1655418 524.372136,101.67533 C522.009983,104.185118 520.213789,107.137766 518.983501,110.533362 C517.753212,113.928958 517.138077,117.545951 517.138077,121.384451 C517.138077,125.22295 517.753212,128.839944 518.983501,132.23554 C520.213789,135.631135 522.009983,138.583783 524.372136,141.093571 C526.73429,143.60336 529.588516,145.596397 532.934901,147.072743 C536.281285,148.549089 540.021305,149.287251 544.155074,149.287251 C548.19042,149.287251 551.93044,148.549089 555.375248,147.072743 C558.820055,145.596397 561.821914,143.60336 564.380913,141.093571 C566.939913,138.583783 568.957556,135.631135 570.433902,132.23554 C571.910248,128.839944 572.64841,125.22295 572.64841,121.384451 Z M655.175738,142.643727 C651.73093,147.860149 647.474196,151.60017 642.405409,153.8639 C637.336621,156.127631 631.751195,157.259479 625.648965,157.259479 C620.432543,157.259479 615.708306,156.373685 611.476114,154.60207 C607.243922,152.830455 603.602324,150.345309 600.551208,147.14656 C597.500093,143.94781 595.162581,140.158579 593.5386,135.778752 C591.914619,131.398926 591.102641,126.551662 591.102641,121.236817 C591.102641,116.118817 591.939225,111.394581 593.612417,107.063966 C595.285609,102.733351 597.647727,98.9687252 600.698842,95.7699755 C603.749957,92.5712258 607.342345,90.0614753 611.476114,88.2406485 C615.609883,86.4198218 620.186487,85.5094221 625.206064,85.5094221 C630.422486,85.5094221 635.023695,86.4198218 639.00983,88.2406485 C642.995964,90.0614753 646.342298,92.4728042 649.048932,95.4747078 C651.755567,98.4766113 653.797815,101.896762 655.175738,105.735261 C656.553661,109.573761 657.242612,113.461414 657.242612,117.398336 L657.242612,123.598959 L599.960673,123.598959 C599.960673,125.468997 600.329754,127.85572 601.067927,130.759201 C601.8061,133.662681 603.159397,136.492302 605.127858,139.248148 C607.09632,142.003994 609.729097,144.366112 613.02627,146.334573 C616.323443,148.303035 620.580176,149.287251 625.796599,149.287251 C630.32406,149.287251 634.703821,148.204613 638.936013,146.039306 C643.168205,143.873998 646.416117,140.921351 648.679848,137.181274 L655.175738,142.643727 Z M648.38458,115.62673 C648.38458,112.575615 647.769445,109.721389 646.539157,107.063966 C645.308868,104.406543 643.635701,102.06903 641.519605,100.051358 C639.403509,98.0336847 636.893759,96.4343338 633.990278,95.253257 C631.086798,94.0721802 628.011123,93.4816507 624.763162,93.4816507 C619.940432,93.4816507 615.929752,94.4658666 612.731002,96.4343279 C609.532252,98.4027892 606.997896,100.666486 605.127858,103.225486 C603.25782,105.784485 601.929128,108.269631 601.141744,110.680996 C600.354359,113.092361 599.960673,114.740922 599.960673,115.62673 L648.38458,115.62673 Z M669.643855,106.473431 C669.643855,105.193931 669.594644,103.643791 669.496221,101.822964 C669.397798,100.002137 669.323982,98.1567323 669.27477,96.286694 C669.225559,94.4166558 669.151743,92.6696725 669.05332,91.0456919 C668.954896,89.4217113 668.905686,88.166836 668.905686,87.2810284 L677.763717,87.2810284 C677.862141,89.8400282 677.935957,92.3005679 677.985168,94.6627216 C678.03438,97.0248752 678.157407,98.5504098 678.354253,99.2393713 L678.797154,99.2393713 C680.56877,95.4992947 683.521417,92.2759876 687.655186,89.5693533 C691.788955,86.8627189 696.611613,85.5094221 702.123305,85.5094221 C707.43815,85.5094221 711.7687,86.3460056 715.115085,88.0191977 C718.461469,89.6923899 721.094247,91.8822703 723.013496,94.5889046 C724.932746,97.295539 726.261438,100.420424 726.999611,103.963655 C727.737784,107.506885 728.106865,111.148484 728.106865,114.888561 L728.106865,155.487873 L719.248833,155.487873 L719.248833,115.331462 C719.248833,112.575616 719.002779,109.893628 718.510664,107.285417 C718.018548,104.677206 717.157359,102.339693 715.927071,100.272808 C714.696783,98.2059239 712.974405,96.5573623 710.759886,95.3270739 C708.545367,94.0967856 705.666535,93.4816507 702.123305,93.4816507 C698.875344,93.4816507 695.799669,94.0475748 692.896188,95.1794401 C689.992708,96.3113053 687.482957,98.0336832 685.366861,100.346625 C683.250765,102.659567 681.577598,105.563004 680.34731,109.057023 C679.117022,112.551042 678.501887,116.660143 678.501887,121.384451 L678.501887,155.487873 L669.643855,155.487873 L669.643855,106.473431 Z M742.87025,94.0721861 C746.610326,90.6273787 750.940876,88.043812 755.86203,86.3214083 C760.783183,84.5990046 765.704263,83.7378157 770.625416,83.7378157 C775.743415,83.7378157 780.147782,84.3775561 783.838647,85.6570559 C787.529512,86.9365558 790.555976,88.6589336 792.918129,90.8242411 C795.280283,92.9895486 797.027266,95.4746938 798.159131,98.2797512 C799.290997,101.084809 799.856921,104.012851 799.856921,107.063966 L799.856921,142.791361 C799.856921,145.251937 799.906132,147.515634 800.004555,149.582518 C800.102978,151.649403 800.25061,153.617835 800.447456,155.487873 L788.636747,155.487873 C788.341478,151.944643 788.193846,148.401465 788.193846,144.858235 L787.898578,144.858235 C784.945886,149.385696 781.451919,152.584398 777.416574,154.454436 C773.381228,156.324474 768.706202,157.259479 763.391357,157.259479 C760.143395,157.259479 757.043115,156.816582 754.090423,155.930775 C751.137731,155.044967 748.554165,153.716275 746.339645,151.94466 C744.125126,150.173045 742.378143,147.983165 741.098643,145.374953 C739.819143,142.766742 739.179403,139.740278 739.179403,136.295471 C739.179403,131.76801 740.188224,127.978778 742.205897,124.927663 C744.22357,121.876548 746.979375,119.391403 750.473394,117.472153 C753.967413,115.552904 758.051909,114.175001 762.727004,113.338405 C767.4021,112.501809 772.396996,112.083517 777.711841,112.083517 L787.455676,112.083517 L787.455676,109.13084 C787.455676,107.359225 787.111201,105.587636 786.422239,103.816021 C785.733278,102.044406 784.699851,100.445055 783.321928,99.0179205 C781.944005,97.590786 780.221627,96.4589377 778.154743,95.6223417 C776.087858,94.7857456 773.627319,94.3674538 770.77305,94.3674538 C768.21405,94.3674538 765.974959,94.6135078 764.055709,95.1056231 C762.136459,95.5977385 760.389476,96.2128734 758.814707,96.9510464 C757.239938,97.6892194 755.812825,98.5504083 754.533325,99.534639 C753.253825,100.51887 752.023555,101.453875 750.842478,102.339682 L742.87025,94.0721861 Z M780.369251,121.827352 C777.219713,121.827352 773.996406,121.99959 770.699233,122.344071 C767.40206,122.688552 764.400202,123.352897 761.693567,124.337128 C758.986933,125.321359 756.772447,126.699261 755.050043,128.470876 C753.32764,130.242491 752.466451,132.506188 752.466451,135.262034 C752.466451,139.29738 753.819748,142.200816 756.526382,143.972432 C759.233016,145.744047 762.899221,146.629841 767.525105,146.629841 C771.166758,146.629841 774.267038,146.014706 776.826038,144.784418 C779.385038,143.55413 781.451891,141.954779 783.02666,139.986317 C784.601429,138.017856 785.733278,135.827976 786.422239,133.41661 C787.111201,131.005245 787.455676,128.618522 787.455676,126.256368 L787.455676,121.827352 L780.369251,121.827352 Z M811.815262,85.5094221 L825.10231,85.5094221 L825.10231,96.286694 L825.397578,96.286694 C826.283385,94.4166558 827.464444,92.7188833 828.94079,91.1933258 C830.417136,89.6677682 832.065698,88.3636822 833.886525,87.2810284 C835.707352,86.1983747 837.700389,85.3371858 839.865696,84.6974358 C842.031004,84.0576859 844.196279,83.7378157 846.361586,83.7378157 C848.526894,83.7378157 850.495326,84.0330805 852.266941,84.6236189 L851.676405,98.9441036 C850.593752,98.6488344 849.511114,98.4027804 848.42846,98.2059343 C847.345807,98.0090881 846.263169,97.9106665 845.180515,97.9106665 C838.684593,97.9106665 833.714303,99.731466 830.269495,103.373119 C826.824688,107.014773 825.10231,112.674014 825.10231,120.351014 L825.10231,155.487873 L811.815262,155.487873 L811.815262,85.5094221 Z M896.557098,97.0248634 L877.51233,97.0248634 L877.51233,128.766144 C877.51233,130.734605 877.561541,132.678432 877.659964,134.597681 C877.758387,136.516931 878.127468,138.239309 878.767218,139.764867 C879.406968,141.290424 880.391184,142.520694 881.719895,143.455713 C883.048607,144.390732 884.992433,144.858235 887.551433,144.858235 C889.126202,144.858235 890.750158,144.710602 892.42335,144.415333 C894.096542,144.120064 895.622077,143.578745 897,142.791361 L897,154.897338 C895.425231,155.783145 893.382983,156.39828 890.873195,156.742761 C888.363406,157.087242 886.41958,157.259479 885.041657,157.259479 C879.923658,157.259479 875.962189,156.545923 873.157131,155.118788 C870.352074,153.691654 868.28522,151.846249 866.956509,149.582518 C865.627798,147.318788 864.840425,144.784432 864.594367,141.979375 C864.348309,139.174317 864.225282,136.344696 864.225282,133.490427 L864.225282,97.0248634 L848.871361,97.0248634 L848.871361,85.5094221 L864.225282,85.5094221 L864.225282,65.8741183 L877.51233,65.8741183 L877.51233,85.5094221 L896.557098,85.5094221 L896.557098,97.0248634 Z" id="goldenart" fill="#222222"></path>
                <g id="Group-5">
                    <path d="M121.549824,132.153381 L129.92255,114.919089 C130.152229,113.352121 130.391456,112.153381 130.392491,112.153381 L130.392491,113.951769 L180.894112,10 L293.01942,221.153381 L266.478292,221.153381 L182.035795,64.3067623 L152.800798,122.146109 C186.145358,122.150957 202.82268,122.153381 202.832765,122.153381 C202.832841,122.153381 202.832841,122.153582 202.832764,122.153983 C202.825021,128.153634 202.825021,131.153434 202.832765,131.153381 C197.965868,184.727712 154.918139,227.153381 101.899317,227.153381 C45.6218784,227.153381 0,179.919422 0,121.653381 C0,63.38734 45.6218784,16.1533811 101.899317,16.1533811 C117.754659,16.1533811 133.290102,16.1533811 158.40273,31.1533811 L153.57606,39.815237 C143.100681,33.5581986 134.129825,29.8859002 125.548473,27.9976645 C118.914512,26.5379314 113.4678,26.1638138 103.426872,26.1538831 C103.004163,26.153465 102.664799,26.1533811 101.899317,26.1533811 C50.9562328,26.1533811 9.65870307,68.9101875 9.65870307,121.653381 C9.65870307,174.396575 50.9562328,217.153381 101.899317,217.153381 C149.386922,217.153381 188.493114,180.000259 193.579788,132.238058 C193.445228,132.217908 193.309968,132.189816 193.174061,132.153381 C175.260526,132.275445 162.29874,132.315314 152.982935,132.314499 L152.982935,132.153381 L121.549824,132.153381 Z" id="Combined-Shape" fill="#D8232A" fill-rule="nonzero"></path>
                    <rect id="Rectangle-7-Copy" fill="#FFFFFF" transform="translate(155.157037, 32.757704) rotate(-64.000000) translate(-155.157037, -32.757704) " x="122.317447" y="25.4609041" width="65.6791809" height="14.5936001"></rect>
                </g>
            </g>
        </g>
    </g>
</svg>