<?xml version="1.0" encoding="UTF-8"?>
<svg width="394px" height="394px" viewBox="0 0 394 394" version="1.1" xmlns="http://www.w3.org/2000/svg" xmlns:xlink="http://www.w3.org/1999/xlink">
    <!-- Generator: Sketch 44.1 (41455) - http://www.bohemiancoding.com/sketch -->
    <title>logo-small</title>
    <desc>Created with Sketch.</desc>
    <defs></defs>
    <g id="Page-1" stroke="none" stroke-width="1" fill="none" fill-rule="evenodd">
        <g id="logo-small">
            <rect id="Rectangle-17" fill="#D62626" x="0" y="0" width="393.646255" height="393.646255"></rect>
            <path d="M248.020204,220.294726 C248.632895,218.197483 249.160895,216.062802 249.60288,213.897692 L274.413576,274.716941 L297.326648,274.716941 L232.032,121.608688 L190.784631,217.552554 L243.863694,217.552554 C235.301893,249.161879 206.42454,272.41901 172.098071,272.41901 C131.029217,272.41901 97.7353243,239.133267 97.7353243,198.076097 C97.7353243,157.017868 131.029217,123.733977 172.098071,123.733977 C186.717181,123.733977 200.338251,127.968151 211.834619,135.254591 L214.485072,131.329322 C202.231243,123.532627 187.69881,119 172.098071,119 C128.413434,119 93,154.403359 93,198.076097 C93,241.748966 128.413434,277.151135 172.098071,277.151135 C208.064648,277.151135 238.41696,253.150517 248.020204,220.294726 M214.190107,213.877848 L231.924812,170.57368 L249.593617,213.877848 L214.190107,213.877848" id="Fill-4" fill="#FFFFFF"></path>
        </g>
    </g>
</svg>