<?xml version="1.0" encoding="UTF-8"?>
<svg width="300px" height="300px" viewBox="0 0 300 300" version="1.1" xmlns="http://www.w3.org/2000/svg" xmlns:xlink="http://www.w3.org/1999/xlink">
    <!-- Generator: Sketch 44.1 (41455) - http://www.bohemiancoding.com/sketch -->
    <title>Group 12</title>
    <desc>Created with Sketch.</desc>
    <defs></defs>
    <g id="Page-1" stroke="none" stroke-width="1" fill="none" fill-rule="evenodd">
        <g id="Group-11" transform="translate(-192.000000, -136.000000)">
            <g id="Group-12" transform="translate(192.000000, 136.000000)">
                <rect id="Rectangle-15" fill="#FF3333" x="0" y="0" width="300" height="300"></rect>
                <path d="M193.183542,167.342636 C193.678309,165.658489 194.104685,163.944277 194.461601,162.20563 L214.496995,211.045271 L233,211.045271 L180.27258,88.094853 L146.964072,165.140592 L189.827034,165.140592 C182.913119,190.523807 159.593776,209.199965 131.874105,209.199965 C98.7097522,209.199965 71.8239188,182.470537 71.8239188,149.500425 C71.8239188,116.529463 98.7097522,89.8015224 131.874105,89.8015224 C143.679481,89.8015224 154.678911,93.2016881 163.962579,99.0529135 L166.102901,95.9008072 C156.20756,89.6398324 144.472177,86 131.874105,86 C96.5974282,86 68,114.429936 68,149.500425 C68,184.57102 96.5974282,213 131.874105,213 C160.918212,213 185.42863,193.7268 193.183542,167.342636 M165.864707,162.189695 L180.186023,127.415177 L194.454121,162.189695 L165.864707,162.189695" id="Fill-4" fill="#FFFFFF"></path>
            </g>
        </g>
    </g>
</svg>