<svg width="24" height="24" viewBox="0 0 24 24" fill="none" xmlns="http://www.w3.org/2000/svg">
<rect width="24" height="24" fill=""/>
<path fill-rule="evenodd" clip-rule="evenodd" d="M8 2C7.51116 2 7.09397 2.35341 7.01361 2.8356L5.01361 14.8356C4.96528 15.1256 5.04698 15.4221 5.23698 15.6464C5.42698 15.8707 5.70605 16 6 16H11L11 20H7C6.44772 20 6 20.4477 6 21C6 21.5523 6.44772 22 7 22H17C17.5523 22 18 21.5523 18 21C18 20.4477 17.5523 20 17 20H13V16H18C18.294 16 18.573 15.8707 18.763 15.6464C18.953 15.4221 19.0347 15.1256 18.9864 14.8356L16.9864 2.8356C16.906 2.35341 16.4888 2 16 2H8ZM13 14H16.8195L15.1529 4H8.84713L7.18046 14H11H13Z" fill="black"/>
</svg>
