<svg width="24" height="24" viewBox="0 0 24 24" fill="none" xmlns="http://www.w3.org/2000/svg">
<rect width="24" height="24" fill=""/>
<path fill-rule="evenodd" clip-rule="evenodd" d="M13 2C13 1.44772 12.5523 1 12 1C11.4477 1 11 1.44772 11 2L11 8H8C7.51116 8 7.09397 8.35341 7.01361 8.8356L5.01361 20.8356C4.96528 21.1256 5.04698 21.4221 5.23698 21.6464C5.42698 21.8707 5.70605 22 6 22H18C18.294 22 18.573 21.8707 18.763 21.6464C18.953 21.4221 19.0347 21.1256 18.9864 20.8356L16.9864 8.8356C16.906 8.35341 16.4888 8 16 8H13V2ZM7.18046 20L8.84713 10H15.1529L16.8195 20H7.18046Z" fill="black"/>
</svg>
