<svg width="24" height="24" viewBox="0 0 24 24" fill="none" xmlns="http://www.w3.org/2000/svg">
<rect width="24" height="24" fill=""/>
<path fill-rule="evenodd" clip-rule="evenodd" d="M16 5.5C16 4.67157 16.6716 4 17.5 4C18.3284 4 19 4.67157 19 5.5C19 6.32843 18.3284 7 17.5 7C16.6716 7 16 6.32843 16 5.5ZM12.0311 9.96887C10.3198 9.73976 9 8.27401 9 6.5C9 4.567 10.567 3 12.5 3C13.2566 3 13.9571 3.24005 14.5295 3.64815C15.1478 2.65842 16.247 2 17.5 2C19.433 2 21 3.567 21 5.5C21 6.75299 20.3416 7.8522 19.3519 8.47051C19.7599 9.04293 20 9.74343 20 10.5C20 12.433 18.433 14 16.5 14C14.9657 14 13.662 13.0128 13.1895 11.6389L11.8284 13L13.7071 14.8787C14.0976 15.2692 14.0976 15.9024 13.7071 16.2929C13.3166 16.6834 12.6834 16.6834 12.2929 16.2929L10.4142 14.4142L8.82842 16L10.7071 17.8787C11.0976 18.2692 11.0976 18.9024 10.7071 19.2929C10.3166 19.6834 9.68341 19.6834 9.29289 19.2929L7.41421 17.4142L6.43865 18.3898L8.31733 20.2685C8.70785 20.659 8.70785 21.2921 8.31733 21.6827C7.9268 22.0732 7.29364 22.0732 6.90311 21.6827L4.61022 19.3898L4.31733 19.0969C3.92681 18.7064 3.92681 18.0732 4.31733 17.6827L6.70637 15.2936C6.70661 15.2934 6.70686 15.2931 6.7071 15.2929C6.70735 15.2926 6.7076 15.2924 6.70784 15.2922L9 13L6.7071 10.7071C6.31658 10.3166 6.31658 9.68342 6.7071 9.29289C7.09763 8.90237 7.73079 8.90237 8.12132 9.29289L10.4142 11.5858L12.0311 9.96887ZM11 6.5C11 5.67157 11.6716 5 12.5 5C13.3284 5 14 5.67157 14 6.5C14 7.32843 13.3284 8 12.5 8C11.6716 8 11 7.32843 11 6.5ZM16.5 9C15.6716 9 15 9.67157 15 10.5C15 11.3284 15.6716 12 16.5 12C17.3284 12 18 11.3284 18 10.5C18 9.67157 17.3284 9 16.5 9Z" fill="black"/>
</svg>
